<?xml version="1.0" standalone="no"?>
<!DOCTYPE svg PUBLIC "-//W3C//DTD SVG 1.1//EN" "http://www.w3.org/Graphics/SVG/1.1/DTD/svg11.dtd" >
<svg xmlns="http://www.w3.org/2000/svg">
<metadata>
This is a custom SVG webfont generated by Font Squirrel.
Copyright   : Copyright c 2007 by Blue Vinyl Fonts All rights reserved
Designer    : Jess Latham
Foundry     : Blue Vinyl Fonts
</metadata>
<defs>
<font id="webfonthWsQrQlC" horiz-adv-x="647" >
<font-face units-per-em="2048" ascent="1536" descent="-512" />
<missing-glyph horiz-adv-x="544" />
<glyph unicode="&#xfb01;" horiz-adv-x="737" d="M-137 -430q-8 37 10 117q23 92 109 305l145 334q-16 -2 -22.5 12t4.5 27l20 22l25 25q2 4 11 14t11 16l27 58l30 73l170 412q20 51 66 154q39 84 104 102q66 20 109 -31q43 -49 14 -141q-31 -90 -125 -219q-59 -84 -190 -248l-94 -108l-43 -50l-19 -20q-12 -14 -16 -27 l-113 -258q8 18 49 19q33 0 52 2q47 6 96 28q86 43 196 174q6 6 9 7l22 26l139 160l46 53q10 14 24 13q29 -8 16 -31l-12 -25q-76 -139 -127 -266q-29 -66 -41 -119q-6 -27 -4 -49q0 -25 8 -25q8 -2 33 11q25 14 49 35q33 29 90 90q41 45 78 90q2 2 6 8q33 41 52 25 q16 -14 -5 -43l-36 -41q-70 -82 -109 -121q-55 -55 -94 -78q-55 -33 -86 -16q-27 12 -31 55q-6 47 23 131q27 74 77 184l-92 -108l-10 -9q-31 -37 -61 -67q-74 -70 -131 -98q-66 -37 -134 -39q-12 -2 -36 -2q-12 0 -19 2q-2 -2 -2 -9q-4 -12 2 -69l12.5 -92t12.5 -108 t-1 -87t-18 -100q-20 -66 -65 -112t-105 -48q-86 0 -106 80zM-90 -371q-8 -39 4 -63q25 -47 88 -21q109 45 109 226q2 61 -15 188q-8 57 -10 88q-6 35 0 72q-70 -160 -100 -242q-47 -119 -66 -188q-8 -35 -10 -60zM272 547q152 180 224 276q43 55 94 135q39 63 59 115 q39 98 -20 123q-29 12 -57.5 -5t-47.5 -46q-12 -18 -35 -74l-32 -78l-78 -188zM815.5 954q20.5 41 54.5 25q33 -18 12.5 -59t-55.5 -25q-32 18 -11.5 59z" />
<glyph unicode="&#xfb02;" horiz-adv-x="790" d="M-137 -430q-8 37 10 117q23 92 109 305l145 334q-16 -2 -22.5 12t4.5 27l20 22l25 25q2 4 11 14t11 16l27 58l30 73l170 412q20 51 66 154q39 84 104 102q66 20 109 -31q43 -49 14 -141q-31 -90 -125 -219q-59 -84 -190 -248l-94 -108l-43 -50l-19 -20q-12 -14 -16 -27 l-113 -258q8 18 49 19q33 0 52 2q47 6 96 28q86 43 196 174l7 7q4 6 13 15l13 13l49 64l12 12l12 15l11 14q14 20 15 22l6 13q2 6 4 10q31 84 57 143q57 147 90 219l72 148q45 86 80 125q70 84 127 53q33 -16 38 -59t-12 -72q-10 -31 -51 -98q-55 -92 -155 -226l-207 -272 q-8 -8 -15 -21l-8 -24l-18 -49q-18 -51 -31 -95q-12 -41 -18 -79q-8 -59 6 -92t48 -26t67 38l66 61q32 31 42 45l63 70q2 2 7 8q41 49 59 27q10 -16 -6 -37q-33 -39 -35 -41l-68 -72q-59 -68 -112 -106q-57 -41 -96 -39q-43 0 -66 33.5t-25 80.5q-2 61 41 195 q-14 -16 -39 -49q-4 -4 -12 -8q-45 -53 -67 -76q-74 -70 -131 -98q-66 -37 -134 -39q-12 -2 -36 -2q-12 0 -19 2q-2 -2 -2 -9q-4 -12 2 -69l12.5 -92t12.5 -108t-1 -87t-18 -100q-20 -66 -65 -112t-105 -48q-86 0 -106 80zM-90 -371q-8 -39 4 -63q25 -47 88 -21 q109 45 109 226q2 61 -15 188q-8 57 -10 88q-6 35 0 72q-70 -160 -100 -242q-47 -119 -66 -188q-8 -35 -10 -60zM272 547q152 180 224 276q43 55 94 135q39 63 59 115q39 98 -20 123q-29 12 -57.5 -5t-47.5 -46q-12 -18 -35 -74l-32 -78l-78 -188zM721 649l186 252 q96 141 127 203q27 59 6 86q-6 8 -26 4q-41 -16 -86 -94q-31 -47 -64 -119q-41 -80 -82 -178z" />
<glyph unicode=" "  horiz-adv-x="544" />
<glyph unicode="&#x09;" horiz-adv-x="544" />
<glyph unicode="&#xa0;" horiz-adv-x="544" />
<glyph unicode="!" horiz-adv-x="1024" d="M256 127q0 -16 11.5 -26.5t27.5 -10.5t26.5 10.5t10.5 26.5t-10.5 27.5t-26.5 11.5q-39 0 -39 -39zM393 449l10 22l56 131l172 402l67 155l19 43q14 33 35 23q25 -10 2 -54q-10 -27 -35 -79l-166 -392l-117 -268q-4 -12 -14 -14q-14 -6 -24.5 5.5t-4.5 25.5z" />
<glyph unicode="&#x22;" horiz-adv-x="430" d="M438 1028q-6 10 0 21l4 10l25 53l35 72l28 59l7 12l6 9q10 10 24 4q23 -10 11 -31q0 -4 -3 -6l-22 -49l-18 -38l-17 -34l-29 -61l-8 -17l-2 -2q-2 -10 -16 -14q-17 0 -25 12zM565 1049l6 10l25 53l16 34l19 38l26 59l7 12l6 9q10 10 26 4q20 -12 11 -31q-2 -2 -2 -6 l-25 -49l-33 -72l-39 -78v-2q-6 -10 -16 -14q-18 0 -25 12q-6 9 -2 21z" />
<glyph unicode="#" horiz-adv-x="989" d="M29 647q4 12 18 17h182l2 4l19 43l31 67l32 74l27 57l10 25h-162q-14 4 -18 16.5t3 21.5t20 9h178l2 2l6 14l24 56q20 49 33 73l31 68l18 43l7 12q12 12 24 6q12 -4 16 -20q0 -6 -4 -14q-4 -6 -8 -19l-26 -59l-33 -74q-8 -20 -29 -61q-2 -10 -10 -27h266l2 2l6 14l25 56 q20 49 33 73l30 68l19 43l6 12q12 12 25 6q12 -4 16 -20q0 -6 -4 -14q-4 -6 -8 -19l-27 -59l-33 -74l-28 -61q-2 -10 -11 -27h158q12 0 19.5 -10t3.5 -21q-4 -12 -19 -16h-182l-2 -4l-19 -43l-30 -68l-33 -74l-27 -59q-2 -4 -5 -11t-5 -11h162q16 -4 18 -19q4 -10 -3 -19.5 t-19 -9.5h-178l-3 -2l-6 -14l-24 -55q-20 -49 -33 -74l-31 -68l-18 -45l-2 -4q-2 -4 -4 -6q-12 -12 -25 -6q-12 4 -16 18q0 8 4 17l8 16l27 62l32 73q8 20 29 62q2 10 10 26h-266l-2 -2l-6 -14l-25 -55q-20 -49 -32 -74l-31 -68l-19 -45l-2 -4q-2 -4 -4 -6q-12 -12 -24 -6 q-12 4 -17 18q0 8 4 17l9 16l26 62l33 73q8 20 29 62q2 10 10 26h-158q-12 0 -19 9.5t-3 21.5zM281 664h266q2 2 2 4l18 43l31 67l33 74l26 57l11 25h-267l-2 -4l-18 -43l-31 -68l-33 -74l-26 -59q-2 -4 -5 -11t-5 -11z" />
<glyph unicode="$" horiz-adv-x="638" d="M59 596q0 8 2 12q4 8 9 13q16 8 26 0q4 -2 8 -11q2 -4 2 -12q0 -20 5 -31q12 -45 67 -73l2 4l19 43l26 67l31 74l27 63q2 6 7 17.5t7 15.5q0 2 -2 4l-25 29q-27 27 -39 49q-37 53 -41 119q0 63 37 113q41 51 99 65q31 6 59 4q18 0 37 -6q4 0 16 -4l13 -2q6 18 22 55 q6 14 10 27q4 8 9 10q12 8 26 2q14 -8 10 -22v-4l-2 -5l-12 -28l-22 -56q43 -25 67 -67q18 -29 29 -78q4 -12 2 -18q-4 -16 -19 -17q-14 -2 -24 10l-4 15q0 2 -1 7t-1 7q-12 37 -23 55q-16 27 -43 45l-2 -2q-8 -14 -10 -28l-27 -60l-30 -75l-29 -70l-21 -49q-4 -8 -4 -12 q-2 0 0 -3l25 -30q55 -63 76 -107q27 -49 20 -96q-2 -27 -14 -49q-16 -29 -31 -41q-37 -33 -98 -41q-57 -10 -113 6q-4 0 -12 4q-2 0 -2 -2q-4 -8 -4 -10l-17 -37q0 -4 -4 -12l-6 -11q-10 -14 -25 -6q-12 4 -16 21q0 4 4 12t4 12l17 37q0 2 4 11v2l-15 8q-29 18 -45 37 q-41 41 -41 100zM221 477q45 -14 96 -8q35 4 56 14q25 10 37 31q14 20 16 41q8 35 -16 82q-20 33 -33 47q-8 12 -25.5 33.5t-19.5 23.5q-2 0 -2 -2l-15 -37q-6 -12 -15 -34.5t-13 -30.5l-31 -74l-25 -61zM238 997q-4 -31 6 -59q10 -33 30 -59q6 -8 43 -52l2 4v5l19 43l29 69 l30 74l25 59l10 25q-10 4 -39 8q-12 2 -39 2q-63 -6 -96 -63q-18 -29 -20 -56z" />
<glyph unicode="%" horiz-adv-x="962" d="M63 809q-2 70 17 141q20 74 51 127q27 55 70 101q43 43 82 61q45 25 90 12q51 -12 78 -80q20 -51 12 -133q2 0 6 1t6 1q57 10 109 31q57 27 102 62q51 41 82 86l16 26q4 4 4 8q2 2 3 4l4 5q4 4 6 4q2 2 4 2l4 2h6q0 -2 4 -2t6 -2l6 -6v-3l3 -6v-8q0 -6 -3 -8 q-4 -6 -8 -14l-12 -23l-18 -33l-25 -41l-27 -47l-30 -55l-19 -32q-12 -22 -16 -27q-25 -41 -35 -64q-14 -23 -39 -68l-41 -67l-39 -72l-41 -71l-41 -70q-4 -6 -18 -30.5t-21 -39.5l-36 -65l-37 -62l-33 -59l-29 -51q-4 -6 -26 -45l-23 -39q-2 -4 -16 -29l-11 -20l-6 -9 q-8 -12 -20 -12t-19.5 12.5t0.5 22.5l5 8l10 21l43 71l28 51l33 58q10 20 35 61q25 45 39 68q4 6 18.5 30.5t20.5 38.5l41 70q4 10 41 72l39 69l37 66l36 63q20 37 33 56l27 49l24 41q12 20 17 31l12 20l4 6q-39 -25 -94 -49q-68 -27 -133 -35h-4v-4q-2 -4 -2 -10 q-4 -12 -4 -19q-8 -25 -11 -36l-26 -64q-25 -53 -64 -106q-37 -47 -80 -76q-45 -27 -82 -29q-29 0 -55 15q-25 16 -41 40q-25 41 -29 107zM111 805q0 -25 10 -55q12 -31 29 -43q23 -16 47 -13q39 8 77.5 43t73.5 92q35 59 53 125l9 35h-21q-78 4 -127 37q-20 18 -37 43 q-12 27 -10 51q-35 -45 -61 -102q-33 -70 -41 -144q-4 -46 -2 -69zM262 1102q6 -25 29 -37q20 -18 55 -24.5t70 -6.5q6 31 2 70q-4 33 -15 57q-10 29 -34 41q-23 12 -60 0l-16 -8l-10 -6q0 -2 -4 -2q0 -2 -3 -2v-2l-6 -15l-6 -16q-6 -29 -2 -49zM489 203q-8 61 9 135 q12 68 45 133q33 68 65 107q35 45 80 71q47 27 82 25q25 0 47 -12q45 -25 64 -89q12 -53 6 -127q-10 -76 -37 -141q-31 -72 -62 -112q-33 -49 -75 -84q-41 -31 -82 -39q-27 -4 -49 2q-29 6 -50 30q-31 31 -43 101zM535 225q4 -39 10 -57q8 -23 28 -43q18 -14 50 -10 q39 6 75 43q43 39 74 92q35 59 53 125q20 78 19 141q-2 29 -13 57q-12 31 -28 43q-33 27 -86 -2q-43 -29 -76 -69q-43 -55 -66 -111q-31 -76 -38 -141q-4 -45 -2 -68z" />
<glyph unicode="&#x26;" horiz-adv-x="739" d="M-23 199q6 57 39 112q27 51 74 105q37 41 103 96q51 45 118 96q20 14 62 47q10 6 30 23l9 6q4 0 0 4v4l-4 21q-14 94 -15 157q-4 76 8 140q10 68 39 116q10 18 37 50q18 20 51 43q53 35 109 32q57 0 104 -41q45 -39 66 -102q6 -31 6 -64q-4 -31 -16 -61q-18 -47 -62 -92 q-47 -49 -98 -92l-121 -97l-33 -22l-16 -12l-2 -2v-2v-7q0 -2 1 -4t1 -4q16 -72 18 -78q27 -106 41 -149l43 -135l113 94l98 88l35 37l23 26l6 11q0 2 2 4l6 12q16 8 27 0q14 -10 10 -24q-2 -8 -10 -21l-19 -25q-14 -18 -74 -77l-102 -90l-55 -48q-2 -2 -29 -22l-8 -6 q-2 0 -2 -2q-2 0 -2 -2l6 -19l43 -112l12 -27q0 -4 2 -6q4 -16 -10 -27q-14 -8 -27 2q-4 4 -8 13l-12 28q-16 39 -45 117q-92 -66 -103 -72q-53 -37 -120 -65q-74 -25 -127 -31q-66 -8 -111 6q-51 14 -80 45q-35 42 -31 105zM27 156q10 -27 30 -41q29 -23 82 -27 q51 -6 119 12q63 16 135 60q33 20 90 61l41 31l2 2h2l2 2q2 0 0 2l-4 14q-18 51 -22 66q-25 72 -43 141l-39 156q-2 -4 -10 -8l-127 -99q-78 -61 -115 -96q-57 -57 -86 -98q-16 -23 -35 -58q-16 -35 -22 -61q-6 -30 0 -59zM438 870q2 -72 17 -155l90 67q66 51 110 95 q53 49 80 88q18 33 23 43q12 29 8 63q-6 66 -57 105q-25 20 -52 26q-25 6 -53 0q-49 -10 -104 -69l-8 -13q-31 -41 -46 -110q-12 -64 -8 -140z" />
<glyph unicode="'" horiz-adv-x="440" d="M463 1028q-6 10 0 21l4 10l25 53l34 72l29 59l6 12l6 9q10 10 25 4q23 -10 10 -31q0 -4 -2 -6l-22 -49l-19 -38l-16 -34l-29 -61l-8 -17l-2 -2q-2 -10 -17 -14q-16 0 -24 12z" />
<glyph unicode="(" horiz-adv-x="716" d="M92 -201q0 57 6 115q6 61 19 127q10 66 30 139q29 98 46 146q33 98 53 147q20 53 57 133q29 70 62 127l63 117l68 108q35 51 69 95q45 57 70 84l70 67q20 18 65 51q33 23 66 35q31 14 59 17q27 4 37 -6.5t4 -24.5t-21 -14q-23 0 -45 -7q-41 -16 -59 -28q-25 -14 -66 -47 q-33 -27 -67 -66l-70 -82q-25 -31 -69 -96q-29 -41 -68 -107q-14 -23 -37.5 -65.5t-30.5 -52.5l-61 -127l-57 -135q-18 -47 -52 -146q-25 -74 -43 -147q-16 -63 -30 -138q-12 -66 -19 -127q-4 -37 -4 -110q0 -53 8 -94q14 -53 23 -74q27 -51 63 -66q6 -2 16.5 -4t12.5 -2 q10 0 14 -2q8 -4 11 -8q6 -14 -2 -27q-4 -4 -13 -8h-14q-27 0 -55 15q-25 14 -47 38q-16 18 -37 68q-12 39 -19 82q-6 32 -6 100z" />
<glyph unicode=")" horiz-adv-x="849" d="M-74 -481q4 12 21 16h14q14 0 27 6q29 6 61 27q23 12 64 45q33 27 67 65l70 80l69 95q25 35 70 108l66 117q39 74 61 127q20 43 57 133l54 145q25 74 43 148q14 57 32 139q12 61 19 127q6 61 4 113q0 53 -8 94q-6 43 -21 76q-23 49 -59 67l-29 6h-14l-12 7q-10 14 -4 26 q8 14 20 14q51 0 88 -30q35 -29 51 -72q12 -29 25 -78q8 -43 8 -96q2 -37 -2 -111q-8 -82 -16 -125q-16 -90 -29 -135q-25 -98 -41 -145q-14 -51 -51 -150q-25 -68 -56 -135q-23 -53 -61 -129l-63 -121q-33 -59 -68 -108q-18 -31 -68 -98q-37 -51 -69 -86q-29 -35 -70 -72 q-27 -27 -67 -58q-37 -27 -66 -38q-25 -14 -61 -21q-20 -4 -29 -4q-14 0 -21 6q-14 11 -6 25z" />
<glyph unicode="*" horiz-adv-x="841" d="M82 660.5q0 13.5 10 21.5l43 29l58 37l67 45l66 43l47 30l18 13l-16 16l-51 49l-54 53l-18 19q-4 4 -8 16q0 16 14 22.5t25 -3.5l8 -9l47 -45l82 -82l14 33l31 68l31 71l22 52l4 8q2 10 19 14q16 0 22 -14q6 -8 0 -19q0 -2 -2 -4q-4 -12 -8 -18q-10 -31 -29 -66l-30 -69 q-6 -20 -15 -33l10 6l46 29l63 43l66 43l53 35q18 12 20 14q12 6 25 0q10 -6 11 -18.5t-9 -20.5l-43 -29l-59 -39l-68 -43l-64 -43l-47 -30l-18 -13l14 -16l51 -49l70 -70l4 -4q6 -4 6 -14q4 -14 -12 -23q-16 -6 -27 4q-2 6 -8 9l-100 100l-27 27h-2l-14 -35 q-6 -12 -15.5 -35t-13.5 -31q-20 -49 -33 -73l-20 -50q-4 -4 -4 -8q-6 -14 -21 -14q-16 0 -22 14q-4 10 0 19q2 2 2 4l8 18q25 53 29 66l30 69l15 33q-14 -10 -17 -10q-16 -12 -49 -33l-67 -45l-64 -43l-47 -31l-12 -6l-2 -2q-12 -8 -23 0q-12 4 -12 17.5z" />
<glyph unicode="+" horiz-adv-x="786" d="M57 580q8 14 23 14h282l5 8l18 45l27 72l30 74l25 59q2 10 10 27q4 10 15 14q14 2 24 -8q6 -14 4 -23l-2 -2l-14 -39l-27 -65l-31 -76l-24 -62l-10 -24h274q10 0 17.5 -8t5.5 -17q0 -23 -23 -22h-289h-4q0 -2 -1 -5t-3 -5l-20 -54q-25 -57 -29 -71l-29 -72l-20 -47v-2 q-2 -4 -2 -6q-6 -12 -21 -15q-14 0 -22 15q-4 10 0 18l2 2l6 17l25 59q8 27 28 76l27 63q2 10 10 27h-264q-12 0 -19.5 11.5t-3.5 21.5z" />
<glyph unicode="," horiz-adv-x="477" d="M209 -41q4 8 14 23l15 20q14 16 26 39q2 4 9 17l12 22q2 4 0 6l-9 6q-6 4 -10 14q-8 20 5.5 37t33.5 15q31 -2 37 -41v-8q-4 -41 -59 -125l-33 -47q-14 -18 -33 -9q-20 13 -8 31z" />
<glyph unicode="-" horiz-adv-x="892" d="M248 537q0 16 14 22h445q10 0 18 -6q10 -10 4 -27q-6 -12 -22 -12h-422q-18 0 -23 2q-14 9 -14 21z" />
<glyph unicode="." horiz-adv-x="284" d="M174 150q0 18 13.5 31.5t31.5 13.5q20 0 33.5 -13.5t13.5 -31.5q0 -20 -13 -34t-34 -14q-18 0 -31.5 14t-13.5 34z" />
<glyph unicode="/" horiz-adv-x="718" d="M-76 96v25q0 2 6 2h50h16l6 20l43 105l152 373l161 395l74 184h-455v47h799q2 0 2 -22v-25h-264h-33l-6 -18l-43 -107l-151 -373l-162 -395l-74 -184h678v-47h-797q-2 0 -2 20z" />
<glyph unicode="0" horiz-adv-x="731" d="M59 449q23 190 117 387q82 170 191 278q111 106 211 107q88 0 132 -76t52 -176q10 -176 -60 -387q-66 -195 -165 -332q-100 -139 -207 -191q-63 -27 -111 -20q-78 12 -123 90q-62 113 -37 320zM100 373q-6 -86 15 -164q25 -88 75 -113q47 -27 117 4q100 45 205 195 q102 154 160 342l24 94q20 106 20.5 194.5t-24.5 153.5q-35 86 -102 95q-47 6 -105 -27q-100 -57 -202 -215q-104 -162 -152 -357q-29 -112 -31 -202z" />
<glyph unicode="1" horiz-adv-x="528" d="M18 82q4 12 9 18l36 97l160 389l160 397l76 188l-76 -38q-14 -6 -27.5 2t-7.5 24q2 8 25 21l92 45l27 14q14 6 26 -4t6 -25l-49 -120l-147 -367l-172 -426l-90 -221l-3 -4q-8 -18 -27.5 -13t-17.5 23z" />
<glyph unicode="2" horiz-adv-x="864" d="M-42 143.5q7 30.5 34 51.5q86 72 258 14q6 -2 18 4q8 4 13 8q16 8 24 15l53 34q74 57 109 88q106 98 182 224q94 168 115 336q8 90 -24.5 169.5t-110.5 110.5q-80 31 -169 -6t-149 -109q-57 -70 -55 -129q0 -16 4 -24q10 -18 4 -29q-12 -25 -33 -8q-6 4 -16 25 q-18 53 18 131q39 76 115 133t159 70.5t171 -27.5q70 -41 103.5 -117t29.5 -164q-2 -74 -37 -188q-23 -72 -63 -158q-127 -244 -396 -410q49 -18 120 -38.5t124 -22.5q66 -4 113 27q12 6 24.5 18t22.5 10q20 0 20 -18q2 -12 -10 -25q-96 -94 -305 -35q-25 6 -141 48 q-4 0 -17 4q-4 0 -12 -2l-23 -13l-45 -22q-61 -27 -77 -31q-94 -29 -132 0q-26 25 -19 55.5zM4 127q14 -16 68 -2q57 16 127 51q-109 25 -168 -10q-10 -6 -22.5 -18.5t-4.5 -20.5z" />
<glyph unicode="3" horiz-adv-x="827" d="M-80 250q14 18 33 8q2 -2 14 -31q6 -16 15 -26q37 -55 127 -82q150 -47 301 8q72 27 131 80q61 55 98 145q45 100 31 180q-10 53 -39 84l-21 19q-4 4 -8 2l-10 -6q-29 -16 -43 -23q-111 -49 -184 -35q-27 4 -41 21q-25 27 2 65q37 47 123 60q53 10 102 -2q27 -6 47 -19 q8 -2 10 0l10 7q12 8 19 14q166 135 188 303q18 104 -49 166q-49 43 -137 43q-80 2 -164 -31q-39 -14 -80 -41q-39 -23 -53 -47q-2 -2 -5 -21.5t-15 -23.5q-18 -6 -25.5 9.5t-3.5 33.5q14 57 113 109q80 41 163 53q100 16 181 -15q76 -33 108 -108q33 -84 0 -191 q-51 -172 -213 -292q23 -20 41 -48q76 -123 -18 -317q-78 -152 -230 -213q-127 -49 -268 -31q-203 31 -248 158q-8 25 -2 35zM365 621q23 -8 67 0q63 8 127 45q-94 35 -178 -19q-30 -20 -16 -26z" />
<glyph unicode="4" horiz-adv-x="780" d="M52 619.5q-3 17.5 11 29.5l216 178l335 283l119 98q2 2 10 9q49 45 62 12q2 -4 2 -12q0 -4 -4 -13.5t-6 -13.5q-6 -12 -27 -64q-37 -82 -82 -192l-119 -281q45 0 68 2q20 0 31 2h24q25 -4 17 -30q-4 -12 -29 -17q-29 -2 -88 -2q-2 -2 -23 -2h-20q0 -2 -2 -2l-6 -14 q-41 -102 -64 -152l-143 -338q0 -2 -2 -2v-4q-8 -20 -29.5 -12t-13.5 29l12 28l72 168l125 297q-113 -2 -338 -2h-84q-21 0 -24 17.5zM133 647q127 0 385 4l82 193l125 299l-66 -56l-321 -268z" />
<glyph unicode="5" horiz-adv-x="804" d="M18 272q8 29 17 43q16 27 26.5 29t19.5 -3t9 -15q0 -6 -3 -13.5t-8 -14.5t-7 -11q-18 -35 -2 -74q18 -53 92 -84q92 -33 175 -9.5t155 89.5q145 129 174 313q14 104 -23 174q-35 63 -108 84q-98 31 -240 -24q-37 -16 -55 -27q-25 -14 -35 12q-2 10 4 23l184 309l82 139 q14 25 29 25h352q23 0 23 -23.5t-23 -23.5h-336q-4 0 -10 -10l-18 -31l-64 -107l-143 -241q240 94 364 -39q115 -117 41 -334q-63 -184 -211 -289q-174 -123 -340 -51q-82 35 -110 102q-19 43 -11 82z" />
<glyph unicode="6" horiz-adv-x="696" d="M55 180q-59 123 11 332q88 272 321 518q109 119 227 203q18 12 30.5 -6.5t-5.5 -32.5l-6 -6l-47 -37q-254 -205 -396 -469q154 113 302 53q123 -51 141 -205q18 -147 -68 -294q-88 -160 -239 -187q-84 -16 -160 19.5t-111 111.5zM76 365q-10 -109 24 -175q39 -74 123 -94 q88 -20 174 27q59 31 105 96q96 139 88 287q-6 80 -47 135q-53 61 -142 66q-117 6 -219 -86q-23 -23 -41 -48q-10 -14 -28 -63q-29 -84 -37 -145z" />
<glyph unicode="7" horiz-adv-x="673" d="M150 96q4 12 24 47l62 125l186 377l178 361l86 170h-438q-41 0 -43 20q-2 18 9 22.5t32 4.5h459q33 0 38 -15q4 -12 -6 -30l-116 -236l-187 -375l-178 -358l-51 -105l-12 -24q0 -2 -3 -4q-10 -20 -30 -10t-10 30z" />
<glyph unicode="8" horiz-adv-x="671" d="M-6 143q-33 57 0 158q31 84 90 164q33 47 117 123q27 25 80 69l45 37l20 17q4 2 0 10l-6 12q-117 248 -27 377q84 125 269 139q90 4 153 -22q39 -14 64 -39q31 -35 20 -60q16 -18 -6 -61q-12 -23 -47 -61q-57 -61 -254 -222l-86 -69l-14 -10q-4 -2 0 -11l14 -22l25 -45 l55 -95q94 -162 33 -294q-63 -135 -252 -170q-100 -18 -183 0q-79 18 -110 75zM25 217q-2 -59 47 -88t109.5 -24.5t107.5 10.5q88 18 152.5 72.5t72.5 138.5q10 84 -37 163l-41 72q-23 37 -63 111q-145 -119 -197 -170q-57 -57 -102 -137q-49 -91 -49 -148zM371 1110 q-106 -119 16 -367l258 211q82 76 96 93q39 45 39 63q0 6 2 8l-6 10l-4 17q-6 10 -24 24q-37 23 -93 31q-178 25 -284 -90z" />
<glyph unicode="9" horiz-adv-x="600" d="M92 109q2 2 12 14q227 227 388 473q-63 -45 -134 -51t-139 39q-131 102 -65 331q57 193 200 275l33 16q96 37 178 8q76 -29 107 -100q57 -125 -25 -328q-47 -119 -155 -274q-80 -115 -189 -242q-94 -106 -143 -157l-31 -31q-12 -12 -28.5 -1.5t-8.5 28.5zM178 772 q4 -96 64 -147q61 -49 147 -29q76 20 135 84q57 59 97 166q57 176 0 266q-45 74 -140 70q-88 -6 -159 -74q-68 -61 -107 -152.5t-37 -183.5z" />
<glyph unicode=":" horiz-adv-x="598" d="M328 180q0 20 16 36.5t37 16.5q25 0 41 -15t16 -38q0 -25 -16 -41t-41 -16q-23 0 -38 16t-15 41zM592 825.5q0 22.5 16.5 40t39 17.5t38.5 -17.5t16 -40t-16 -39t-38.5 -16.5t-39 16.5t-16.5 39z" />
<glyph unicode=";" horiz-adv-x="856" d="M158 -49l35 51q12 14 32 47q2 6 11.5 21.5t13.5 25.5q2 4 0 6l-10 9q-8 4 -13 16q-10 25 6.5 45.5t40.5 15.5q37 -4 43 -47v-10q-4 -47 -69 -151q-6 -10 -21 -29l-20 -27q-16 -23 -39 -10q-20 14 -10 37zM463 698q0 18 14.5 30.5t32.5 12.5t32.5 -12t14.5 -31 q0 -20 -14.5 -33.5t-32.5 -13.5t-32.5 13.5t-14.5 33.5z" />
<glyph unicode="&#x3c;" d="M2 76v43q0 4 4 4h639v-43q0 -4 -4 -4h-639zM2 608v33q0 14 4 14h324v-39q0 -8 -4 -8h-324zM2 1200v43q0 4 4 4h639v-43q0 -4 -4 -4h-639z" />
<glyph unicode="=" horiz-adv-x="792" d="M57 555q0 14 15 23h522q10 0 16 -7q10 -8 6 -26q-6 -12 -22 -13h-500q-20 0 -22 3q-15 6 -15 20zM141 739.5q0 14.5 15 22.5h524q10 0 16 -6q10 -10 4 -27q-6 -12 -20 -12h-502q-18 0 -22 2q-15 6 -15 20.5z" />
<glyph unicode="&#x3e;" d="M2 76v43q0 4 4 4h639v-43q0 -4 -4 -4h-639zM2 608v33q0 14 4 14h324v-39q0 -8 -4 -8h-324zM2 1200v43q0 4 4 4h639v-43q0 -4 -4 -4h-639z" />
<glyph unicode="?" horiz-adv-x="1003" d="M256 121q0 -16 10 -27.5t27 -11.5q39 0 39 39q0 16 -11.5 26.5t-27.5 10.5q-14 0 -25.5 -11.5t-11.5 -25.5zM381 905q-2 12 8 51q14 39 29 64q43 82 113.5 143.5t154.5 77.5q100 18 172 -24q70 -41 86 -121q25 -125 -74 -273q-51 -76 -118 -137q-29 -27 -84.5 -70 t-71.5 -57q-86 -76 -127 -137q-14 -23 -33 -4q-16 12 -4 33q25 37 57 69q43 47 148.5 132t150.5 139q111 129 113 253q4 74 -45 117q-63 53 -164 35q-80 -16 -146.5 -80.5t-103.5 -148.5q-10 -31 -16 -54q0 -20 -18 -26q-23 -5 -27 18z" />
<glyph unicode="@" horiz-adv-x="1263" d="M37 147q0 31 8 93q4 31 21 92q8 33 32 94q14 39 45 92q12 25 58 92q20 29 69 86q43 47 82 80q53 47 97 76q59 39 112 68q80 39 137 57q63 20 133 31q76 8 125 0q61 -6 111 -27q61 -23 100 -68t52 -100q10 -55 4 -108.5t-23 -110.5q-12 -41 -39 -102q-12 -29 -41 -82 q-4 -6 -16 -27t-19 -29q-4 -10 -28 -43q-47 -70 -88 -112q-49 -57 -80 -80q-33 -29 -72 -47q-33 -14 -63 -15q-27 4 -45 17q-23 16 -29 45q-6 27 -2 61q2 37 12 74q-43 -59 -88 -104q-51 -53 -104 -76q-68 -29 -117 -6q-41 20 -55 73q-10 39 2 99q14 55 45 114q39 63 86 115 q53 53 104 90q49 33 99 53q45 16 81 23q35 6 68 6q25 0 45 -6q6 0 18 -4h3l2 -2l2 -2l6 -6q2 -2 2 -4.5t2 -4.5q0 -2 -2 -6v-2v-4q-2 -2 -2 -4l-2 -4l-6 -12q-8 -14 -25 -48l-51 -104q-35 -86 -43 -109q-18 -49 -31 -98q-10 -55 -6 -76q0 -14 6 -26q12 -18 35 -15 q29 0 61 23q33 20 74 61l84 99l55 80l25 39q25 37 41 71q29 61 39 94q20 53 28 105q10 63 7 104q-4 31 -15 54q-8 25 -28 47q-33 37 -99 63q-49 16 -112 21q-57 2 -127 -11q-63 -12 -135 -39q-57 -25 -132 -65q-70 -45 -102 -72q-45 -33 -90 -78q-27 -27 -76 -84 q-37 -49 -61 -90q-27 -41 -49.5 -90t-36.5 -94q-16 -61 -22.5 -92t-10.5 -92q0 -59 2 -88q8 -51 14 -82q16 -53 29 -80q29 -55 61 -92q39 -39 82 -59.5t101 -26.5q51 -2 110 10q20 4 31 8q23 4 29 2q14 -4 14 -20q-4 -16 -16 -23q-61 -20 -117 -22q-59 -4 -108.5 8t-94.5 41 q-47 29 -80 67q-39 53 -57 99q-16 35 -27 75q-8 31 -16 84q-4 59 -2 88zM369 207q-4 -49 10 -76q14 -23 41 -27q25 -2 53 9q18 8 51 28q41 31 76 74q27 29 72 90q49 76 57 90q10 20 23 39l8 17l4 8l4 4l2 2v2l2 4l2 4q33 72 57 117q-2 2 -8 2q-18 2 -59 -2q-29 -2 -78 -19 q-33 -12 -94 -49q-57 -41 -103 -92q-55 -59 -86 -117q-26 -57 -34 -108z" />
<glyph unicode="A" horiz-adv-x="995" d="M68 469q37 168 153 336q217 319 529 414q98 29 180 30q104 0 155 -22q45 -23 48 -39q0 -18 -13 -25l-73 -176l-146 -344q-70 -158 -84 -194q-47 -113 -67 -183q-20 -67 -21 -107q0 -12 2 -22q4 -23 17 -33q23 -16 57 -8q41 8 106 62q78 68 193 204q8 10 21 9 q18 -3 18 -19q0 -12 -17 -35l-59 -69q-76 -86 -147 -142q-66 -49 -121 -57q-7 -1 -15 -1q-29 0 -53 13q-31 16 -41 52q-7 20 -6 45q0 39 14 92q16 63 66 190q-88 -119 -168 -196q-158 -154 -293 -176q-22 -4 -43 -4q-59 0 -104 30q-59 39 -84 115q-20 57 -20 127 q1 62 16 133zM100 291q8 -72 45 -124t103 -56q5 0 10 -1l92 17q104 39 236 170q115 121 202 258q70 102 91 156l69 161l129 308l-10 4q-10 4 -22.5 7t-14.5 3q-39 8 -90 8q-37 0 -74 -6q-113 -14 -221 -70q-150 -72 -272 -204q-145 -156 -221 -342q-53 -129 -54 -245 q0 -22 2 -44z" />
<glyph unicode="B" horiz-adv-x="960" d="M51 68q0 6 4 18l27 64l149 356l144 346q82 201 96 240q12 30 12 50q0 8 -2 15q-8 27 -49 35q-18 3 -36 3q-71 0 -148 -44q-37 -23 -53 -49q-2 -2 -6.5 -14.5t-10.5 -16.5t-16 -4t-15 8q-6 7 -6 17q0 20 25 51q23 29 61 49q80 45 166 49q94 0 125 -53q9 -16 9 -40 q0 -37 -21 -93q-12 -33 -68 -170q125 190 232 278q103 85 193 85q32 0 63 -11q23 -6 43 -23q59 -43 67 -128q2 -19 2 -36q0 -62 -22 -112q-57 -162 -217 -264q111 -16 159 -111q32 -58 32 -131q0 -35 -7 -74q-29 -166 -170 -254q-111 -68 -250 -67q-25 0 -51 2 q-74 6 -131 29q-55 18 -86 49q-25 28 -25 55q0 8 2 16q8 27 27 37q20 12 31 -10q6 -12 -11 -33q-10 -14 6.5 -30.5t32.5 -24.5q78 -45 185 -45q33 0 69 4q184 18 271 147q43 61 56 138q5 27 5 53q0 49 -16 96q-31 74 -97 98q-39 12 -77 13q-33 0 -47 -6l-45 -19 q-66 -20 -101 -26q-20 -4 -29 10q-8 16 5 26q12 12 43 21q29 12 43 16l45 13q29 4 39 10q166 82 241 225q35 63 41 131q2 18 3 34q0 67 -42 105q-37 33 -85 34q-54 0 -122 -44q-94 -59 -211 -217q-94 -131 -194 -328q-61 -121 -109 -231l-77 -188l-56 -134 q-8 -16 -24.5 -13.5t-20.5 18.5z" />
<glyph unicode="C" horiz-adv-x="735" d="M55 416q14 141 76 282q61 145 158 273q104 131 219 205q66 41 125 57q50 17 93 17q30 0 56 -9q92 -31 101 -147q1 -15 1 -31q0 -129 -96 -232q-10 -12 -31.5 -30.5t-48 -28.5t-34.5 12q-4 12 2 20.5t23.5 15.5t19.5 9q31 25 49 48q45 53 61 131q9 36 9 67q0 35 -11 64 q-26 66 -99 66q-54 0 -134 -36q-117 -51 -227 -176q-104 -121 -172 -264q-70 -143 -91 -285q-5 -45 -5 -85q0 -98 32 -164q31 -63 94 -95q58 -29 144 -29q11 0 22 1q145 8 281 118q70 57 172 175q16 16 33 0q9 -9 8 -18q0 -8 -6 -15l-27 -27q-104 -119 -193 -180 q-135 -98 -290 -98q-178 0 -258 112q-58 85 -58 219q0 28 2 58z" />
<glyph unicode="D" horiz-adv-x="1146" d="M52 105q-1 6 -1 13q0 25 17 46q25 35 63 41q7 1 15 1q24 0 61 -9l49 -15l25 -10q18 -8 20 -4l37 68q51 106 149.5 368t169.5 395q39 78 82 129q28 33 46 33q4 0 8 -2q8 -4 11 -15t-3 -20l-21 -18q-39 -43 -78 -119q-45 -84 -77 -164q-39 -90 -152 -385 q-90 -223 -129 -288q147 -47 262 -48q25 0 47 2q133 8 254 97q135 100 215 276q68 149 68 285q0 53 -10 104q-33 166 -168 258q-107 72 -277 72h-18q-203 -4 -309 -90q-43 -37 -64 -80q-9 -27 -9 -46q0 -10 3 -17q0 -2 6 -10.5t6 -14.5q-4 -23 -24 -23q-18 2 -28 22 q-9 20 -9 46q0 31 14 61q20 45 64 86q102 94 290 109q40 3 79 3q77 0 147 -13q150 -37 239 -142q113 -133 113 -323.5t-109 -380.5q-92 -158 -233 -248q-124 -80 -283 -80q-25 0 -51 2q-82 6 -178 33l-39 12l-18 7q-4 2 -9 -3l-8 -8q-27 -31 -80 -49q-39 -14 -72 -14 q-40 0 -71 20q-27 18 -32 50zM145 82h7q44 0 98 24q16 12 22 21q-90 31 -114 33q-5 1 -11 1l-26 -7q-25 -17 -25 -36q0 -30 49 -36z" />
<glyph unicode="E" horiz-adv-x="806" d="M49 180q-9 36 -9 72q0 52 19 105q33 89 101 157q115 121 305 172q-66 101 -66 221v15q4 201 148 286q64 36 144 36q12 0 24 -1q96 -8 149 -53q33 -29 41 -64q8 -25 -4 -34q-18 -14 -33 2q-4 4 -7 16t-5 16q-6 16 -22 29q-31 25 -74 35q-36 9 -70 9q-49 0 -94 -19 q-78 -29 -119 -117q-33 -67 -33 -147q0 -15 1 -29q7 -96 55 -172q10 -16 16 -17q16 4 25 4q8 2 25.5 4.5t19.5 2.5q51 0 76 -7q79 -16 78 -73q0 -33 -37 -44q-29 -9 -57 -9q-13 0 -28 2q-53 10 -83 36q-18 10 -37 33l-45 -12q-182 -55 -289 -182q-63 -80 -74 -160 q-3 -22 -3 -44q0 -79 48 -138q62 -77 187 -78q27 0 57 4q139 18 274 96q158 90 260 229q10 14 27 8q15 -6 15 -20q0 -8 -17 -33l-23 -26q-47 -55 -98 -98q-111 -94 -231 -148q-132 -58 -253 -58q-25 0 -48 3q-90 10 -150 55q-61 47 -86 135zM551 657q43 -35 98 -36 q4 0 15.5 1t21.5 5q7 3 7 7q0 2 -1 3q-8 16 -39 20q-22 5 -47 5t-55 -5z" />
<glyph unicode="F" horiz-adv-x="737" d="M53 193q0 8 5 14q7 8 18 8q16 0 24 -22q27 -72 109 -107q39 -14 78.5 -14t79.5 14q76 33 114 109q16 33 76 170l80 204q-34 -2 -67 -2t-66 2l-58 6q-37 10 -40 19q-6 12 2 23.5t20 9.5l49 -9q41 -4 121 -4q10 0 28.5 1t26.5 1l21 52l37 98q51 125 71 168q31 72 61.5 125 t57.5 80q-39 6 -167 29.5t-197 27.5q-14 1 -27 1q-82 0 -117 -23q-46 -33 -45 -78v-11q4 -43 43 -59q25 -12 15 -31q-8 -25 -29 -12q-37 14 -58 50q-17 30 -17 64q0 7 1 13q6 61 62 98q51 34 132 34q16 0 33 -1q78 -4 218.5 -29.5t197.5 -31.5q54 -5 101 -5q56 0 102 7 q55 10 98 26l51 21q18 10 31 -10q2 -5 3 -11q0 -12 -14 -21q-19 -13 -36 -16q-37 -16 -80 -24q-80 -18 -166 -19q-16 2 -51 2q-16 6 -22 0q-2 -6 -12.5 -10t-28.5 -28q-29 -33 -70 -115q-63 -133 -147 -356q53 2 104 12l65 14q27 4 27 -22q2 -18 -18 -23q-14 -4 -70 -14 q-49 -10 -100 -13q-25 0 -27 -2q-2 -10 -10 -26l-19 -49q-49 -131 -77 -195q-53 -127 -76 -160q-43 -70 -123 -100q-43 -18 -91 -18q-33 0 -68 9q-85 22 -134 85q-35 49 -35 74z" />
<glyph unicode="G" horiz-adv-x="1406" d="M51 51q0 14 12.5 19.5t24.5 5.5q23 4 64 24q63 37 176 138q104 98 207 217q229 258 370 497q-68 25 -92 82q-16 33 -16 69q0 50 32 105q23 41 62 69q30 21 62 21q10 0 20 -2q45 -10 63 -45q11 -23 11 -52q0 -15 -3 -32q-12 -76 -69 -184q31 -2 92 -2q106 6 199 27 q92 23 143 51q29 14 43 28q2 2 4 7q20 23 37 10q14 -10 4 -60q-39 -197 -137 -419q-139 -315 -336 -461q47 -7 91 -7q83 0 153 25q133 45 248 187q8 10 21 8q18 -3 18 -20q0 -16 -27 -44q-43 -49 -88 -86q-86 -70 -180 -96q-67 -20 -141 -19q-65 0 -136 15q-14 4 -18 0 l-23 -12q-18 -10 -45 -21q-45 -18 -98 -24q-27 -5 -52 -5q-54 0 -100 21q-53 20 -86 59q-31 39 -43 76q-8 22 -8 40q0 13 4 24q9 27 48 27q5 0 11 -1q35 0 78 -14q37 -12 101 -40l88 -38q74 -27 102 -33q16 -8 27 -4l12 11l29 18q49 39 102 98q94 109 166 252 q113 225 168 465q-55 -33 -160 -59q-100 -25 -207 -31q-35 -2 -61 -2t-43 2l-25 4l-4 -6l-4 -8l-16 -27l-78 -121q-102 -147 -193 -256q-121 -143 -211 -235q-119 -119 -198 -178q-98 -72 -156 -80q-5 -1 -10 -1q-29 0 -29 23zM555 264q0 -6 2 -10q4 -33 35 -74 q58 -69 159 -68q41 0 89 11q12 4 65 24q-51 16 -114 43q-150 61 -185 70q-14 6 -35 6q-10 0 -16 -2zM846 1104q-2 -80 82 -111q53 98 67 166q6 23 6 40q0 25 -12 38q-13 16 -33 16q-17 0 -38 -12q-72 -47 -72 -137z" />
<glyph unicode="H" horiz-adv-x="1044" d="M55 100q4 8 4 13l74 176l207 497l106 269q20 49 21 78q0 20 -10 30q-20 20 -66 21h-8q-38 0 -90 -17q-45 -12 -80 -41q-33 -20 -41 -51q-4 -23 -26.5 -16.5t-16.5 28.5q8 33 39 64q63 53 145 70q41 10 75 9q54 0 89 -24q39 -27 39 -72q0 -24 -10 -53q-18 -55 -43 -110 l-152 -373q63 31 146 35q43 4 92 4q33 0 69 -2q17 0 33 -1q150 0 215 36q49 27 72 84l23 51l83 196l41 99l56 129q6 12 18 16q3 1 6 1q9 0 17 -9q4 -5 4 -12.5t-4 -18.5l-17 -39l-43 -96l-37 -88l-139 -330q-47 -106 -94 -239q-37 -102 -51 -154q-13 -54 -13 -86 q0 -14 3 -24q10 -36 49 -37q7 0 16 2q51 10 117 63q66 55 180 187q14 16 31 0q9 -9 8 -18q0 -8 -6 -15l-25 -29l-92 -98q-68 -68 -117 -99q-63 -37 -108 -37q-4 0 -8 1q-61 0 -84 53q-7 20 -7 49q0 33 9 78q12 72 53 176q14 41 78 201q-61 -33 -176 -37h-183 q-195 0 -250 -84q-4 -8 -36 -78l-19 -45l-24 -61l-80 -195l-19 -43q-6 -15 -19 -15q-5 0 -11 3q-15 6 -16 17q0 5 3 11z" />
<glyph unicode="I" horiz-adv-x="665" d="M-59 307q16 20 34 10q18 -14 7 -32q-18 -29 -18 -62q0 -9 1 -18q6 -43 37 -74q39 -39 96 -46q18 -2 36 -2q38 0 73 10q51 15 100 46q39 25 82 62l23 20q6 6 6 10v5q-2 4 -2 6q-2 14 -2 45q-1 15 -1 31q0 49 5 108q14 141 57 301q41 160 103 285q66 135 135 188 q35 29 75 35q9 1 17 1q27 0 48 -15q28 -20 38 -58q7 -27 7 -62q0 -67 -26 -165q-37 -135 -114 -293q-80 -164 -178 -297q-49 -63 -107 -125q-8 -8 -6 -12q0 -2 1 -5t1 -5q4 -16 4 -23q8 -25 14 -37q16 -33 39 -41l15 -4q12 -2 16 -8q14 -18 -4 -33q-14 -12 -51 4 q-55 29 -76 117q-153 -140 -292 -140q-8 0 -15 1q-80 4 -142 57q-59 52 -59 126q0 50 23 89zM461 272q127 137 233 344q82 162 123 299q20 70 29 125q6 37 6 66q0 41 -12 63q-11 22 -35 23q-18 0 -43 -12q-35 -20 -66 -62q-61 -80 -121 -231q-55 -143 -88 -309 q-28 -138 -28 -253q0 -27 2 -53z" />
<glyph unicode="J" horiz-adv-x="804" d="M68 -414q-15 32 -15 68q0 38 17 82q29 72 106 149q86 78 164 129q74 47 156 88l73 33q37 14 39 21l19 45q117 283 155 385q86 225 119 340q16 55 16 98q0 41 -14 72q-35 68 -110 88q-41 12 -81 12q-95 0 -182 -70q-117 -90 -141 -272q-8 -49 -7 -102q0 -92 21 -199 q45 -203 146 -373q6 -10 4 -22q-2 -14 -18.5 -16.5t-24.5 12.5l-21 36q-45 84 -83 189q-73 200 -73 367q0 121 38 225q63 170 200 233q77 37 151 37q57 0 112 -22q78 -35 110 -105q20 -42 20 -94q0 -46 -16 -98q-37 -127 -121 -349l-159 -393q164 78 235 172q12 14 27 10 q20 -4 16 -26q-2 -10 -22 -31q-6 -8 -25 -26q-49 -49 -111 -86q-14 -10 -41.5 -24.5t-33.5 -18.5l-43 -19q-25 -10 -29 -18l-66 -154q-80 -193 -149 -289q-102 -141 -225 -151q-9 -1 -19 -1q-81 0 -114 68zM117 -408q25 -30 65 -30q38 0 90 28q88 47 160 177q59 102 150 323 q-123 -57 -181 -92q-92 -57 -163 -119q-88 -80 -119 -149q-21 -45 -21 -80q0 -34 19 -58z" />
<glyph unicode="K" horiz-adv-x="911" d="M52 69q0 12 14 40l77 188l195 467l117 283q29 73 29 98q0 3 -1 6q-8 44 -78 44q-24 0 -57 -5q-115 -27 -151 -84q-2 -4 -5.5 -14.5t-7.5 -14.5q-14 -18 -32 -6q-10 8 -11 20q0 18 21 46q43 55 133 86q58 20 105 19q36 0 67 -11q63 -23 63 -83q0 -8 -2 -18 q-2 -20 -39 -120l-147 -355q82 27 182 84q82 49 197 131q121 90 229 187q100 88 142 141q16 23 36 2q4 -6 4 -13q0 -9 -6 -20l-30 -34q-49 -51 -92 -91q-127 -115 -250 -204q-162 -119 -283 -179q113 -25 141 -157q8 -35 21 -105q14 -88 31 -159q10 -45 22 -70 q12 -33 27 -43q11 -10 28 -10q29 0 74 28q53 37 115 111q16 16 42.5 49t33.5 39q20 27 30 29q18 2 24.5 -13.5t-5.5 -27.5q-37 -47 -90.5 -108.5t-100.5 -98.5q-65 -54 -119 -54q-7 0 -14 1q-51 8 -82 65q-23 45 -43 148l-24 135q-14 80 -21 96q-29 88 -108 102q-12 2 -26 2 q-30 0 -65 -10l-38 -16q-8 -2 -13 -12l-10 -25l-61 -145l-138 -330l-6 -17q-6 -14 -21 -14q-23 1 -23 20z" />
<glyph unicode="L" horiz-adv-x="1110" d="M68 266q39 76 133 92q31 5 60 6q58 0 106 -22q43 -12 94 -41l47 -27q4 -2 6 5l6 8l12 20q41 68 91 174q33 76 88 221.5l69 180.5q-87 -14 -165.5 -14.5t-149.5 14.5q-90 18 -148 57q-37 27 -51 59q-16 39 -2 56q16 18 35 0q4 -6 5 -19.5t3 -17.5q12 -29 55 -51 q49 -27 146 -43q53 -8 111 -9q42 0 88 5l55 6l26 4q2 0 6.5 1t6.5 1l6 12q18 47 43 92q94 197 219 240q35 12 63 12q40 0 68 -24q33 -27 33 -72q0 -22 -8 -49q-43 -133 -262 -215q-51 -18 -101 -31l-28 -6l-9 -25q-8 -14 -20 -47l-78 -205q-102 -254 -178 -366 q98 -61 149 -90q102 -55 187 -56q84 2 151 62q45 35 131 139l52 59q14 16 30 4q10 -8 10 -18q0 -6 -4 -12t-11 -14.5t-9 -10.5l-76 -90q-74 -82 -119 -112q-70 -49 -149 -52h-10q-57 0 -118 21q-67 23 -119 57.5t-112 69.5q-10 6 -12 4l-8 -10l-14 -19l-33 -35 q-33 -33 -70 -57q-85 -51 -173 -51h-7q-90 0 -135 65q-30 43 -30 90q0 36 18 74zM102 229q-5 -18 -5 -34q0 -23 9 -45q16 -39 54 -56q28 -12 62 -12q49 0 110 27q74 29 151 127q-41 25 -80 43q-85 39 -154 39q-17 0 -34 -3q-88 -14 -113 -86zM856 944q109 29 180 68 q82 43 123 100q27 43 28 74q0 18 -9 33q-14 25 -46 24.5t-81 -24.5q-51 -27 -105 -103q-41 -63 -90 -172z" />
<glyph unicode="M" horiz-adv-x="1380" d="M51 70q0 4 6 17t6 15l136 324l254 612q31 75 30 100q0 52 -77 52q-22 0 -50 -4q-113 -20 -155 -80l-9.5 -19.5t-15.5 -21.5t-20 0q-15 6 -16 20q0 16 20 43q37 55 129 89q59 20 108 20q35 0 64 -10q70 -23 70 -87q0 -30 -23 -85l-35 -88q39 57 86 110q143 163 271 163 q12 0 24 -1q49 -6 76.5 -38t33.5 -79q3 -29 3 -56q0 -16 -1 -32q-3 -41 -14 -86q143 211 293 271q51 23 93 22q33 0 61 -14q45 -25 55 -90q3 -16 3 -36q0 -53 -21 -128q-27 -86 -76 -195l-152 -358q-41 -102 -57 -156q-25 -70 -25 -112q0 -23 7 -31q16 -22 43 -22q8 0 16 1 q47 10 121 76q45 43 123 129l37 41q31 31 45 16l6 -8q1 -2 1 -5q0 -13 -22 -38q-39 -45 -41 -47q-86 -94 -135 -135q-74 -66 -133 -76q-7 -1 -14 -1q-25 0 -48 11q-30 14 -42 43q-9 21 -10 47q0 15 3 31q6 41 31 119q45 127 143 350q70 162 84 201q49 113 64 190q5 33 5 59 q0 44 -15 66q-19 26 -56 27q-33 0 -79 -20q-106 -43 -222 -187q-76 -96 -143 -223q-25 -45 -47 -95l-51 -118l-41 -96q-72 -182 -160 -383l-14 -35q-11 -21 -23 -21h-2q-27 0 -22 27l12 31l71 168l168 399q33 70 73 169t54 175q11 47 11 86q0 35 -9 62q-10 37 -36 49 q-18 11 -42 11q-12 0 -26 -3q-100 -14 -223 -154q-104 -123 -203 -309q-53 -102 -207 -475q-49 -119 -76 -178l-6 -17q-4 -12 -17 -15t-24 9q-4 13 -4 17z" />
<glyph unicode="N" horiz-adv-x="876" d="M56 84q3 6 6.5 14t5.5 13l36 86l80 192l252 606q43 113 45 117q4 14 4 25q0 26 -20 41q-25 14 -74 14q-106 -8 -174 -66q-16 -16 -22 -26q-10 -27 -13 -29q-18 -18 -35 2q-8 10 0 33q27 66 117 100q68 32 131 33q21 0 41 -4q80 -12 92 -76q3 -11 3 -22q0 -27 -13 -60 l-33 -82q82 115 174 181q43 31 94 52q42 18 89 18q9 0 18 -1q57 -4 82 -55q16 -33 16 -80q0 -24 -4 -51q-10 -72 -55 -197q-14 -39 -164 -393q-25 -55 -69 -170q-31 -94 -35 -133q-4 -20 4 -37q14 -27 55 -18q47 6 115 65q51 43 184 191q14 16 32 1q10 -8 9 -18q0 -7 -6 -14 l-27 -29l-100 -110q-78 -74 -123 -101q-56 -33 -98 -33q-15 0 -29 5q-55 16 -61 67q-1 8 -1 18q0 32 11 76q16 61 47 138q16 45 78 184q129 301 162 403q29 96 29 156q0 7 -1 14q-8 74 -63 76h-5q-62 0 -138 -49q-55 -35 -111 -98q-92 -96 -168 -234q-37 -57 -49 -90 l-84 -199l-78 -188l-84 -201l-29 -69l-6 -13q-7 -13 -19 -13q-3 0 -7 1q-17 4 -17 21q0 9 3 16z" />
<glyph unicode="O" horiz-adv-x="774" d="M63 516q33 193 136 389q80 152 182 244q136 126 271 126l28 -1q35 0 45 -14q12 -25 -10 -35q-6 -2 -21 2q-4 0 -9 1t-7 1q-10 1 -21 1q-45 0 -98 -22q-209 -80 -348 -383q-92 -203 -109 -368q-6 -45 -5 -86q0 -91 28 -162q16 -41 45 -74q48 -54 122 -54q8 0 15 1 q133 10 258 151q98 104 176 277q70 150 105 311q-13 -2 -25 -1q-84 0 -141 73q-36 49 -36 112q0 33 9 70q27 98 95 135q27 14 51 14q29 0 55 -20q39 -29 55 -108q6 -35 7 -79q0 -56 -11 -126q76 39 125 115q18 25 29 57q2 6 2 18q4 33 20 35q20 2 26 -20q2 -10 2 -20 q0 -11 -3 -19q-8 -31 -29 -68q-45 -68 -116 -121q-25 -16 -39 -22l-19 -8q-6 -4 -8 -13l-18 -73q-37 -152 -113 -308q-84 -162 -184 -264q-129 -129 -265 -143q-10 -1 -19 -1q-81 0 -136 46q-45 39 -78 108q-30 79 -30 185q-1 65 11 141zM705 1083q-15 -41 -16 -76 q0 -46 26 -81q39 -58 102 -59q19 0 39 5q14 80 14 145q0 22 -2 42q-10 100 -53 117q-11 4 -21 4q-23 0 -44 -23q-31 -33 -45 -74z" />
<glyph unicode="P" horiz-adv-x="671" d="M55 66q-3 4 -2 9q0 7 4 15l25 60l145 352l146 346q59 139 98 244q16 41 14 61q-6 33 -43 41q-24 7 -49 7q-62 0 -133 -40q-43 -23 -59 -49q-4 -4 -8.5 -14.5t-6.5 -14.5q-12 -20 -30 -8q-11 6 -11 20q0 17 17 46q20 25 57 51q74 47 164 53h15q86 0 118 -45q13 -19 13 -49 q0 -35 -17 -84l-68 -166q115 176 222 268q98 87 177 88q42 0 79 -24q58 -41 58 -133q0 -47 -15 -109q-39 -170 -164 -325q-121 -156 -273 -215q-57 -27 -116 -29q-13 -2 -26 -2q-42 0 -71 22q-14 10 -21 30t5 36q16 16 35 -2q2 -4 3 -11.5t3 -11.5q11 -18 45 -18q16 0 37 4 q125 16 250 127q150 131 219 317q31 78 39 146q2 18 1 34q0 64 -26 93q-23 26 -57 26q-33 0 -78 -24q-43 -25 -92 -70q-96 -90 -191 -237q-90 -133 -165 -287q-31 -66 -89 -201l-77 -184l-58 -141q-6 -12 -20 -15h-4q-12 0 -19 13z" />
<glyph unicode="Q" horiz-adv-x="864" d="M60 146q17 28 49 42q42 19 98 20q28 0 59 -5l53 -13l23 -6l23 -8q14 -4 20 0q61 41 109 80q270 231 356 553q25 95 25 169q0 110 -54 177q-53 61 -131 72q-12 1 -24 1l-148 -44q-127 -74 -213 -230q-68 -127 -90 -270q-9 -57 -9 -103q0 -59 15 -100q16 -37 37 -35 q18 4 27 -12q6 -20 -13 -31q-16 -8 -47 5q-29 12 -47 53q-18 46 -18 114q0 39 6 87q14 137 76 268q72 150 178 241q127 103 242 104q44 0 88 -15q76 -27 119.5 -95.5t50.5 -152.5q1 -14 1 -30q0 -68 -22 -167q-18 -82 -59 -176q-135 -301 -406 -483q129 -43 189 -43 q74 0 137 32q49 27 98 80q49 51 111 131q10 12 25.5 7t15.5 -21q0 -12 -17 -29l-22 -28q-86 -98 -88 -101q-88 -88 -181 -108q-35 -8 -74 -8q-59 0 -126 18l-86 27l-21 6l-12 4l-10 -6q-8 -6 -47 -25q-86 -43 -154 -43h-6q-80 0 -105 41q-9 15 -9 29t8 27zM100 115 q14 -20 74 -21q55 0 150 47q-68 20 -121 20q-33 0 -60 -7q-45 -18 -45 -33q0 -3 2 -6z" />
<glyph unicode="R" horiz-adv-x="1019" d="M51 76q0 4 6 16l138 332l43 104q14 29 22 54l19 43q8 14 22 53l21 51q94 221 137 334q23 54 23 85q0 21 -11 32q-18 16 -70 20q-39 0 -98 -18q-53 -20 -78 -43q-25 -18 -39 -52q-6 -25 -32 -12q-16 8 -9 31q8 33 41 61q51 47 146 70q39 9 71 9q54 0 91 -25q37 -28 37 -75 q0 -25 -11 -54l-61 -154q100 152 178 219q100 90 197 91q6 0 12 -1q78 -4 117 -69q27 -47 30 -113q0 -9 1 -17q0 -137 -93 -272q-102 -152 -283 -223q-101 -41 -191 -41q-35 0 -69 6q31 -141 136 -260q98 -109 206 -139q39 -11 77 -11q107 0 204 87q25 23 48 49l54 64l43 52 q10 12 26 7q14 -5 14 -19q0 -10 -15 -29q-102 -129 -160 -176q-102 -81 -215 -81q-38 0 -78 10q-143 33 -262 184q-53 70 -92 152q-20 51 -27 84q-8 29 -10 43q-4 23 4 30q8 10 39 2q18 -6 39 -6q13 -1 29 -1q38 0 86 7q174 35 297 158q125 125 143 287q3 20 3 39 q0 51 -20 96q-25 56 -87 56q-6 0 -13 -1q-100 -8 -200 -121q-80 -84 -183 -254l-100 -178q-29 -53 -92 -207q-45 -111 -57 -137l-80 -194l-19 -43q-5 -14 -20 -14h-5q-20 4 -20 22z" />
<glyph unicode="S" horiz-adv-x="942" d="M54 60q-3 6 -3 13t4 13l27 39l203 309l194 299l60 88l28 45q2 4 -4 25q-4 10 -8 27q-11 42 -11 81q0 65 29 123q39 82 101 127q41 30 78 31q13 0 26 -4q45 -14 49 -59q1 -7 1 -15q0 -34 -23 -72q-8 -14 -26.5 -38.5t-22.5 -32.5l-56 -78l-59 -88l-18 -27l6 -22l20 -43 q20 -41 109 -193q25 -41 41 -72.5t33.5 -76.5t24.5 -82q5 -26 5 -55q0 -13 -1 -26q-3 -44 -17 -83q127 45 207 149q18 23 34 3q6 -6 6 -15q0 -12 -14 -28q-55 -72 -139 -119q-25 -14 -78 -35l-41 -12q-2 0 -24 -29q-82 -96 -244 -125q-39 -6 -72 -6q-27 0 -51 4 q-84 14 -84 70q0 70 94 86q16 4 185 14q53 2 106 12l31 6q23 6 24 9q8 14 21 47q11 33 11 71q0 53 -21 115q-27 76 -104 204t-101 183l-168 -256l-238 -364l-88 -134q-6 -14 -20 -14q-15 -2 -22 11zM394 83q-4 -5 -3 -10q0 -8 8 -16q23 -14 66 -14h13q34 0 77 8 q121 27 186 86q-59 -10 -233 -18q-61 -4 -88 -17q-17 -6 -26 -19zM590 997q0 -43 12 -79q4 8 16 24q74 111 113 164q41 57 47 72q4 16 4 26q0 27 -24 29h-6q-41 0 -90 -57q-72 -87 -72 -179z" />
<glyph unicode="T" horiz-adv-x="491" d="M53 1096q6 53 56 92q51 41 155 45q16 1 32 0q48 0 97 -4q66 -6 157 -22.5t128 -20.5q81 -13 139 -13q8 0 17 1q104 8 161 40q18 10 31 -7q5 -7 5 -14q0 -9 -9 -17q-16 -12 -74 -31q-63 -17 -139 -17h-31q-8 0 -61 7q-4 0 -13.5 1t-15.5 1q-8 2 -12 -2l-12 -19 q-10 -16 -70 -153q-10 -29 -59 -146l-138 -330l-110 -262l-58 -135q-6 -14 -20 -15h-2q-13 0 -19 11q-6 10 0 27l25 55l129 307l135 326l47 112l47 111q35 88 58 123l-205 31q-72 11 -127 11q-28 0 -51 -3q-88 -4 -127 -51q-23 -27 -23 -52q0 -23 19 -45q12 -14 30 -24 q27 -8 31 -21q4 -25 -20 -28q-12 -2 -37 12q-67 31 -67 99q0 10 1 20z" />
<glyph unicode="U" horiz-adv-x="1044" d="M59 1106q25 59 131 100q77 30 145 30q12 0 23 -1q90 -4 111 -59q5 -13 5 -30q0 -22 -9 -48q-4 -16 -23 -72q-12 -37 -151 -362q-94 -225 -129 -345q-20 -74 -27 -133q-1 -11 -1 -20q0 -60 34 -72q14 -4 29 -4q29 0 65 14q35 12 111 66q113 90 223 236q68 86 182 274 q109 176 183 309l67 129l23 51q8 20 20 23q23 4 27 -18q0 -6 -13 -39l-28 -64q-33 -76 -39 -92l-86 -199l-158 -372q-47 -125 -57 -160q-15 -48 -15 -85q0 -15 3 -28q6 -35 34 -43q25 -8 51 -8q13 0 27 2q66 10 146 78q57 47 192 201q8 8 20.5 6t16.5 -13q2 -5 2 -9 q0 -10 -8 -19l-37 -41l-53 -61q-29 -32 -55.5 -58.5t-60.5 -52t-67 -43.5q-65 -36 -127 -36q-12 0 -24 1q-47 8 -74 31q-23 23 -29 53q-3 16 -3 34q0 32 10 70q10 47 43 142q18 47 163 376q-133 -219 -161 -262q-76 -109 -144 -188q-115 -129 -209 -193q-90 -59 -159 -58 q-25 0 -47 7q-62 22 -62 117q0 52 19 127q29 115 135 373q150 356 159 385l12 38l9 31q10 41 -14 54q-27 14 -62 14q-37 0 -84 -10q-45 -10 -86 -29q-49 -23 -69 -51q-10 -10 -11 -25q0 -23 -22 -22q-14 0 -20 10q-4 7 -3 15q-1 11 6 28z" />
<glyph unicode="V" horiz-adv-x="731" d="M55 1044q-4 6 -4 14.5t4 18.5q8 31 41 56q47 41 123 65q61 20 113 20q27 0 51 -6q68 -18 82 -75q3 -12 3 -27q0 -48 -34 -129q-18 -45 -145 -326q-82 -188 -119 -282q-20 -53 -45 -131q-18 -70 -21 -99q0 -43 15 -51q16 -12 53 2q29 10 86 45q47 31 111 82 q131 104 262 250q150 164 252 328q92 147 139 278q18 53 27 88q6 33 2 45q-14 25 -4 35q6 7 13 7q9 0 21 -11q12 -12 17 -29v-24q0 -23 -19 -82q-39 -125 -129 -285q-88 -154 -213 -297q-82 -100 -211 -225q-121 -115 -225 -186q-49 -33 -98 -54q-41 -17 -71 -16h-7 q-64 6 -64 86q0 79 60 246q45 121 151 354l90 199l35 84q23 59 25 82q1 6 0 10q0 37 -25 54q-22 15 -53 15q-10 0 -21 -2q-46 -6 -87 -18t-68 -27q-41 -25 -59 -47q-6 -6 -11 -18q-4 -23 -10 -27q-25 -13 -33 10z" />
<glyph unicode="W" horiz-adv-x="1284" d="M51 1092q0 12 12 28q16 25 48 45q55 45 133 64q41 11 78 11q30 0 57 -7q45 -10 67 -51q13 -22 13 -53q0 -38 -19 -89q-6 -18 -129 -321q-72 -174 -112 -287q-59 -168 -72 -248q-1 -16 -1 -29q0 -25 5 -36q10 -20 36 -20q22 0 54 14q41 18 111 71q45 37 127 119 q119 123 243 287l35 43l17 22q4 6 14 35q39 106 80 201q43 100 82 168q41 78 74 112q25 37 55 37q20 0 34 -14q16 -17 15 -44q0 -36 -27 -93q-47 -102 -192 -299l-66 -88q-2 -2 -20 -27q-2 -4 -5 -12l-5 -13l-17 -49q-39 -119 -57 -204q-23 -102 -23 -170q0 -45 9 -66 q8 -23 36 -23q41 0 99 33q51 31 123 82q117 92 243 230q39 43 119 155q53 74 111 164q113 176 153 281q23 55 25 94q0 18 -4 29l-8 10q-16 14 -3 33q16 12 31 0.5t21 -29.5q7 -16 7 -38q0 -9 -1 -17q-6 -63 -49 -156q-76 -166 -258 -414l-56 -76l-37 -47q-2 -2 -77 -84 q-92 -92 -172 -155q-111 -92 -197 -125q-40 -15 -75 -15h-9q-66 8 -74 91q-2 17 -2 38q0 53 15 134q16 90 51 206q-82 -102 -150 -178q-113 -127 -209 -205q-66 -49 -102 -69q-47 -24 -86 -24q-10 0 -20 1q-69 12 -69 102q0 20 3 44q12 84 82 274q47 129 153 387l74 180 q6 20 14.5 41t8.5 45.5t-15 40.5q-23 25 -70 25h-14q-68 0 -139 -39q-37 -18 -57 -39q-8 -8 -21 -24q-14 -18 -22 -21q-10 -2 -18.5 4.5t-8.5 16.5zM860 799q90 123 146 213q31 49 45 86q12 36 11 51q0 9 -3 12q-16 -6 -35 -35q-33 -53 -47 -79q-62 -113 -117 -248z" />
<glyph unicode="X" horiz-adv-x="1001" d="M53 71q0 13 15 23q39 25 92 74q90 86 250 270l141 170q2 2 39 45q4 6 0 25q0 4 -1 13t-1 14q-2 35 -10 104q-10 111 -27 195q-14 88 -41 141q-18 37 -43 49q-12 7 -29 7q-19 0 -43 -9q-66 -25 -129 -98q-27 -35 -41 -62q-14 -37 -12 -51q6 -23 4 -27q-8 -23 -31 -14 q-25 10 -18 55q6 63 68 133q59 74 139 107q35 13 64 13q49 0 81 -38q37 -41 58 -118q31 -113 57 -385l252 305q133 156 184 202q14 14 33 27q8 8 16 8l8 -2q23 -8 15 -28q-2 -4 -33 -29l-37 -37q-82 -84 -233 -268l-142 -172q-37 -43 -39 -45q0 -2 -16 -23q-2 -2 -2 -22 l10 -101q10 -98 25 -188q14 -94 37 -150q25 -61 57 -75q18 -8 38 -8q47 0 103 44q45 35 144 152l55 65q12 16 30 6q12 -8 12 -19q0 -5 -3 -11q-6 -10 -23 -27l-71 -88q-74 -82 -119 -117q-72 -51 -127 -51q-66 0 -102 47q-31 39 -54 117q-29 109 -55 373 q-162 -195 -242 -283q-152 -168 -231 -231q-31 -25 -43 -29q-3 -1 -6 0q-7 0 -14 3q-9 6 -9 19z" />
<glyph unicode="Y" horiz-adv-x="864" d="M55 -440q-4 14 -3 28q0 57 57 127q41 51 129 101q23 14 184 100l98 51q12 6 17 17l12 18l47 80q61 104 149 295l160 364q-135 -223 -243 -358q-100 -125 -179 -197q-109 -102 -196 -125q-26 -8 -51 -7q-21 0 -41 5q-61 18 -72 91q-1 10 -1 21q0 39 11 91q18 76 57 170 l73 176l87 213l68 180q25 68 43 132q12 37 -15 53q-16 10 -57 14h-8q-78 0 -164 -39q-45 -18 -70 -49q-12 -12 -12 -25q0 -23 -20.5 -24.5t-24.5 18t4 33.5q12 27 47 57q68 51 168 68q39 9 73 9q46 0 81 -17q31 -18 41 -43q6 -13 6 -31.5t-6 -42.5q-31 -111 -111 -307 l-123 -301q-74 -178 -92 -258q-10 -41 -10 -74q0 -41 16 -57q19 -18 50 -18q23 0 53 10q49 16 114 67q53 41 125 117q115 123 244 319q119 182 207 346q49 86 76 146q10 18 26 59q4 12 14.5 28.5t26.5 10.5q14 -5 14 -19q0 -11 -8 -28l-20 -49l-21 -47l-202 -488 q-147 -340 -271 -551l13 7q121 78 268 241l49 58l21 24q20 18 24 21q27 4 27 -23q0 -8 -15 -26q-20 -27 -45 -52q-139 -160 -256 -247q-25 -18 -77 -52l-52 -28l-12 -19l-12 -20q-59 -102 -107 -172q-68 -98 -119 -152q-74 -80 -145 -90q-8 -1 -15 -1q-32 0 -60 14 q-34 18 -44 57zM106 -377q-8 -21 -7 -37q0 -22 14 -37q24 -14 48 -14l21 3q35 9 66 36q63 57 125 143q51 74 114 181l-190 -101q-102 -57 -141 -100q-36 -35 -50 -74z" />
<glyph unicode="Z" horiz-adv-x="876" d="M68 -379q29 68 110 133q61 53 176 123l91 52l87 48l50 29l10 6q6 4 6 13l6 24q5 23 5 46q0 27 -7 52q-8 43 -39 82q-18 20 -35 33q-8 8 -20 14q-6 4 -10 3l-11 -7q-109 -49 -202 -57q-20 -2 -37 -2q-85 0 -101 51q-3 9 -2 17q0 24 22 43q30 25 69 34q49 13 100 14 q43 0 88 -10q33 -8 47 -14l21 -8l10 -6l10 6q49 29 74 47q154 109 248 264q49 76 79 164q30 82 30 151q0 22 -3 42q-12 90 -86 137q-61 40 -145 39h-23q-168 -10 -280 -111q-47 -47 -64 -82q-12 -20 -14 -35l-6 -36q-14 -20 -35 -7q-8 8 -8 25q0 18 6 37q10 39 45 84 q80 102 223 147q85 27 156 27q105 0 182 -57q99 -75 99 -209q0 -45 -11 -97q-41 -170 -166 -329q-111 -145 -266 -234q66 -49 88 -112q17 -45 17 -99q0 -22 -3 -47q96 66 178 141l95 99l47 55q27 39 47 23q8 -7 8 -16q0 -7 -5 -16q-11 -19 -24 -30l-49 -57q-41 -47 -96 -98 q-57 -53 -129 -107q-41 -29 -62 -41l-16 -12l-8 -4q0 -2 -1 -6.5t-1 -6.5q-4 -16 -17 -45q-70 -166 -186 -274q-59 -55 -135 -103q-98 -55 -154 -59q-47 0 -69 23q-20 20 -20 48q1 25 16 58zM115 -391q-17 -29 -17.5 -46t17.5 -22q8 -2 17 -1q14 0 32 3q29 6 82 35 q111 59 196 154q80 92 131 217l-84 -49l-94 -54q-109 -61 -176 -118q-77 -62 -104 -119zM195 274q13 -16 50 -15q11 0 25 1q80 6 176 47q-55 18 -106 18q-14 0 -29 -1q-47 0 -90 -19q-28 -18 -28 -27q0 -2 2 -4z" />
<glyph unicode="[" horiz-adv-x="727" d="M-4 -455q0 8 4 17l4 14q4 8 8 21l13 26l14 37l18 41l19 49q4 8 11 27.5t11 25.5l25 58l24 61l27 66l29 69l30 72q20 49 29 74l31 73l33 76l61 152l62 147l57 140q20 51 26 63l25 61l25 58l20 51l19 47l16 39l14 35l13 26l6 19q4 8 4 10q2 0 2 2q8 14 20 15h117 q51 0 76 -3h35q14 0 20 -10q6 -14 -2 -26q-8 -8 -18 -9h-211l-2 -2q0 -2 -2 -4l-7 -16l-10 -25q-10 -27 -14 -32q-2 -8 -16 -41l-19 -48q-4 -10 -12 -28.5t-10 -24.5l-25 -57l-25 -64l-28 -67l-29 -70l-31 -74l-61 -151l-66 -156l-30 -78l-18 -41q-11 -27 -15 -34l-31 -76 l-29 -72l-28 -67l-27 -66l-24 -59q-16 -37 -23 -56q-8 -16 -20 -49l-19 -43l-14 -37l-12 -28q-4 -12 -9 -19q0 -6 -4 -10h49q16 0 47 -1t48 -1h57q14 -6 14 -23q0 -14 -12 -20q-6 -2 -16 -2h-222q-18 0 -22 18z" />
<glyph unicode="\" d="M2 76v43q0 4 4 4h639v-43q0 -4 -4 -4h-639zM2 608v33q0 14 4 14h324v-39q0 -8 -4 -8h-324zM2 1200v43q0 4 4 4h639v-43q0 -4 -4 -4h-639z" />
<glyph unicode="]" horiz-adv-x="792" d="M-125 -436q6 8 19 8h212v2q0 4 3 4l6 16l10 25q6 20 14 33q6 18 17 41l18 47l23 53l24 57l25 64l28 68l29 69l31 74l31 76l32 78l31 77l33 78l31 76l32 78l31 74l29 71l28 68l27 65l25 62q16 37 22 55q8 16 21 49l18 43l14 35l13 29q0 2 3 9t5 11q2 2 2 4q2 4 2 6h-195 q-12 0 -20 15q-4 16 6 26q12 4 16 4h228q12 0 18 -10l4 -8q0 -10 -4 -16q0 -4 -4 -13q-2 -4 -5 -11t-3 -9l-12 -29l-15 -35q-12 -29 -16 -43l-21 -47l-22 -53l-23 -57q-6 -12 -26 -64l-27 -65q-20 -45 -29 -70l-30 -70q-8 -25 -29 -73l-31 -76l-32 -76l-31 -74l-62 -151 l-30 -72q-4 -14 -29 -72q-8 -23 -29 -67l-26 -66l-25 -61q-16 -37 -22 -55l-23 -54l-18 -45q-14 -33 -17 -41l-14 -32q-10 -25 -10 -27q-4 -6 -9 -18q-4 -8 -4 -11l-2 -2q-2 -14 -20 -14h-227q-12 0 -19 10q-10 13 0 27z" />
<glyph unicode="^" d="M2 76v43q0 4 4 4h639v-43q0 -4 -4 -4h-639zM2 608v33q0 14 4 14h324v-39q0 -8 -4 -8h-324zM2 1200v43q0 4 4 4h639v-43q0 -4 -4 -4h-639z" />
<glyph unicode="_" horiz-adv-x="776" d="M-16 -8v45q0 2 2 2h792v-47h-794z" />
<glyph unicode="`" horiz-adv-x="337" d="M84 1174q-4 14 10 24q12 6 27 -2l39 -31l61 -49q4 -2 11.5 -8t9.5 -6l4 -4q8 -6 8 -19q0 -16 -14.5 -20t-22.5 4l-12 8q-37 29 -55 45q-10 8 -30 22.5t-22 16.5l-6 4q-6 7 -8 15z" />
<glyph unicode="a" horiz-adv-x="663" d="M51 193q2 66 47 147q41 84 127 162q68 63 140 98q84 41 165 41q20 0 39 -2q25 -4 37 -8q14 -4 15.5 -19.5t-7 -30t-12.5 -24.5q-29 -66 -80 -160q-8 -16 -28 -49q-18 -37 -23 -49q-20 -61 -27 -94q-3 -21 -3 -39q0 -26 8 -41q12 -27 49 -19q25 4 57 29q39 31 63 60 q41 41 152 170q12 12 27.5 3.5t11.5 -24.5q0 -2 -14 -22q-41 -45 -60 -68q-102 -115 -145 -150q-55 -46 -102 -46q-21 0 -42 10q-51 22 -51 97q0 21 4 46q-72 -90 -141 -127q-49 -24 -90 -24q-37 0 -66 20q-51 35 -51 113zM102 158q8 -35 33 -45q12 -5 28 -5q19 0 44 7 q53 14 115 75q45 45 102 134q10 12 22 41l19 38q10 27 35 76q33 63 63 113q-16 2 -32 2q-72 0 -150 -37q-70 -35 -139 -104q-82 -78 -119 -164q-24 -57 -24 -100q0 -16 3 -31z" />
<glyph unicode="b" horiz-adv-x="653" d="M109 345q-2 5 -3 10q0 9 9 16l30 37l62 73l35 37q4 8 16 21q6 16 8 20q33 90 74 186q86 205 147 318q59 111 109 151q33 29 69 29h5q49 -6 65 -51q6 -14 6 -33q0 -15 -4 -35q-12 -59 -61 -135q-37 -66 -113 -160q-39 -49 -188 -223q-4 -4 -66 -78q-14 -18 -16 -26l-8 -25 q-4 -8 -10 -24l-7 -23q-33 -100 -41 -160q-5 -34 -5 -61q0 -50 18 -76q23 -29 61.5 -29t71.5 21q66 35 125 133q-59 45 -68 141q-1 13 -1 26q0 73 30 134q20 35 54 56q19 12 38 13q14 0 29 -7q49 -26 48 -115q0 -16 -1 -33q-8 -86 -68 -199q24 -9 47 -9l47 9q49 25 107 91 q8 10 23 6q18 -5 18 -20q0 -13 -33 -46q-47 -47 -90 -69q-35 -17 -69 -17l-25 2q-14 0 -29 6l-12 4q-6 2 -11 -4l-36 -51q-61 -80 -131 -106q-33 -12 -62 -13q-47 0 -84 33q-43 37 -43 114q0 18 2 38q4 74 39 178l-51 -60q-23 -27 -33 -28q-18 -2 -24 13zM348 645l74 84 q106 125 166 211q49 70 74 117q33 57 32 94q1 6 1 11q0 15 -9 24q-12 12 -24 12q-7 0 -15 -4q-12 -4 -33 -25q-37 -37 -75 -110q-63 -111 -162 -344zM475 440v-14q0 -85 45 -129q53 109 62 186q0 55 -11 80q-8 16 -21 16q-8 0 -18 -6q-23 -12 -38 -49q-15 -39 -19 -84z" />
<glyph unicode="c" horiz-adv-x="485" d="M72 227q10 145 143 293q80 84 135 94q9 1 17 2q56 0 77 -61q4 -12 7.5 -26.5t-3 -25.5t-22.5 -9q-16 4 -20 32q-4 20 -17 33q-10 10 -24 10q-15 0 -35 -12q-25 -12 -74 -61q-63 -70 -102 -148q-35 -68 -37 -133q0 -6 -1 -12q0 -68 46 -86q17 -7 43 -8q17 0 39 4 q45 10 81.5 26.5t74.5 43t69 55t63 62.5l62 65q8 8 21 5q18 -4 19 -20q0 -11 -16 -26l-77 -82q-156 -152 -293 -174q-24 -4 -44 -4q-67 0 -102 40q-32 39 -32 98z" />
<glyph unicode="d" horiz-adv-x="645" d="M53 192q0 69 27 115q39 82 119 166q63 68 133 105q95 53 184 53h6q12 0 33 -4q14 -2 17 -15.5t-5 -22.5t-22 -7h-4q-4 2 -6 2q-12 1 -25 1q-68 0 -139 -38q-68 -33 -127 -92q-84 -88 -121 -166q-26 -51 -26 -93q0 -18 5 -34q8 -33 33 -41q13 -7 32 -7q21 0 48 9 q125 43 234 227q72 121 157 318q53 117 123 288l37 88q2 14 16 40q11 19 24 20q4 0 9 -2q15 -7 16 -19q0 -5 -4 -12q-152 -367 -223 -522l-43 -100l-37 -84q-23 -53 -45 -132q-10 -41 -10 -75q0 -33 10 -43q6 -6 16 -6q26 0 72 47q39 35 109 116l74 90q12 14 28.5 6 t12.5 -26q0 -2 -27 -35q-61 -76 -113 -133q-72 -76 -108 -96q-28 -15 -51 -15q-29 0 -50 25q-19 25 -19 70q0 37 13 88q-8 -12 -28 -37q-66 -76 -136 -111q-60 -31 -106 -31q-30 0 -53 13q-60 27 -60 112z" />
<glyph unicode="e" horiz-adv-x="436" d="M82 291q39 164 160 274q59 55 114 66q18 3 34 3q67 0 85 -56q4 -14 4 -28q0 -72 -106 -147q-63 -39 -148 -65q-16 -6 -49 -14l-24 -7q-2 0 -6.5 -1t-6.5 -1l-2 -4l-2 -4q-16 -53 -16 -102q4 -47 22 -68q25 -20 52 -20q5 0 10 -1q42 0 102 27q63 35 131 101l70 73l37 45 q14 18 32 5q6 -5 7 -15q0 -14 -17 -37l-49 -55q-47 -51 -90 -88q-122 -104 -221 -104q-11 0 -21 2q-72 10 -98 69q-13 30 -13 73q0 35 9 79zM160 369q166 41 237 116q29 29 35 60q2 25 -16 35q-13 7 -31 7q-7 0 -14 -1q-53 -4 -117 -72q-55 -61 -94 -145z" />
<glyph unicode="f" horiz-adv-x="385" d="M-137 -430q-3 11 -3 27q0 35 13 90q23 92 109 305l145 334q-16 -2 -22.5 12t4.5 27l20 22l25 25q2 4 11 14t11 16l27 58l30 73l170 412q20 51 66 154q39 84 104 102q19 6 36 6q42 0 73 -37q26 -29 26 -74q0 -30 -12 -67q-31 -90 -125 -219q-59 -84 -190 -248l-94 -108 l-43 -50l-19 -20q-12 -14 -16 -27l-113 -258q8 18 49 19q33 0 52 2q47 6 96 28q86 43 196 174q16 20 35 3q12 -16 -2 -35q-45 -53 -69 -78q-74 -70 -131 -98q-66 -37 -134 -39q-12 -2 -36 -2q-12 0 -19 2q-2 -2 -2 -9q-2 -5 -2 -17q0 -18 4 -52l12.5 -92t12.5 -108 q1 -12 1 -28q0 -24 -2 -59q-3 -57 -18 -100q-20 -66 -65 -112t-105 -48q-86 0 -106 80zM-90 -371q-3 -16 -3 -29q0 -20 7 -34q16 -30 47 -30q18 0 41 9q109 45 109 226v14q0 61 -15 174q-8 57 -10 88q-3 17 -3 35t3 37q-70 -160 -100 -242q-47 -119 -66 -188q-8 -35 -10 -60 zM272 547q152 180 224 276q43 55 94 135q39 63 59 115q15 39 16 66q0 42 -36 57q-12 5 -24 5l-34 -10q-29 -17 -47 -46q-12 -18 -35 -74l-32 -78l-78 -188z" />
<glyph unicode="g" horiz-adv-x="534" d="M-45 -403q-1 11 -1 21q0 41 17 93q43 129 166 246q53 51 158 117l61 41q4 2 11 16l30 74l-14 -17q-80 -92 -147 -114q-37 -12 -68 -12q-51 0 -82 34q-32 33 -31 89q0 17 2 36q10 74 68 160q78 121 204 199q100 62 202 61q27 0 55 -4q37 -6 39 -25q2 -10 -17 -47l-30 -69 l-144 -326q119 90 207 192q14 16 32 4q10 -8 10 -17q0 -6 -5 -13q-6 -10 -27 -31l-22 -26q-57 -57 -107 -99l-73 -57l-46 -31q-8 -6 -14 -22l-51 -117q-106 -240 -131 -285q-37 -76 -74 -119q-39 -45 -80 -51q-7 -1 -14 -1q-33 0 -54 25q-26 30 -30 75zM0 -383q-1 -7 -1 -13 q0 -41 24 -57q9 -6 18 -5q29 0 68 50q35 47 79 144q39 78 91 198l47 105q-96 -61 -136 -96q-47 -39 -96 -99q-70 -92 -90 -182q-4 -29 -4 -45zM104 158q8 -33 35 -45q12 -5 28 -5q19 0 44 7q23 6 49 22q47 31 100 94q41 47 93 129q68 121 116 232q-20 3 -40 3 q-70 0 -146 -38q-72 -37 -139 -104q-80 -80 -119 -164q-24 -57 -24 -100q0 -16 3 -31z" />
<glyph unicode="h" horiz-adv-x="700" d="M106 100q12 35 41 105l99 250l-105 -119q-16 -20 -33 -5q-9 8 -9 16t7 18l119 135q16 20 54 61q20 25 49 90q68 166 135 312l72 143q55 98 102 123q22 12 43 12q18 0 36 -9q40 -21 40 -72.5t-64 -160.5q-74 -119 -221 -288l-104 -119q-29 -33 -53.5 -90.5t-39.5 -98.5 q96 121 172 175q64 48 117 48q30 0 55 -16q42 -26 43 -80q0 -57 -26 -110q-25 -51 -41 -94q-41 -88 -51 -121q-17 -53 -17 -76q0 -25 19 -25q22 0 69 39q51 41 195 215q10 12 24.5 6t14.5 -22q-2 -8 -31 -45q-6 -8 -65 -76q-115 -133 -181 -158q-15 -6 -28 -5q-24 0 -41 20 q-22 25 -22 59q0 8 1 17q8 47 33 107.5t45 100.5q12 20 25.5 58.5t23.5 76.5q4 16 5 29q0 19 -9 33q-11 18 -39 19q-9 0 -20 -3q-41 -6 -99 -55q-66 -55 -122 -127q-70 -86 -123 -188q-20 -39 -54 -121q-4 -12 -7 -22.5t-10 -14.5q-4 -2 -8.5 -2t-10.5 2q-13 6 -14 21 q0 12 9 32zM395 696q184 209 258 330q57 94 58 131q0 18 -12 31q-8 8 -17 8q-5 0 -10 -2q-33 -10 -68 -61q-39 -57 -84 -160q-19 -37 -125 -277z" />
<glyph unicode="i" horiz-adv-x="352" d="M104 358l31 37l139 160l45 53q10 14 25 13q29 -8 16 -31l-12 -25q-76 -139 -127 -266q-29 -66 -41 -119q-6 -27 -4 -49q0 -25 8 -25q8 -2 33 11q25 14 49 35q33 29 90 90q41 45 78 90q2 2 6 8q33 41 52 25q7 -6 7 -16q0 -12 -12 -27l-36 -41q-70 -82 -109 -121 q-55 -55 -94 -78q-37 -22 -63 -22q-13 0 -23 6q-27 12 -31 55q-1 8 -1 18q0 44 24 113q27 74 77 184l-92 -108q-16 -18 -34 -4q-9 7 -8 16q-1 8 7 18zM430 954q15 29 37 30q9 0 18 -5q20 -11 21 -31q0 -12 -8 -28q-15 -29 -37 -30q-9 0 -19 5q-20 11 -20 31q0 12 8 28z" />
<glyph unicode="j" horiz-adv-x="303" d="M-287 -406q4 121 144 261q57 57 147 133l98 82q8 8 25 47l147 366l-61 -72q-41 -48 -45 -53l-23 -24q-10 -12 -26.5 -6t-14.5 22q2 12 31 41l64 74l120 141q2 2 7.5 6t9.5 6q10 4 20.5 -3t10.5 -19q0 -4 -5 -12l-30 -84l-144 -357q117 104 222 222q14 14 30.5 0.5 t5.5 -29.5q-2 -4 -32 -35l-29 -31q-86 -86 -104 -102q-33 -33 -99 -90q-8 -8 -24 -21l-11 -10l-10 -24l-45 -103q-98 -219 -174 -336q-59 -92 -119 -96h-4q-38 0 -59 31q-23 32 -23 75zM-240 -428q7 -38 32 -38q3 0 7 1q29 4 60 45q45 59 98 166q61 123 111 236l-17 -15 q-94 -82 -139 -125q-80 -74 -119 -147q-34 -60 -34 -105q0 -9 1 -18zM415 938q15 28 36 28q10 0 20 -5q20 -10 20 -30q0 -12 -8 -28q-15 -29 -36 -29q-9 0 -19 5q-22 11 -21 31q0 12 8 28z" />
<glyph unicode="k" horiz-adv-x="643" d="M98 84l47 119l93 235q-53 -61 -84 -92q-20 -25 -35 -22.5t-18 17.5t8 24q51 51 145 161l39 43q12 33 20 49q12 33 41 99l72 168q61 137 113 229q33 61 69 96q38 33 72 33q19 0 37 -10q31 -18 37 -59q2 -11 1 -22q0 -28 -12 -50q-8 -25 -51 -94q-63 -96 -198 -267 l-117 -141q-2 -2 -29 -35l-14 -16l-6 -12q-2 -6 -4 -11l-41 -100q86 109 168 160q60 37 102 37q44 0 70 -39q12 -28 12 -54q0 -18 -6 -35q-14 -42 -49 -77q-82 -84 -258 -123q4 -8 14 -38t16 -46q37 -82 78 -96q15 -5 31 -5q29 0 59 17q41 25 96 84q47 49 129 147 q6 6 15.5 7.5t17.5 -5t8 -16.5q0 -8 -14 -27q-16 -20 -27 -30l-90 -103q-37 -39 -63.5 -62.5t-71.5 -43.5q-32 -15 -62 -15q-12 0 -24 3q-35 8 -61.5 30.5t-42 53t-29.5 65.5t-22 66q-14 39 0 51l24 6q16 4 25 4l45 12q88 27 137 64q49 35 68 74q18 35 8 61q-8 21 -34 21 q-14 0 -34 -7q-39 -14 -94 -57q-51 -43 -105 -111q-111 -137 -180 -336l-4 -6l-6 -8q-4 -4 -7 -4l-5 2q-22 4 -22 21q-1 7 3 16zM391 688q59 72 64 76q160 203 217 299q37 62 37 98q0 9 -2 17q-8 17 -25 17q-9 0 -20 -5q-25 -10 -60 -57q-33 -51 -86 -162q-31 -64 -125 -283 z" />
<glyph unicode="l" horiz-adv-x="405" d="M104 345q0 14 33 52l49 64l12 12l12 15l11 14q14 20 15 22l6 13q2 6 4 10q31 84 57 143q57 147 90 219l72 148q45 86 80 125q51 61 95 61q16 0 32 -8q33 -16 38 -59q1 -10 1 -20q0 -30 -13 -52q-10 -31 -51 -98q-55 -92 -155 -226l-207 -272q-8 -8 -15 -21l-8 -24 l-18 -49q-18 -51 -31 -95q-12 -41 -18 -79q-3 -22 -3 -40q0 -32 9 -53q14 -33 48 -25.5t67 38.5l66 61q32 31 42 45l63 70q2 2 7 8q28 34 45 34q8 0 14 -7q10 -16 -6 -37q-33 -39 -35 -41l-68 -72q-59 -68 -112 -106q-55 -39 -93 -39h-3q-43 0 -66 33.5t-25 80.5v6 q0 62 41 189q-14 -16 -39 -49q-8 -12 -23 -11q-20 1 -20 20zM336 649l186 252q96 141 127 203q15 34 15 57q0 18 -9 29q-4 5 -14 5q-5 0 -12 -1q-41 -16 -86 -94q-31 -47 -64 -119q-41 -80 -82 -178z" />
<glyph unicode="m" horiz-adv-x="1208" d="M104 342q-1 4 -1 8q0 9 8 17l18 20l70 82q25 29 58.5 63.5t64.5 55.5q38 28 67 28q24 0 43 -18q27 -25 27 -77q0 -38 -15 -91q63 88 117 135q68 59 117 64h6q31 0 53 -21q25 -23 31 -59q3 -18 3 -41q0 -55 -17 -137q84 113 161.5 178t143.5 74q8 1 15 0q37 0 56 -17 q23 -23 23 -59q0 -49 -53 -180q-59 -137 -70 -172q-14 -43 -10 -62q2 -20 35 -16q39 8 102 67q47 45 109 117l43 53q27 31 43 19q7 -6 6 -15q0 -16 -21 -41l-75 -92q-86 -98 -148 -133q-43 -25 -74 -25q-30 0 -51 23q-16 19 -16 51q0 34 18 84q8 29 22 60l29 66l25 57 q29 74 31 81q12 37 10 62q-2 29 -31 29q-21 0 -55 -15q-49 -23 -117 -86q-55 -55 -112 -133q-18 -23 -52 -72l-22 -34q-4 -8 -18.5 -45l-34.5 -84q-20 -37 -29 -43q-9 -8 -18 -8.5t-17 8.5q-12 12 -4 36q8 29 25 58l22 43q23 39 25 45q20 61 28 94q27 98 27 163v17 q-4 57 -39 58q-14 0 -35 -9q-41 -18 -80 -61q-68 -68 -165 -223l-68 -117l-29 -53l-22 -45q-9 -9 -19 -9l-18 9q-8 12 0 28l26 56q6 14 36 75.5t44 94.5q37 86 47 133q11 37 11 62q0 27 -13 40q-12 12 -32 0q-23 -10 -60 -43q-10 -10 -61 -65l-72 -82l-26 -31 q-12 -16 -25 -16q-17 2 -21 16z" />
<glyph unicode="n" horiz-adv-x="868" d="M106 340q-2 4 -1 8q0 6 4 10q2 4 6 11q2 2 2 4l61 78q51 57 92 94q53 49 97 63q13 4 26 5q16 0 31 -8q27 -13 35 -44q4 -15 4 -34t-4 -42q-8 -43 -29 -98q37 49 74 92q78 86 141 119q50 27 88 27q32 0 55.5 -19t23.5 -61q0 -32 -13 -78l-78 -188q-29 -74 -31 -82 q-14 -43 -12 -62q2 -22 23 -22q22 0 65 24q43 27 113 101l56 71l44 58q8 10 23.5 8t17.5 -17q0 -4 -10 -26q-4 -10 -27 -37q-70 -88 -98 -117q-80 -80 -137 -100q-19 -9 -40 -9q-13 0 -28 4q-37 9 -45 44q-3 11 -3 23q0 19 7 44q6 31 31 88l73 179q16 41 23 73q4 35 -4 45 q-14 14 -51 4q-18 -2 -47 -18q-86 -45 -189 -184q-74 -100 -141 -219q-31 -57 -41 -70q-10 -15 -23 -16q-6 0 -12 4q-20 8 -10 28l16 37q70 139 101 211q37 90 45 129q6 25 6 51q4 27 -13 39q-14 8 -41 -6q-27 -18 -53 -41q-61 -55 -127 -135l-30 -41q-16 -20 -31 -14 q-11 2 -15 12z" />
<glyph unicode="o" horiz-adv-x="591" d="M88 279q27 145 143 268q31 31 66 59q35 20 37 21q23 -4 22 -25q-2 -10 -26 -31q-18 -12 -33 -26q-35 -29 -61 -62q-57 -74 -80 -139q-27 -69 -27 -122q0 -48 27 -80q20 -25 52 -24q7 0 13 1q80 10 162 100q-56 51 -56 141q0 58 23 132q29 94 78 126q26 20 54 20 q7 0 15 -1q36 -6 54 -41q22 -39 22 -87q0 -46 -20 -101q-29 -90 -98 -177q21 -8 43 -8q40 0 82 27q39 27 69 59l43 45q18 27 37 11q9 -9 9 -18q0 -13 -12 -24q-9 -9 -15 -18l-56 -55q-59 -51 -104 -66q-29 -7 -53 -7q-10 0 -19 1q-25 4 -37 8t-18 9l-18 -19 q-78 -82 -158 -100q-18 -4 -35 -4q-26 0 -50 9q-40 15 -61 54q-19 37 -19 88q0 27 5 56zM379 416q-4 -27 -4 -50q0 -73 39 -112q33 43 55 82q56 93 56 172q0 10 -1 20q-4 49 -26 62q-6 3 -14 3q-19 0 -40 -22q-49 -53 -65 -155z" />
<glyph unicode="p" horiz-adv-x="688" d="M-111 -420q0 8 11 29l12 26l117 271l239 569q-78 -86 -114 -131q-23 -27 -41 -6q-14 14 2 33l110 127q35 37 101 114q12 14 29.5 3t9.5 -27q-10 -25 -11 -27l-65 -158q102 129 200 191q63 40 105 40q22 0 39 -11q35 -22 35 -88v-15q-2 -70 -35 -151q-70 -176 -203 -267 q186 49 365 260q12 16 29 4q11 -8 11 -18q0 -6 -4 -12l-30 -37q-20 -20 -29 -33q-47 -49 -106 -96q-150 -111 -304 -125q-20 -2 -40 -2q-35 0 -72 6l-33 6q-20 8 -15 29.5t27 15.5q20 -6 41 -6q12 0 33 4q33 6 66 23q55 29 110 86q94 104 129 239q8 25 13 54q1 19 1 34 q0 30 -6 41q-6 14 -22 14q-15 0 -37 -11q-47 -20 -96 -62q-55 -45 -111 -108q-51 -59 -106 -146q-27 -41 -45 -80q-2 -2 -6 -10l-7 -12l-10 -23l-18 -45l-158 -366q-41 -98 -63 -146q-8 -25 -25 -24q-23 4 -23 24z" />
<glyph unicode="q" horiz-adv-x="602" d="M55 156q-2 15 -2 31q0 52 25 114q35 82 110 164q129 135 271 166q44 10 82 10q33 0 61 -8q16 -4 19.5 -17.5t-5 -28t-12.5 -26.5l-63 -145l-144 -326q63 29 105 62q47 37 96 92l117 127q14 16 31 0q9 -8 9 -17q0 -8 -7 -16l-27 -27q-145 -164 -213 -211q-16 -14 -35 -22 l-18 -10q-14 -6 -15 -11q10 -37 11 -92q0 -82 -17 -174q-18 -100 -43 -164q-35 -88 -88 -123q-30 -19 -57 -19q-28 0 -53 21q-34 29 -34 86q0 33 11 74q20 80 121 299l106 242q-47 -57 -92 -92q-69 -54 -134 -54q-14 0 -28 2q-74 13 -88 93zM102 158q8 -35 33 -45 q13 -6 31 -6.5t41 6.5q23 8 49 22q51 31 102 96q45 53 91 129q61 102 118 232q-18 2 -36 2q-73 0 -150 -39q-72 -35 -139 -102q-80 -80 -119 -164q-24 -60 -24 -102q0 -16 3 -29zM207 -375q-2 -16 -2 -30q0 -34 14 -50q13 -14 28 -14q7 0 13 3q23 9 39 26.5t27 36.5 q20 35 41 102q16 53 26 127q10 66 13 125q0 82 -21 115q-10 -20 -26 -58l-21 -51q-10 -25 -34 -75l-41 -90q-17 -40 -30 -77q-20 -55 -26 -90z" />
<glyph unicode="r" horiz-adv-x="528" d="M99 351q5 15 19 28l21 20q41 43 119 133l66 80l30 35q7 10 17 10q5 0 10 -3q16 -7 14 -23q-2 -8 -9 -23.5t-9 -17.5q0 -2 -3 -10.5t-3 -12.5q-2 -12 10 -14q14 -2 26.5 -1t27 0t24.5 -5q36 -12 36 -50q0 -7 -1 -16q-8 -41 -33 -82l-55 -92q-70 -119 -78 -157 q-6 -47 16 -54q12 -4 41 13q39 25 113 102l141 158q16 16 33 1q8 -8 8 -16t-8 -16l-21 -25l-71 -80q-72 -84 -125 -129q-59 -51 -99 -55h-8q-34 0 -53 29q-16 25 -16 54q0 9 2 18q8 57 86 180l55 92q27 54 27 73q0 11 -60 11q-51 4 -63 37q-29 -37 -142 -164l-39 -41 q-18 -18 -34 -10q-12 6 -13 16q0 3 1 7z" />
<glyph unicode="s" horiz-adv-x="497" d="M-39 176q0 25 21 25q10 2 36 -25q16 -16 35 -29q37 -27 76 -38q14 -6 43 -11q25 -4 39 -2q53 12 74 72q18 51 18 145q0 20 -3 91q-2 42 -2 74q0 21 1 36l-125 -143l-37 -39q-12 -18 -28 -2q-12 10 -8.5 23.5t15 23.5t19.5 18l184 215l25 29q8 8 17 8q7 0 14 -5 q16 -11 8 -28q-2 -6 -12.5 -16t-12.5 -18q-10 -25 -14 -82q-1 -14 -1 -34q0 -29 2 -70q3 -69 3 -101q0 -117 -35 -174q88 33 174 112q68 61 115 129q14 18 33 6q11 -8 11 -18q0 -7 -5 -14l-49 -62q-61 -72 -125 -118q-134 -104 -260 -104q-33 0 -66 7q-82 18 -151 84 q-27 21 -29 35z" />
<glyph unicode="t" horiz-adv-x="444" d="M111 330q-8 6 -9 14q0 14 19 35q94 125 151 227h-92q-14 0 -21 10.5t-1 22.5t32 12h109l20 43q39 76 105 236q5 15 20 14h3q17 -2 20 -20q0 -6 -12 -39l-31 -78q-29 -66 -64 -156h142q49 0 55 -12t-2 -22.5t-20 -10.5h-193q-2 0 -5 -8l-7 -18q-4 -10 -4 -13l-17 -43 l-33 -90q-33 -98 -45 -168q-7 -39 -6 -67q0 -32 8 -49q10 -25 36 -28t49.5 6t41.5 24q47 33 140 147l53 63q8 10 21.5 7.5t17.5 -15.5q1 -3 1 -5q0 -9 -9 -21q-37 -43 -39 -45q-102 -127 -146 -160q-60 -48 -115 -48q-18 0 -34 5q-57 14 -68 84q-3 19 -3 40q0 37 9 81 q16 80 52 182l-84 -117q-29 -34 -45 -20z" />
<glyph unicode="u" horiz-adv-x="712" d="M111 328q-11 7 -11 17q0 13 19 32l41 51q86 111 125 166q2 2 5 9t7 11q14 14 33 0q12 -12 0 -32q-55 -135 -70 -168q-47 -100 -67 -164q-16 -43 -21 -72q-8 -29 -2 -49q5 -21 27 -21q17 0 45 13q43 20 84 61q80 76 178 215q82 119 133 211q10 18 25 19q18 0 22 -19 q0 -2 -6 -26q-14 -31 -39 -93q-12 -33 -43 -105.5t-45 -111.5q-35 -92 -39 -131q-6 -25 4 -32q8 -4 29 2l22 10q39 23 119 96q74 74 131 145q23 23 39 -4q2 -5 2 -9q0 -10 -8 -21q-37 -43 -39 -45q-57 -66 -111 -115q-59 -59 -108 -86q-40 -21 -69 -21q-32 0 -48 27 q-9 15 -9 41t9 61q14 59 64 175q-109 -154 -203 -236q-70 -57 -127 -66q-7 -1 -13 0q-25 0 -43 13q-24 16 -30 47q-1 9 -1 18q0 40 19 101q12 39 70 178l-49 -64q-2 -2 -6 -8q-27 -32 -45 -20z" />
<glyph unicode="v" horiz-adv-x="825" d="M108 333q-6 7 -7 14q0 8 8 15l28 37q109 121 113 125q70 70 106 84q12 4 24 5q16 0 32 -9q31 -17 31 -53q0 -28 -13 -64q-4 -16 -35 -92q-66 -147 -71 -164q-16 -37 -22.5 -69.5t3.5 -42.5q7 -9 21 -10q16 0 39 14q39 18 84 59q96 82 194 205q57 70 82 107l33 47 q6 10 12 23.5t16.5 20.5t22.5 1q23 -10 8 -33l-24 -45q-25 -41 -43 -86q-31 -66 -31 -111q0 -29 20 -42q18 -11 43 -7q33 6 70 35q35 27 78 68q14 12 28 2q11 -8 12 -20q0 -8 -22 -30l-24 -22q-68 -59 -113 -74q-23 -8 -44 -8q-39 0 -69 29q-26 26 -25 70q0 20 5 44 q-104 -129 -178 -192q-57 -49 -90 -68q-45 -27 -78 -28q-6 -1 -12 -1q-57 0 -66 58q-1 6 -1 13q0 52 40 145l36.5 78.5t41.5 95.5q23 62 23 89q0 20 -13 21q-16 0 -35 -18q-25 -16 -51 -43l-102 -113q-4 -8 -14.5 -19.5t-12.5 -13.5q-23 -27 -29 -32q-16 -10 -29 5z" />
<glyph unicode="w" horiz-adv-x="993" d="M102 346q0 12 11 23l49 57q82 96 125 164q6 8 11 16t12 12.5t18 2.5q23 -10 12 -35l-37 -86l-98 -234q-16 -49 -23 -73q-8 -37 -6 -56q4 -27 23 -26q14 -2 43 6q31 12 84 57q39 35 90 96q80 96 166 234l59 96q8 16 14 23q7 5 14 5q10 0 19 -12q8 -10 -4 -34 q-10 -14 -16 -29q-88 -164 -125 -293q-16 -55 -16 -91q0 -11 1 -19q4 -31 25 -35q12 -4 24 -4q20 0 41 10q63 25 123 98q51 61 105 158q16 29 22 43l21 47l45 86q16 37 20 45q4 12 11 18q7 7 14 7q9 0 18 -9q10 -10 -6 -47q-2 -4 -10 -22.5t-14 -28.5l-43 -90 q-25 -49 -33 -92q-8 -37 8 -55q18 -25 53 -17q33 4 70 35q29 20 80 68q8 10 22.5 5t14.5 -20q2 -10 -29 -41q-51 -49 -92 -69q-41 -25 -78 -25q-12 0 -22 2q-59 12 -72 70q-53 -88 -115 -146q-63 -63 -131 -73q-15 -3 -28 -3q-26 0 -46 11q-33 14 -43 59q-3 14 -2 31 q0 59 33 153q-92 -125 -174 -192q-76 -63 -133 -64q-31 0 -52.5 17.5t-23.5 48.5q-1 7 -1 16q0 38 22 105q31 90 69 176l-47 -57l-27 -29q-12 -16 -24 -16q-21 4 -21 22z" />
<glyph unicode="x" horiz-adv-x="743" d="M106 360q10 14 32 38t28 32l67 80q82 92 144 106q16 4 30 4q25 0 45 -12q30 -18 42 -61t15 -75t5 -75l158 123l116 90q8 8 21 15q6 3 11.5 3t10.5 -3q20 -12 7 -35q-4 -6 -18.5 -15.5t-16.5 -11.5l-164 -127q-6 -4 -37 -28l-47 -37l-25 -19l-16 -16v-45q6 -88 6 -90 q10 -51 19 -64q15 -23 40 -22q29 0 72 30q61 41 142 142l63 75q8 10 20.5 8.5t18.5 -12.5q2 -5 2 -9q0 -10 -8 -19l-35 -43q-78 -94 -123 -137q-80 -76 -145 -78h-7q-36 0 -61 19q-27 22 -36 66t-11 70.5t-2 73.5q-119 -94 -176 -143q-68 -63 -80 -78q-10 -14 -20 -17 q-3 -1 -7 0q-17 0 -20 21q-2 8 22 39q37 37 115 102l82 68l45 37l21 16q18 12 18 19l-4 96q-4 49 -16 76q-14 33 -39 36q-2 0 -5 1q-25 0 -57 -21q-45 -31 -135 -139l-66 -76q-18 -18 -34 -10q-12 10 -12 19q-1 6 5 13z" />
<glyph unicode="y" horiz-adv-x="780" d="M102 344q0 11 19 35l33 39q86 100 110 125q63 63 103 71q8 2 16 2q22 0 41 -12q29 -23 29 -63q4 -53 -43 -185q-49 -123 -60 -176q-4 -41 2 -53q8 -10 39 -4q35 10 86 53q82 74 201 232q61 86 90 131q12 20 20 30q12 20 25 21q12 2 18.5 -10.5t2.5 -24.5l-175 -432 q129 119 230 239q8 8 19.5 8.5t17.5 -10.5q2 -4 2 -8q0 -13 -17 -35l-75 -86q-96 -100 -168 -161l-41 -37q-6 -6 -23 -43q-2 -8 -16 -41q-8 -25 -29 -74q-49 -119 -76 -176q-41 -86 -84 -131q-57 -66 -123 -68h-5q-39 0 -64 27q-27 29 -27 72q2 90 109 204q51 55 151 134 l84 67l41 37q14 10 17 14l6 15l125 307q-117 -160 -207 -236q-63 -55 -119 -65q-10 -2 -19 -2q-25 0 -42 16q-23 16 -23 53q-2 27 10 80l33 99q47 123 57 178q8 39 0 57q-10 20 -41 8l-49 -37l-25 -26q-19 -20 -30 -33l-82 -96l-31 -37q-8 -12 -24 -11q-19 1 -19 19z M233 -436q11 -19 34 -20q15 0 36 10q27 8 51 32q43 41 82 123q31 59 80 182q4 14 29 72q-16 -14 -63.5 -50t-79 -63.5t-60.5 -56.5q-70 -70 -98 -135q-17 -37 -18 -64q0 -17 7 -30z" />
<glyph unicode="z" horiz-adv-x="624" d="M-16 -375q29 78 114 160q39 39 154 123l86 61q16 10 45 35l20 16q8 6 13 23q12 33 12 57q0 13 -4 23q-2 10 -10 18l-6 9q-6 6 -9 2l-45 -29q-79 -49 -130 -49q-15 0 -27 4q-31 10 -37 35q-4 27 24 61q55 56 130 56q18 0 36 -3q25 -6 49 -18q37 31 39 33q41 39 72 73 q74 95 74 163q0 51 -38 75q-33 21 -77 21q-4 0 -8 -1q-53 -2 -111.5 -38.5t-80.5 -60.5l-83 -91l-26 -29q-23 -27 -31 -28q-18 -2 -24.5 13t4.5 28l32 36l50 56l54 53q26 25 57.5 48.5t64.5 37.5q55 22 106 22q30 0 57 -8q90 -27 101 -118q1 -7 0 -14q0 -68 -53 -150 q-53 -80 -140 -148q34 -35 34 -83q0 -8 -1 -15l111 117l92 98l47 53q27 27 43 13q7 -7 7 -16q0 -11 -11 -23l-246 -265l-51 -51l-12 -10q-4 -8 -5 -12l-10 -21q-12 -33 -20 -47q-47 -111 -88 -186q-49 -92 -90 -150q-45 -63 -97 -90q-38 -19 -71 -19q-23 0 -45 9 q-51 26 -51 83q0 26 10 58zM27 -391q-7 -23 -7 -40q0 -42 43 -48q3 0 7 -1q75 0 153 126q59 86 152 293l-86.5 -60.5t-104.5 -77t-78 -71.5q-63 -66 -79 -121zM205 127q-2 -4 2 -5t8 -1h5q19 0 56 12q37 16 82 47q-18 5 -36 5q-34 0 -68 -17q-23 -8 -41 -31z" />
<glyph unicode="{" horiz-adv-x="608" d="M-70 -399q-2 45 13 108q16 61 43 125q18 45 59 135l57 119l50 111q8 16 20 49q8 25 10 39q0 16 -2 20q-20 25 -47 31q-2 0 -6 1t-8 1h-13q-16 4 -16 20q-2 8 4 15v6l2 2q0 2 2 2v4q10 10 23 8h4q16 0 29 6q27 6 53 23q16 8 22 14q12 12 13 15q12 16 26 43q16 37 23 57 q16 39 47 143q8 31 41 133q29 86 47 130q27 66 57 116q35 57 80 103q45 39 101 57q41 12 81 12q33 -4 50 -8q14 -4 18 -10q8 -16 -2 -27q-8 -12 -25 -8l-30 6q-39 2 -78 -10q-53 -16 -100 -64q-39 -43 -70 -102t-55 -123q-20 -53 -45 -131q-16 -59 -41 -137 q-18 -68 -43 -127q-20 -51 -50 -88q-10 -12 -30 -27q-31 -18 -60 -28q20 -14 33 -29q0 -2 3 -7t3 -7q8 -20 0 -60q-12 -43 -30 -88q-37 -82 -58 -123q-35 -70 -59 -127q-29 -57 -56 -127q-29 -72 -36 -114q-6 -25 -7 -52q-4 -31 5 -51q10 -29 36 -37q23 -8 54 -8q16 0 45 4 q4 2 10 2q8 0 12 -4q14 -6 11 -22q-2 -14 -17 -19h-2l-4 -2q-25 -4 -35 -4q-57 -6 -104 16q-27 12 -39 39q-15 19 -19 56z" />
<glyph unicode="|" horiz-adv-x="770" d="M68 -369q2 2 2 7l6 14l10 22l12 31l17 39l18 45l23 51l22 58l25 59l28 66l27 67l31 72l61 147l31 76l33 76l30 76l31 73l31 72l29 70l26 67q12 27 27 64l24 59q4 8 11.5 27.5t11.5 25.5l20 49l19 41q8 25 14 37q8 14 10 27q2 4 9 20l6 11v2q8 25 30 12q20 -6 13 -29v-2 q-4 -8 -4 -10q-4 -6 -9 -18l-12 -27l-14 -35l-17 -41l-20 -47l-21 -53l-24 -58q-4 -12 -14.5 -33.5t-12.5 -29.5l-26 -66l-31 -69q-8 -25 -29 -74l-61 -147l-18 -41q-11 -27 -15 -35l-61 -152l-62 -143l-29 -70l-26 -65l-25 -62l-24 -57q-2 -6 -10 -24l-11 -27 q-4 -8 -20 -45q-2 -8 -17 -41l-12 -31q-8 -16 -10 -24l-8 -17q0 -2 -1 -4t-1 -4q-8 -14 -23 -14q-12 0 -18 11t-2 21z" />
<glyph unicode="}" horiz-adv-x="919" d="M-137 -477q4 14 18 18q4 2 10.5 0t10.5 -2q12 -4 22 -4q43 -4 78 8q53 16 98 66q37 39 72 102q20 39 53 121q23 59 45 133l43 137q16 55 43 127q23 57 50 86q10 16 28 27q35 20 60 31q-16 10 -33 30l-6 13q-6 20 2 59q6 35 30 90q37 82 58 123q35 70 59 127q29 57 55 127 q20 53 37 115q6 49 6 51q4 27 -6 51q-8 25 -37 35q-16 8 -55 8q-23 0 -43 -6h-10q-6 0 -14 4q-12 12 -7 25q4 12 17 16q4 0 6 2q25 4 35 4q61 8 104 -18q25 -12 41 -39q12 -20 17 -57q2 -31 -11 -93q-16 -63 -41 -122q-16 -45 -57 -136q-18 -41 -59 -123l-50 -110 q-8 -16 -20 -49q-10 -23 -12 -41q-4 -16 -2 -27q0 -2 1 -2t1 -2l12 -12q12 -10 25 -15q16 -4 26 -4q14 4 22.5 -8t4.5 -31l-10 -14q-10 -4 -23 -4q-10 0 -22 -4q-14 -2 -50 -17l-30 -18l-13 -12q-14 -14 -24 -39q-14 -23 -25 -53q-18 -47 -47 -142l-41 -135 q-29 -86 -47 -129q-27 -66 -55 -121q-37 -61 -76 -102q-51 -47 -100 -64q-43 -16 -86 -16q-27 0 -54 6l-12 4q-12 7 -12 25z" />
<glyph unicode="~" horiz-adv-x="90" d="M-27 90q-2 10 9 25l211 247q23 25 36 11q16 -16 -2 -39l-39 -47l-137 -162l-37 -45q-6 -6 -15 -8t-16.5 3t-9.5 15z" />
<glyph unicode="&#xa1;" horiz-adv-x="774" d="M156 -231q10 27 34 79l166 392l117 268q4 12 14 14q14 6 24.5 -5t4.5 -25l-10 -23l-55 -131l-172 -401l-68 -156l-18 -43q-14 -33 -35 -23q-25 11 -2 54zM578 813q0 14 10 25.5t26.5 11.5t27.5 -10.5t11 -26.5q0 -39 -39 -39q-16 0 -26 11.5t-10 27.5z" />
<glyph unicode="&#xa2;" horiz-adv-x="632" d="M45 129l14 39l31 72l27 65l8 17v2l-6 4q-4 2 -4 4q-4 2 -13 10q-43 35 -57 107q-14 59 0 135q16 78 45 139q27 61 72 123q47 66 100 106q57 47 111 66l26 10q2 0 7.5 1t7.5 1q6 0 6 2q0 6 4 10l25 62l30 74l17 36q4 12 17 15.5t22 -6.5q8 -8 4 -25q0 -2 -1 -2t-1 -2 q-2 -6 -10 -24l-11 -27l-31 -72l-16 -37q47 -6 78 -28q23 -16 39 -43q10 -14 8 -29q-4 -12 -19 -16q-16 -4 -22 10l-16 24q-18 20 -45 31q-16 4 -27 4q-6 0 -8 2h-6v-2l-2 -4q-2 -8 -11 -25l-16 -43l-25 -55l-26 -67l-31 -72l-31 -76l-30 -74l-29 -69l-27 -60l-18 -49 q-6 -10 -15 -31l-4 -12q43 -6 103 21q55 25 108 78l15 14l12 12q10 12 27 6q16 -8 12 -24q0 -4 -4 -13l-15 -14q-49 -53 -108 -88q-55 -33 -117 -39q-25 0 -37 2l-14 2l-6 -14l-25 -62l-31 -73l-18 -45l-2 -2q-8 -14 -23 -13q-12 0 -17 10.5t-1 20.5zM88 471q8 -72 55 -104 l7 14q8 25 14 35l11 27q7 17 9 24l27 63l31 72l30 76l31 74l29 71l26 62l21 49l12 33l6 12q-31 -10 -53 -25q-57 -35 -108 -92q-47 -51 -84 -117q-37 -72 -52 -131q-20 -80 -12 -143z" />
<glyph unicode="&#xa3;" horiz-adv-x="968" d="M-18 61q-4 16 6 27q4 4 16 8q4 2 8 5t6 3q16 10 29 25q31 31 59 78q31 49 62 108q33 66 55 125q29 68 49 131h-147q-14 0 -18.5 16.5t8.5 24.5q4 4 14 4h158l2 5q0 2 1 5t1 5l6 18l15 62q13 53 22 82q23 70 43 116q16 45 47 92q27 45 51 70q18 25 51 49.5t52 32.5 q25 12 51 18q12 4 45 9q23 4 41 0q55 -4 104 -25q49 -23 84 -65q37 -53 37 -109q2 -61 -31 -123l-18 -27l-12 -12q-4 -2 -13 -2q-16 0 -20 17q-2 6 0 12q4 10 8 12q43 57 41 121q-4 59 -45 100q-39 37 -98 49q-49 10 -93 5q-43 -10 -71 -27q-41 -25 -66 -51q-23 -23 -59 -76 q-29 -51 -49 -100q-25 -61 -43 -123l-17 -68q-10 -41 -20 -72h209q10 0 16 -8q10 -14 2 -26q-6 -10 -18 -11h-224l-2 -10l-6 -16l-10 -31l-49 -127q-18 -43 -59 -125q-41 -74 -66 -108l20 6q45 8 70 10q39 0 76 -6q72 -14 151 -41q27 -6 76 -23l70 -14q41 -4 59 0l25 6 q14 6 24 -4q14 -10 7 -25q-4 -8 -9 -10l-12 -6q-27 -8 -59 -8q-35 0 -68 6l-74 18q-16 4 -70.5 21.5t-82.5 24.5q-37 10 -74 12q-31 4 -66 0q-51 -6 -104 -33q-31 -14 -53 -31l-4 -4q-4 -4 -9 -4h-16q-16 0 -22 12z" />
<glyph unicode="&#xa4;" d="M2 76v43q0 4 4 4h639v-43q0 -4 -4 -4h-639zM2 608v33q0 14 4 14h324v-39q0 -8 -4 -8h-324zM2 1200v43q0 4 4 4h639v-43q0 -4 -4 -4h-639z" />
<glyph unicode="&#xa5;" horiz-adv-x="847" d="M49 442q-8 12 0 25q6 12 19 12h153l2 4q0 2 4 11l15 34l22 50h-182q-16 4 -21 16q-2 12 5.5 21.5t17.5 9.5h197v2q0 16 -2 24q0 8 -1.5 23.5t-1.5 23.5l-4 64l-4 74q-4 53 -4 79l-6 82q0 25 -4 78l-4 66q0 10 -1 27.5t-1 25.5q-2 10 -2 33q-2 2 -2 8q0 14 12 20 q10 8 21.5 1t13.5 -19v-6q0 -4 1 -16.5t1 -18.5l4 -61l4 -80l6 -88l4 -93l6 -83q0 -20 5 -70q0 -6 1 -22.5t1 -24.5l6 8l30 35l39 49l50 59q51 61 53 66q29 33 57 70l55 67l54 62q29 37 45 55q10 14 35 43l22 26q6 14 21 17q14 4 22 -12q10 -12 -2 -25q0 -2 -2 -2 q-8 -12 -14 -18l-25 -31l-37 -45l-43 -51l-49 -60l-51 -61l-17 -21l-18 -22q-10 -12 -16 -21l-52 -61l-45 -56l-41 -49l-30 -39l-21 -24l-8 -8h156q16 0 20 -17q8 -14 -6 -24q-6 -6 -14 -6h-183q-2 0 -2 -5l-6 -10l-14 -35l-23 -49h211q10 0 19 -8q8 -12 2 -27 q-8 -12 -21 -12h-229q-2 0 -2 -2q-2 -2 -2 -4q-2 -4 -2 -6l-21 -45l-28 -68l-33 -74l-31 -69q-2 -6 -9 -24l-11 -27l-7 -13q-4 -8 -4 -10q-12 -12 -24 -8q-16 4 -19 18q0 4 4 17l15 35q10 20 26 61l33 74l31 71q18 43 22 54l11 20h-131q-11 0 -21 10z" />
<glyph unicode="&#xa6;" horiz-adv-x="770" d="M66 -379q0 4 2 9t2 8l311 747q0 2 2 6t2 6l2 2q0 2 2 7v2l197 466q0 6 2 9l24 59q4 6 10 21l7 20l55 131l4 8l6 15l2 4q0 2 -1 5t-1 5q0 6 13 18l6 13q2 8 16 14q8 0 14 -2l7 -4q6 -4 6 -25v-2q-8 -14 -13 -28l-133 -316v-4l-2 -4l-57 -135q0 -6 -16 -43l-74 -178 q-4 -8 -4 -13l-21 -45q-4 -6 -8 -18l-227 -549q-8 -18 -11 -23q-2 0 -2 -2v-2l-14 -36q-31 -53 -31 -74l-12 -31q-8 -16 -10 -24l-8 -17q0 -4 -2 -7t-2 -5l-5 -4q-8 -4 -10 -4l-6 -2q-22 -1 -22 22z" />
<glyph unicode="&#xa7;" horiz-adv-x="860" d="M-248 -131q0 10 4 14q4 8 11 8q14 6 24 -4q6 -6 6 -12v-14q-4 -20 -4 -29q-4 -57 21 -104q18 -45 65 -80q41 -31 103 -47q53 -12 108 -7q57 4 103 31q25 12 43 31q16 12 34 41q27 41 39 84q12 41 8 86q-2 35 -18 92q-20 55 -43 102q-12 29 -61 115l-74 125 q-37 63 -51 127q-18 68 -13 137q6 68 35 131q27 61 68 107l45 41l24 18l15 6v19q6 74 36.5 137t79.5 113q47 47 99 69q57 25 108 19q41 -2 84 -17q49 -16 84 -45q33 -27 56 -65q20 -33 30 -76q10 -33 15 -80l4 -39v-18q0 -8 -2 -13q0 -4 -7 -10q-14 -10 -26 -2q-6 2 -8 8 q-4 8 -4 13q0 29 -2 43q-4 51 -15 86q-8 43 -35 77q-25 37 -65 60q-43 25 -105 31q-31 4 -53 -2q-27 -2 -53 -17q-55 -27 -94 -80q-43 -53 -66 -118q-20 -70 -14 -132q2 -68 33 -133q16 -37 26 -53q14 -23 39 -68q49 -82 72 -124q33 -61 53 -111q25 -63 31 -102 q10 -49 6 -97q-6 -51 -25 -94q-16 -33 -26 -47q-12 -23 -37 -47q-20 -23 -49 -39q-25 -14 -29 -16l-16 -7l-4 -2h-3v-10q6 -72 -14 -131q-6 -18 -33 -67q-20 -33 -36 -50q-37 -41 -91 -59q-49 -23 -104 -25q-55 -4 -104 9q-51 8 -102.5 38.5t-82.5 69.5q-31 41 -43 94 q-10 50 0 111zM102 526q0 -57 21 -123q16 -41 33 -69l30 -53q47 -76 74 -127q45 -86 57 -115q25 -57 35 -105l21 9q31 16 53 37q14 12 35 45q29 47 37 86q10 41 6 86q-2 39 -21 92q-20 59 -45 102l-61 117l-70 119q-16 29 -24 47q-29 63 -39 141q-39 -25 -74 -74 q-37 -53 -55 -116q-13 -48 -13 -99z" />
<glyph unicode="&#xa8;" horiz-adv-x="403" d="M115 1389q-12 27 8 51q25 20 51 10q39 -16 27 -59q-14 -27 -43 -31q-33 0 -43 29zM227 1339q-12 27 9 52q25 20 51 10q39 -16 26 -60q-14 -27 -43 -30q-33 -1 -43 28z" />
<glyph unicode="&#xa9;" horiz-adv-x="1210" d="M43 430q-4 72 12 139q12 66 41 133q20 53 54 109q27 45 69 102q33 41 82 91q43 43 92 79q55 41 99 64q47 27 102 49q53 18 106 31q57 10 105 10q43 0 94 -10q59 -12 111 -43q55 -35 88 -76q41 -47 63.5 -108.5t26.5 -133.5q6 -70 -10 -147q-10 -66 -41 -137 q-16 -43 -54 -111q-29 -47 -67 -100q-45 -55 -82 -92q-43 -43 -92 -80q-53 -39 -99 -66q-47 -27 -102 -49q-53 -18 -106 -31q-57 -10 -105 -10q-63 0 -125 18q-59 16 -106 50q-47 35 -82 82q-33 43 -54 108q-20 61 -20 129zM92 381q10 -68 35 -117q29 -55 72 -94 q43 -37 100 -59q55 -20 121 -21q45 -2 106 8q59 12 107 33q55 23 102 49q53 33 96 68q49 39 91 84q47 51 77 94q33 45 64 104q29 57 49 113q16 61 23 94q14 76 8 137q-6 66 -31 123q-23 53 -63 99q-43 43 -97 63q-47 25 -118 31q-55 2 -111 -6q-57 -10 -105 -27 q-25 -10 -104 -47q-66 -41 -98 -66q-51 -41 -90 -79q-43 -43 -80 -92.5t-68 -104.5q-35 -66 -51 -111q-27 -72 -35 -139q-10 -69 0 -137zM342 535q4 43 23 102q20 55 43 102q31 57 61 95q31 43 74 81q37 31 86 58q63 27 104 22q29 -4 47 -16q20 -16 29 -37q16 -41 6 -94 q-14 -57 -45 -94q-16 -16 -39 -33q-8 -4 -10 -4q-8 -4 -12 -4q-16 -4 -23 10q-8 12 2 27q2 4 10.5 8t10.5 4q23 12 34 35q12 18 23 47q8 29 6 49q0 27 -12 41q-10 16 -39 16q-20 0 -53 -12q-35 -14 -43 -20q-43 -27 -82 -68q-41 -41 -68 -88q-33 -51 -51 -100 q-20 -49 -31 -103q-10 -51 -4 -100q8 -57 43 -84q16 -14 43 -21q18 -6 60 -6q55 2 108 33q41 25 82 65l55 60q10 10 25 6q14 -8 14 -23q0 -6 -8 -18q-8 -8 -10 -12l-29 -29q-39 -43 -72 -65q-51 -37 -94 -50q-59 -18 -119 -10q-53 6 -92 39q-33 31 -47 86q-10 42 -6 105z " />
<glyph unicode="&#xaa;" horiz-adv-x="663" d="M51 193q2 66 47 147q41 84 127 162q68 63 140 98q104 51 204 39q25 -4 37 -8q14 -4 15.5 -19.5t-7 -30t-12.5 -24.5q-29 -66 -80 -160q-8 -16 -28 -49q-18 -37 -23 -49q-20 -61 -27 -94q-8 -53 4.5 -80t49.5 -19q25 4 57 29q39 31 63 60q41 41 152 170q12 12 27.5 3.5 t11.5 -24.5q0 -2 -14 -22q-41 -45 -60 -68q-102 -115 -145 -150q-80 -68 -144 -36q-66 29 -47 143q-72 -90 -141 -127q-94 -45 -156 -4q-51 35 -51 113zM70 -37q0 16 14 23h522q8 0 19 -6q10 -10 4 -27q-6 -12 -23 -12h-500q-20 0 -22 2q-14 8 -14 20zM102 158q8 -35 33 -45 q27 -10 72 2q53 14 115 75q45 45 102 134q10 12 22 41l19 38q10 27 35 76q33 63 63 113q-86 10 -182 -35q-70 -35 -139 -104q-82 -78 -119 -164q-33 -78 -21 -131z" />
<glyph unicode="&#xab;" horiz-adv-x="497" d="M72 350q0 6 6 12l6 11l76 100q27 33 47 66l43 57l33 43q8 8 16 8q25 0 25 -24q0 -4 -5 -13l-10 -14l-82 -109l-88 -120q-12 -16 -20 -25l2 -4l14 -129q4 -53 8 -80l7 -49q0 -31 -25 -31q-10 0 -15.5 6t-6.5 20.5t-3 18.5l-6 66l-16 149q0 2 -3 18.5t-3 22.5zM233 346 q0 10 7 19l22 26q25 37 39 53l94 127q6 6 22.5 33t26.5 35q8 8 17 8q20 0 24 -20q0 -8 -4 -17l-82 -108l-116 -158q-2 0 -2 -4q0 -8 12 -96l8 -82q4 -68 10 -84v-4q0 -27 -24 -27q-18 0 -23 23v8l-14 127l-14 131q-1 6 -3 10z" />
<glyph unicode="&#xac;" d="M2 76v43q0 4 4 4h639v-43q0 -4 -4 -4h-639zM2 608v33q0 14 4 14h324v-39q0 -8 -4 -8h-324zM2 1200v43q0 4 4 4h639v-43q0 -4 -4 -4h-639z" />
<glyph unicode="&#xad;" horiz-adv-x="892" d="M248 537q0 16 14 22h445q10 0 18 -6q10 -10 4 -27q-6 -12 -22 -12h-422q-18 0 -23 2q-14 9 -14 21z" />
<glyph unicode="&#xae;" horiz-adv-x="1177" d="M16 430q-4 72 13 139q12 66 41 133q20 53 53 109q27 45 70 102q33 41 81 91q43 43 93 79q55 41 98 64q47 27 102 49q53 18 107 31q57 10 104 10q43 0 94 -10q57 -12 111 -43q55 -35 88 -76q41 -47 63.5 -108.5t26.5 -133.5q6 -70 -10 -147q-10 -66 -41 -137 q-16 -43 -53 -111q-29 -47 -68 -100q-45 -55 -82 -92q-43 -43 -92 -80q-53 -39 -98 -66q-47 -27 -103 -49q-53 -18 -106 -31q-57 -10 -105 -10q-63 0 -124 18q-59 16 -107 50q-47 35 -82 82q-33 43 -53 108q-21 61 -21 129zM65.5 381q10.5 -68 34.5 -117q29 -55 72 -94 q43 -37 100 -59q55 -20 121 -21q45 -2 107 8q59 12 106 33q55 23 103 49q53 33 96 68q49 39 90 84q47 51 78 94q33 45 63 104q29 57 49 113q16 61 23 94q14 76 8 137q-6 66 -31 123q-23 53 -63 99q-43 43 -96 63q-47 25 -119 31q-55 2 -111 -6q-57 -10 -104 -27 q-25 -10 -105 -47q-66 -41 -98 -66q-51 -41 -90 -79q-43 -43 -80 -92.5t-67 -104.5q-35 -66 -52 -111q-27 -72 -34 -139q-11 -69 -0.5 -137zM309 348l15 37l30 72l27 65l22 58l17 36q2 2 2 5q2 4 2 6q2 0 2 4v4q4 4 4 8q4 4 4 8l31 74l51 125q12 29 16 43l7 14q4 18 -2 25 q-4 2 -15 4q-4 2 -6 2q-20 0 -31 -2q-37 -6 -63 -25q-12 -6 -19 -18l-4 -8q0 -4 -8 -13q-14 -6 -26 0q-12 12 -9 25q4 20 29 45q14 12 51 29q37 12 62 12q33 4 57 -10q20 -10 29 -31q8 -27 -4 -57q2 0 2 2q49 59 102 84q59 29 104 4q29 -18 41 -51q14 -43 5 -93 q-8 -51 -39 -106q-37 -55 -90 -96q-57 -37 -113 -51q-57 -14 -94 -11q2 -4 10 -32q20 -53 67 -101q43 -43 89 -59q53 -16 104 6q39 20 82 70l41 51q8 8 20.5 6t16.5 -10q6 -10 2 -23l-6 -8l-23 -27l-24 -28q-43 -47 -76 -66q-53 -29 -113 -22q-45 2 -100 38q-51 37 -86 91 q-39 53 -53 114q-6 -18 -23 -55l-25 -57l-30 -74l-19 -47q0 -2 -2 -2q-4 -14 -18 -15q-12 -2 -20.5 9.5t-2.5 21.5zM471 621q2 -2 4 -2.5t10 -4.5q6 0 11 -2q37 -2 84 9q59 16 106 53q53 41 82 100q25 53 23 98q0 55 -33 66q-23 8 -58 -10q-16 -6 -30 -19q-29 -23 -62 -63 q-25 -31 -65 -96l-35 -62l-19 -33l-8 -18q-10 -14 -10 -16z" />
<glyph unicode="&#xaf;" horiz-adv-x="743" d="M72 1143q0 16 14 22h522q10 0 19 -6q10 -10 4 -26q-6 -12 -23 -13h-499q-18 0 -23 2q-14 9 -14 21z" />
<glyph unicode="&#xb0;" horiz-adv-x="401" d="M102 1135q27 53 88 53q47 0 76 -35q41 -45 19 -102q-20 -57 -82 -63.5t-94 42.5q-38 50 -7 105zM141 1110q-12 -27 4 -53q18 -25 45 -25q12 0 19 2q29 10 35 39q8 27 -13 51q-20 23 -49 17q-31 -4 -41 -31z" />
<glyph unicode="&#xb1;" horiz-adv-x="307" d="M-403 -385q10 80 81 166q49 61 144 147l80 72l41 37q35 29 37 35l81 209l80 200q-14 -16 -63 -68l-78 -81q-16 -16 -31.5 0t-1.5 33l15 14l92 98l67 74l39 43q8 6 15 22q8 16 10 25l80 195q84 203 114 266q86 170 183 127q39 -18 47 -65.5t-13 -82.5q-23 -49 -61 -106 q-76 -111 -221 -279l-64 -73l-32 -37q-8 -6 -23 -43l-53 -135l-109 -275q72 66 127 123l62 70q6 12 23.5 29.5t33.5 4.5q16 -14 2 -36l-31 -37l-61 -66q-66 -70 -121 -119l-74 -65l-43 -103l-77 -176q-41 -86 -72 -135q-35 -59 -62 -90q-47 -51 -96 -45q-43 6 -59 45t-8 82z M-358 -393q-4 -39 8 -60q16 -25 51 -4q18 8 49 49q27 39 55 95q53 100 132 282q-170 -150 -238 -237q-49 -64 -57 -125zM281 707q113 127 182 219q90 121 112 176q23 49 -2 76q-29 31 -77 -15q-35 -35 -76 -124.5t-139 -331.5z" />
<glyph unicode="&#xb2;" horiz-adv-x="442" d="M43 731q4 8 8 10l6 4l29 15q35 16 72 41q47 33 73 59q39 39 64 82q29 53 37 111q12 74 -37 100q-53 33 -115 -29q-23 -27 -24 -45v-8v-4q8 -12 -2 -27q-12 -12 -25 -6q-12 4 -16 19q-8 23 2 51q23 59 86 90q33 14 61 14q31 0 57.5 -14t42.5 -45q14 -27 16.5 -55.5 t-3.5 -63.5q-12 -66 -45 -119q-25 -43 -70 -88q-37 -33 -80 -61q4 -2 13 -2q61 -10 71 -10q18 0 29 4q2 0 10 4l10 8q14 8 27 -4q10 -14 4 -27l-12 -12q-6 -6 -13 -8q-16 -8 -26 -10q-23 -2 -64 2q-45 8 -69 10q-43 4 -62 -4l-12 -8h-4l-4 -3q-4 0 -4 -2q-14 -6 -25 5 q-12 10 -6 26z" />
<glyph unicode="&#xb3;" horiz-adv-x="483" d="M31 793q8 14 22 12q12 0 21 -14q0 -6 4 -11q0 -4 6 -10q14 -16 49 -25q23 -8 55 -4q61 4 99 41q20 18 35 54q14 33 12 59q-4 33 -31 45l-2 2h-4h-4q-4 0 -6 -2q-4 0 -10.5 -1t-8.5 -1q-23 -4 -32 -2q-35 4 -37 31q-6 20 10 26q6 2 12 0q8 0 15 -6l4 -4q2 -2 8 -2 q18 0 33 6q29 6 55 27q25 20 41 43q18 25 20 47q2 14 0 26.5t-14 24.5q-23 16 -53 16q-37 0 -68 -12l-22 -12q-8 -4 -11 -8v4q-4 -18 -14 -23q-10 -6 -24.5 2t-4.5 33q8 20 39 37q47 25 103 25q66 0 96 -39q20 -20 20 -56q2 -25 -12 -61q-29 -59 -86 -94q16 -16 25 -35 q18 -39 4 -86q-8 -29 -29 -64q-14 -25 -37 -43q-39 -33 -94 -43q-59 -6 -102 6q-63 20 -80 64q-6 15 -2 27zM238 981q4 -4 4 -16q2 4 2 10q0 2 -2 2q0 4 -4 4z" />
<glyph unicode="&#xb4;" horiz-adv-x="352" d="M90 1329q0 12 8 19l4 4q2 0 9.5 6t11.5 8l61 49l39 31q12 8 27 2q14 -10 10 -25q-2 -10 -8 -14l-6 -4q-2 -2 -21.5 -16.5l-29.5 -22.5q-18 -16 -56 -45l-12 -8q-8 -8 -22.5 -4t-14.5 20z" />
<glyph unicode="&#xb5;" horiz-adv-x="610" d="M59 88l52 127l172 408l135 329q33 78 47 117q35 86 14 109q-16 20 -61 24q-43 2 -99 -14q-49 -14 -81 -39q-37 -29 -43 -51q-8 -25 -27 -23q-25 4 -21 25q2 29 37 63q51 51 140 74q119 31 178 -14q53 -43 20 -131q-37 -100 -92 -232l-143 -344l-154 -369l-29 -67 q0 -2 -4 -10q-8 -20 -28.5 -11t-12.5 29z" />
<glyph unicode="&#x3bc;" horiz-adv-x="610" d="M59 88l52 127l172 408l135 329q33 78 47 117q35 86 14 109q-16 20 -61 24q-43 2 -99 -14q-49 -14 -81 -39q-37 -29 -43 -51q-8 -25 -27 -23q-25 4 -21 25q2 29 37 63q51 51 140 74q119 31 178 -14q53 -43 20 -131q-37 -100 -92 -232l-143 -344l-154 -369l-29 -67 q0 -2 -4 -10q-8 -20 -28.5 -11t-12.5 29z" />
<glyph unicode="&#xb6;" d="M2 76v43q0 4 4 4h639v-43q0 -4 -4 -4h-639zM2 608v33q0 14 4 14h324v-39q0 -8 -4 -8h-324zM2 1200v43q0 4 4 4h639v-43q0 -4 -4 -4h-639z" />
<glyph unicode="&#xb7;" horiz-adv-x="284" d="M174 614q0 18 13.5 31.5t31.5 13.5q20 0 33.5 -13t13.5 -32q0 -20 -13 -33.5t-34 -13.5q-18 0 -31.5 13.5t-13.5 33.5z" />
<glyph unicode="&#xb8;" horiz-adv-x="389" d="M45 -186q6 12 23 12q2 -2 8 -2q2 -2 6 -2q6 0 37 6q43 16 96 49l45 37q25 23 41 47q8 16 8 27q0 12 -4 16q-8 4 -16 4q-12 4 -25 0q-35 -4 -63 -12q-20 -8 -29 -6q-16 6 -16 24q0 8 8 17q6 6 14 18l94 115l15 20l8 9q12 12 27 4q16 -8 12 -27q-4 -8 -8 -10l-9 -13 l-75 -94q41 4 63 0q29 -8 41 -28q10 -16 10 -35q0 -23 -14 -47q-14 -29 -37 -49q-47 -47 -94 -72q-45 -31 -100 -43q-29 -4 -43 0q-12 0 -21 8q-10 13 -2 27z" />
<glyph unicode="&#xb9;" horiz-adv-x="335" d="M59 690q-6 10 0 23q0 2 1 5t1 5l19 41l24 63l31 74l29 74l26 65q12 33 21 47l6 19h-2l-2 -2q-12 -4 -25 8q-8 16 0 27q4 6 11 10l14 6l33 16q4 4 10 5h4h4q6 0 8 -2l7 -5q0 -2 4 -6q4 -10 0 -20l-13 -27l-20 -51l-27 -66l-28 -73l-31 -76q-10 -23 -27 -68l-22 -53 l-13 -31l-2 -4q-4 -14 -18 -14q-17 -4 -23 10z" />
<glyph unicode="&#xba;" horiz-adv-x="591" d="M25 -26.5q0 14.5 14 22.5h522q8 0 19 -6q10 -10 4 -27q-6 -12 -23 -12h-500q-20 0 -22 2q-14 6 -14 20.5zM88 279q27 145 143 268q31 31 66 59q35 20 37 21q23 -4 22 -25q-2 -10 -26 -31q-18 -12 -33 -26q-35 -29 -61 -62q-57 -74 -80 -139q-29 -74 -27 -129 q2 -43 26.5 -72.5t65.5 -23.5q80 10 162 100q-92 84 -33 273q29 94 78 126q33 25 68.5 19t54.5 -41q43 -76 2 -188q-29 -90 -98 -177q59 -23 125 19q39 27 69 59l43 45q18 27 37 11q10 -10 8 -21.5t-11 -21t-15 -17.5l-56 -55q-59 -51 -104 -66q-41 -10 -72 -6q-25 4 -37 8 t-18 9l-18 -19q-78 -82 -158 -100q-45 -10 -85 5t-61 54q-28 56 -14 144zM379 416q-16 -111 35 -162q33 43 55 82q63 104 55 192q-4 49 -26 62q-25 10 -54 -19q-49 -53 -65 -155z" />
<glyph unicode="&#xbb;" horiz-adv-x="417" d="M-18 98q0 4 4 8l6 11l33 47l47 67l45 66l33 47q0 2 4 6l2 2q-4 12 -4 17l-17 61l-20 80l-19 72q-8 25 -10 36q-2 10 5 19.5t18 9.5q16 0 20 -14l2 -4q2 -12 10 -37l17 -70q10 -33 20 -78q14 -51 17 -63l8 -27q4 -10 -4 -18l-15 -23l-34 -51l-46 -65q-4 -6 -45 -64 l-30 -43l-6 -10q-10 -18 -31 -8q-16 8 -10 26zM139 90l6 10l29 41l43 64l47 67l37 54l10 14v4v4q-4 12 -14 53l-21 80l-20 76l-12 47q-4 10 0 21q10 14 24 12q14 0 19 -16l10 -35l16 -68q8 -25 21 -78l18 -65q4 -20 8 -31q0 -12 -6 -20l-6 -13l-33 -45l-43 -63l-45 -66 q-25 -33 -34 -51l-11 -12q-4 -8 -8 -11q-12 -10 -24 -2q-19 11 -11 29z" />
<glyph unicode="&#xbc;" horiz-adv-x="1036" d="M-45 106q0 6 8 19q2 0 2 2q6 4 10 10l19 17l22 24l31 29l35 35l41 39l141 141l55 53l56 55l57 56l57 57l58 57l59 58l58 57l55 55q29 25 53 54l53 49l47 49l46 43l40 41l37 35l74 73l10 13l4 2q10 14 25 6q14 -6 14 -23q0 -10 -6 -16l-6 -6l-14 -12l-21 -21l-26 -27 l-33 -32l-37 -37l-43 -41l-94 -94l-54 -52l-53 -55l-114 -110l-60 -60l-57 -57l-58 -55l-57 -58l-55 -53l-53 -53l-50 -49l-47 -45l-82 -82l-32 -33l-29 -27l-23 -22l-14 -15l-8 -8v-2q-10 -10 -25 -4q-16 4 -16 20zM227 674q-6 10 0 22q0 2 1 5.5t1 5.5l19 41l24 63l31 74 l29 73l26 66q12 33 21 47l6 19h-2l-2 -3q-12 -4 -25 9q-8 16 0 26q4 6 11 11l14 6l33 16q4 4 10 4h4h4q6 0 8 -2l6 -4q0 -2 5 -6q4 -10 0 -21l-13 -26l-20 -51l-27 -66l-29 -74l-30 -75q-10 -23 -27 -68l-22 -53l-13 -31l-2 -4q-4 -14 -18 -14q-17 -4 -23 10zM539 317 q-4 6 0 14.5t8 12.5l16 12q39 33 41 35l58 49l61 52l59 49l45 37l21 18l8 4q10 4 16 -2q4 0 9 -4l4 -6q4 -10 0 -19l-2 -4l-21 -47l-31 -74l-28 -65l-12 -29h32q16 0 19 -12q6 -12 -2 -25l-11 -8h-12q-12 -2 -35 -2h-10q0 -2 -2 -2q0 -4 -4 -12l-27 -60l-30 -73l-23 -56 l-4 -8q-6 -14 -18 -14q-16 0 -23 12q-6 8 -2 21l2 2q2 4 5 11t3 9l29 66l29 69l14 33h-162q-16 0 -20 16zM623 346q10 0 29.5 1t27.5 1h61l17 39l30 74l17 39l-43 -35l-60 -51l-55 -47q-16 -13 -24 -21z" />
<glyph unicode="&#xbd;" horiz-adv-x="1048" d="M-45 106q0 6 8 19q2 0 2 2q6 4 10 10l19 17l22 24l31 29l35 35l41 39l141 141l55 53l56 55l57 56l57 57l58 57l59 58l58 57l55 55q29 25 53 54l53 49l47 49l46 43l40 41l37 35l74 73l10 13l4 2q10 14 25 6q14 -6 14 -23q0 -10 -6 -16l-6 -6l-14 -12l-21 -21l-26 -27 l-33 -32l-37 -37l-43 -41l-94 -94l-54 -52l-53 -55l-114 -110l-60 -60l-57 -57l-58 -55l-57 -58l-55 -53l-53 -53l-50 -49l-47 -45l-82 -82l-32 -33l-29 -27l-23 -22l-14 -15l-8 -8v-2q-10 -10 -25 -4q-16 4 -16 20zM246 700q-6 10 0 23q0 2 1 5t1 5l18 41l25 64l31 73 l28 74l27 66q12 33 20 47l6 18q-2 0 -2 -1t-2 -1q-12 -4 -24 8q-8 16 0 27q4 6 10 10l14 6l33 17q4 4 10 4h4h5q6 0 8 -2l6 -4q0 -2 4 -6q4 -10 0 -21l-12 -27l-21 -51l-26 -65l-29 -74l-31 -76q-10 -23 -26 -67l-23 -54l-12 -30l-2 -4q-4 -14 -19 -15q-16 -4 -22 10z M578 123q4 8 8 10l6 4l29 15q35 16 71 41q47 33 74 59q39 39 63 82q27 51 37 110q12 74 -37 101q-53 33 -114 -29q-23 -27 -25 -45v-8v-4q8 -12 -2 -27q-12 -12 -24 -6q-12 4 -17 18q-8 23 2 52q23 59 86 90q33 14 62 14q31 0 57.5 -14.5t42.5 -44.5q14 -27 16 -55.5 t-4 -63.5q-12 -66 -45 -119q-25 -43 -69 -88q-37 -35 -80 -61q4 -2 12 -2q61 -10 72 -11q18 0 28 4q2 0 11 5l10 8q14 8 26 -4q10 -14 5 -27l-13 -12q-6 -6 -12 -9q-16 -8 -27 -10q-20 -2 -63 2q-45 8 -70 11q-43 4 -61 -5l-12 -8q-2 0 -7 -2h-2q-4 0 -4 -2q-14 -6 -24 4 q-12 11 -6 27z" />
<glyph unicode="&#xbe;" horiz-adv-x="1116" d="M-6 106q0 6 8 19q2 0 2 2q6 4 10 10l19 17l22 24l31 29l35 35l41 39l141 141l55 53l56 55l57 56l57 57l58 57l59 58l57 57l56 55q29 25 53 54l53 49l47 49l45 43l41 41l37 35l74 73l10 13l4 2q10 14 25 6q14 -6 14 -23q0 -10 -6 -16l-6 -6l-14 -12l-21 -21l-27 -27 l-32 -32l-37 -37l-43 -41l-94 -94l-54 -52l-53 -55l-115 -110l-59 -60l-57 -57l-58 -55l-57 -58l-55 -53l-54 -53l-49 -49l-47 -45l-82 -82l-32 -33l-29 -27l-23 -22l-14 -15l-8 -8v-2q-10 -10 -25 -4q-16 4 -16 20zM86 745q8 14 23 13q14 0 20 -15q0 -6 4 -10q0 -4 6 -10 q14 -16 49 -25q23 -8 56 -4q61 4 98 41q20 18 35 53q14 33 12 60q-4 33 -31 45h-2l-4 2h-4q-4 0 -6 -2q-2 0 -8 -1t-10 -1q-23 -4 -33 -2q-35 4 -37 31q-6 20 10 26q6 4 12 0q8 0 15 -6l4 -4q2 -2 8 -2q16 0 33 6q29 6 55 27q25 20 41 43q18 25 21 47q2 14 0 26.5t-15 24.5 q-23 16 -53 16q-37 0 -68 -12l-22 -12q-8 -4 -10 -8v4q-4 -18 -15 -23q-10 -8 -24 2q-14 8 -4 33q8 20 39 37q47 25 102 24q66 0 96 -39q20 -20 21 -55q2 -25 -13 -61q-29 -59 -86 -94q16 -16 25 -35q18 -39 4 -86q-8 -29 -29 -64q-16 -25 -36 -43q-39 -33 -95 -43 q-59 -6 -102 6q-63 20 -80 64q-6 14 -2 26zM293 934q4 -4 4 -16q2 4 2 10q0 2 -2 2q0 4 -4 4zM602 324q-4 8 0 14q4 8 8 12l17 12q39 33 41 35l57 49l61 52l60 49l45 37l20 18l9 4q10 4 16 -2q4 0 8 -4l4 -6q2 -8 0 -19l-2 -4l-20 -47l-31 -73l-29 -66l-12 -29h33 q14 0 18 -12q6 -12 -2 -25l-10 -8h-12q-12 -2 -35 -2h-10q0 -2 -2 -2q0 -4 -5 -12l-26 -59l-31 -74l-22 -56l-5 -8q-8 -14 -18 -14q-16 0 -22 12q-6 8 -3 21l3 2q2 4 5 11t3 9l28 66l29 69l14 33h-161q-17 1 -21 17zM686 352q10 0 28.5 1t28.5 1h62l16 39l31 74l16 39 l-43 -35l-59 -51l-55 -47q-17 -13 -25 -21z" />
<glyph unicode="&#xbf;" horiz-adv-x="870" d="M100 -90q-25 125 74 272q51 76 119 137q29 27 84 70l72 57q86 76 126 138q14 23 33 4q16 -12 4 -33q-25 -37 -57 -70q-43 -47 -148.5 -132t-150.5 -138q-111 -129 -113 -254q-4 -74 45 -117q63 -53 164 -34q80 16 146.5 80.5t103.5 148.5q10 31 16 53q0 20 19 27 q23 4 27 -19q2 -12 -9 -51q-14 -39 -28 -63q-43 -82 -114 -143.5t-155 -78.5q-100 -18 -172 25q-70 41 -86 121zM713 885q0 39 39 39q16 0 26 -11.5t10 -28t-11 -26.5t-25 -10q-16 0 -27.5 10.5t-11.5 26.5z" />
<glyph unicode="&#xc0;" horiz-adv-x="995" d="M68 469q37 168 153 336q217 319 529 414q98 29 180 30q104 0 155 -22q45 -23 48 -39q0 -18 -13 -25l-73 -176l-146 -344q-70 -158 -84 -194q-47 -113 -67 -183q-27 -88 -19 -129q4 -23 17 -33q23 -16 57 -8q41 8 106 62q78 68 193 204q8 10 21.5 8.5t17.5 -14t-17 -39.5 l-59 -69q-76 -86 -147 -142q-66 -49 -121 -57q-37 -4 -68 12.5t-41 51.5q-16 49 8 137q16 63 66 190q-88 -119 -168 -196q-158 -154 -293 -176q-86 -14 -147 26q-59 39 -84 115q-37 108 -4 260zM100 291q8 -72 45 -124t103 -56q51 -2 102 16q104 39 236 170q115 121 202 258 q70 102 91 156l69 161l129 308l-10 4q-10 4 -22.5 7t-14.5 3q-39 8 -90 8q-37 0 -74 -6q-113 -14 -221 -70q-150 -72 -272 -204q-145 -156 -221 -342q-64 -154 -52 -289zM963 1438q-4 14 10 24q12 6 26 -2l39 -30l62 -50q4 -2 11 -8t9 -6l4 -4q8 -6 9 -19q0 -16 -14.5 -20 t-22.5 4l-13 8q-37 29 -55 45l-29.5 22.5t-21.5 16.5l-6 4q-4 7 -8 15z" />
<glyph unicode="&#xc1;" horiz-adv-x="995" d="M68 469q37 168 153 336q217 319 529 414q98 29 180 30q104 0 155 -22q45 -23 48 -39q0 -18 -13 -25l-73 -176l-146 -344q-70 -158 -84 -194q-47 -113 -67 -183q-27 -88 -19 -129q4 -23 17 -33q23 -16 57 -8q41 8 106 62q78 68 193 204q8 10 21.5 8.5t17.5 -14t-17 -39.5 l-59 -69q-76 -86 -147 -142q-66 -49 -121 -57q-37 -4 -68 12.5t-41 51.5q-16 49 8 137q16 63 66 190q-88 -119 -168 -196q-158 -154 -293 -176q-86 -14 -147 26q-59 39 -84 115q-37 108 -4 260zM100 291q8 -72 45 -124t103 -56q51 -2 102 16q104 39 236 170q115 121 202 258 q70 102 91 156l69 161l129 308l-10 4q-10 4 -22.5 7t-14.5 3q-39 8 -90 8q-37 0 -74 -6q-113 -14 -221 -70q-150 -72 -272 -204q-145 -156 -221 -342q-64 -154 -52 -289zM1010 1319q0 12 8 18l4 4q2 0 9 6.5t11 8.5l62 49l39 31q12 10 26 2q14 -10 11 -25q-4 -8 -9 -14 l-6 -4q-2 -2 -21.5 -16.5l-29.5 -22.5q-18 -16 -55 -45l-12 -8q-8 -8 -22.5 -4t-14.5 20z" />
<glyph unicode="&#xc2;" horiz-adv-x="995" d="M68 469q37 168 153 336q217 319 529 414q98 29 180 30q104 0 155 -22q45 -23 48 -39q0 -18 -13 -25l-73 -176l-146 -344q-70 -158 -84 -194q-47 -113 -67 -183q-27 -88 -19 -129q4 -23 17 -33q23 -16 57 -8q41 8 106 62q78 68 193 204q8 10 21.5 8.5t17.5 -14t-17 -39.5 l-59 -69q-76 -86 -147 -142q-66 -49 -121 -57q-37 -4 -68 12.5t-41 51.5q-16 49 8 137q16 63 66 190q-88 -119 -168 -196q-158 -154 -293 -176q-86 -14 -147 26q-59 39 -84 115q-37 108 -4 260zM100 291q8 -72 45 -124t103 -56q51 -2 102 16q104 39 236 170q115 121 202 258 q70 102 91 156l69 161l129 308l-10 4q-10 4 -22.5 7t-14.5 3q-39 8 -90 8q-37 0 -74 -6q-113 -14 -221 -70q-150 -72 -272 -204q-145 -156 -221 -342q-64 -154 -52 -289zM969 1393q-8 16 6 26q0 2 2 2l4 2l20 11q25 10 70 32l23 11l8 4q16 4 26 -13q2 0 2 -4 q6 -8 17.5 -28.5t19.5 -30.5l29 -47q4 -10 2 -17q-4 -18 -20 -18q-14 0 -21 10l-4 8q-14 25 -47 74l-4 8q-2 2 -2 4h-4q-4 -2 -9.5 -6t-7.5 -4q-27 -10 -45 -20q-27 -10 -33 -15l-8 -4q-18 1 -24 15z" />
<glyph unicode="&#xc3;" horiz-adv-x="995" d="M68 469q37 168 153 336q217 319 529 414q98 29 180 30q104 0 155 -22q45 -23 48 -39q0 -18 -13 -25l-73 -176l-146 -344q-70 -158 -84 -194q-47 -113 -67 -183q-27 -88 -19 -129q4 -23 17 -33q23 -16 57 -8q41 8 106 62q78 68 193 204q8 10 21.5 8.5t17.5 -14t-17 -39.5 l-59 -69q-76 -86 -147 -142q-66 -49 -121 -57q-37 -4 -68 12.5t-41 51.5q-16 49 8 137q16 63 66 190q-88 -119 -168 -196q-158 -154 -293 -176q-86 -14 -147 26q-59 39 -84 115q-37 108 -4 260zM100 291q8 -72 45 -124t103 -56q51 -2 102 16q104 39 236 170q115 121 202 258 q70 102 91 156l69 161l129 308l-10 4q-10 4 -22.5 7t-14.5 3q-39 8 -90 8q-37 0 -74 -6q-113 -14 -221 -70q-150 -72 -272 -204q-145 -156 -221 -342q-64 -154 -52 -289zM946 1362q-4 6 0 22q8 20 17 31q8 23 24 37q20 16 37 18q25 6 51 -16q18 -18 25 -43q4 -12 10 -32.5 t8 -24.5q4 -14 15 -25q8 -8 22 2q12 6 37 37q4 6 6 8l6 13q16 8 27 0q8 -4 12 -21l-6 -14q-18 -25 -20 -27q-10 -16 -35 -35q-33 -18 -56 -10q-31 8 -45 41q-4 8 -20 63q-2 4 -5 12.5t-5 12.5q-8 12 -13 12h-10q0 2 -2 0l-4 -4l-16 -18q-14 -23 -19 -35q-4 -10 -6 -10 q-6 -6 -14 -6q-15 0 -21 12z" />
<glyph unicode="&#xc4;" horiz-adv-x="995" d="M68 469q37 168 153 336q217 319 529 414q98 29 180 30q104 0 155 -22q45 -23 48 -39q0 -18 -13 -25l-73 -176l-146 -344q-70 -158 -84 -194q-47 -113 -67 -183q-27 -88 -19 -129q4 -23 17 -33q23 -16 57 -8q41 8 106 62q78 68 193 204q8 10 21.5 8.5t17.5 -14t-17 -39.5 l-59 -69q-76 -86 -147 -142q-66 -49 -121 -57q-37 -4 -68 12.5t-41 51.5q-16 49 8 137q16 63 66 190q-88 -119 -168 -196q-158 -154 -293 -176q-86 -14 -147 26q-59 39 -84 115q-37 108 -4 260zM100 291q8 -72 45 -124t103 -56q51 -2 102 16q104 39 236 170q115 121 202 258 q70 102 91 156l69 161l129 308l-10 4q-10 4 -22.5 7t-14.5 3q-39 8 -90 8q-37 0 -74 -6q-113 -14 -221 -70q-150 -72 -272 -204q-145 -156 -221 -342q-64 -154 -52 -289zM1030 1352q-12 27 8 51q25 20 52 10q39 -16 26 -59q-14 -27 -43 -31q-33 0 -43 29zM1143 1303 q-12 27 8 51q25 20 51 10q39 -16 27 -59q-14 -27 -43 -31q-33 0 -43 29z" />
<glyph unicode="&#xc5;" horiz-adv-x="995" d="M68 469q37 168 153 336q217 319 529 414q98 29 180 30q104 0 155 -22q45 -23 48 -39q0 -18 -13 -25l-73 -176l-146 -344q-70 -158 -84 -194q-47 -113 -67 -183q-27 -88 -19 -129q4 -23 17 -33q23 -16 57 -8q41 8 106 62q78 68 193 204q8 10 21.5 8.5t17.5 -14t-17 -39.5 l-59 -69q-76 -86 -147 -142q-66 -49 -121 -57q-37 -4 -68 12.5t-41 51.5q-16 49 8 137q16 63 66 190q-88 -119 -168 -196q-158 -154 -293 -176q-86 -14 -147 26q-59 39 -84 115q-37 108 -4 260zM100 291q8 -72 45 -124t103 -56q51 -2 102 16q104 39 236 170q115 121 202 258 q70 102 91 156l69 161l129 308l-10 4q-10 4 -22.5 7t-14.5 3q-39 8 -90 8q-37 0 -74 -6q-113 -14 -221 -70q-150 -72 -272 -204q-145 -156 -221 -342q-64 -154 -52 -289zM1006 1384q27 53 88 54q47 0 75 -35q41 -45 19 -103q-20 -57 -82 -63t-94 43q-37 49 -6 104z M1044 1360q-12 -27 5 -53q18 -25 45 -25q12 0 18 2q29 10 35 39q8 27 -12 51q-20 23 -50 17q-31 -4 -41 -31z" />
<glyph unicode="&#xc6;" horiz-adv-x="1802" d="M68 469q37 168 153 336q217 319 529 414q98 29 180 30q104 0 155 -22q45 -23 48 -39q0 -18 -13 -25l-73 -176l-146 -344q-70 -158 -84 -194q-47 -113 -67 -183q-27 -88 -19 -129q4 -23 17 -33q23 -16 57 -8q41 8 106 62q59 51 125 127q14 125 119 229q115 121 305 172 q-70 106 -65 236q4 201 147 286q74 41 168 35q96 -8 150 -53q33 -29 41 -64q8 -25 -5 -34q-18 -14 -32 2q-4 4 -7.5 16t-5.5 16q-6 16 -22 29q-31 25 -74 35q-88 23 -164 -10q-78 -29 -118 -117q-39 -80 -32 -176t54 -172q10 -16 16 -17q16 4 25 4q8 2 25.5 4.5t19.5 2.5 q51 0 76 -7q72 -14 78 -63q6 -41 -36 -54.5t-85 -6.5q-53 10 -84 36q-18 10 -37 33l-45 -12q-182 -55 -289 -182q-37 -47 -53 -88q8 8 20.5 5t16.5 -14q4 -12 -17 -39l-45 -51q-4 -94 49 -155q76 -94 244 -74q139 18 275 96q158 90 260 229q10 14 26.5 7t14.5 -23 q-2 -8 -17 -29l-22 -26q-47 -55 -99 -98q-111 -94 -231 -148q-160 -70 -301 -55q-90 10 -150 55q-61 47 -86 135q-4 10 -8 35q-70 -72 -116 -109q-66 -49 -121 -57q-37 -4 -68 12.5t-41 51.5q-16 49 8 137q16 63 66 190q-88 -119 -168 -196q-158 -154 -293 -176 q-86 -14 -147 26q-59 39 -84 115q-37 108 -4 260zM100 291q8 -72 45 -124t103 -56q51 -2 102 16q104 39 236 170q115 121 202 258q70 102 91 156l69 161l129 308l-10 4q-10 4 -22.5 7t-14.5 3q-39 8 -90 8q-37 0 -74 -6q-113 -14 -221 -70q-150 -72 -272 -204 q-145 -156 -221 -342q-64 -154 -52 -289zM1546 657q43 -35 99 -36q4 0 15 1t21.5 5t6.5 10q-8 16 -39 20q-44 10 -103 0z" />
<glyph unicode="&#xc7;" horiz-adv-x="735" d="M55 416q14 141 76 282q61 145 158 273q104 131 219 205q66 41 125 57q86 29 149 8q92 -31 101 -147q12 -147 -95 -263q-10 -12 -31.5 -30.5t-48 -28.5t-34.5 12q-4 12 2 20.5t23.5 15.5t19.5 9q31 25 49 48q45 53 61 131q18 76 -2 131q-45 115 -233 30 q-117 -51 -227 -176q-104 -121 -172 -264q-70 -143 -91 -285q-18 -156 27 -249q31 -63 94 -95q66 -33 166 -28q145 8 281 118q70 57 172 175q16 16 32.5 -0.5t2.5 -32.5l-27 -27q-104 -119 -193 -180q-119 -84 -241 -96l-2 -2l-8 -13l-76 -94q41 4 63 0q29 -6 41 -29 q10 -16 10 -34q0 -23 -14 -47q-14 -27 -37 -50q-47 -47 -94 -71q-45 -31 -100 -43q-29 -4 -43 0q-12 0 -21 8q-10 12 -2 27q6 12 23 12q2 -2 8 -2q2 -2 6 -2q6 0 37 6q43 16 96 49l45 37q25 23 41 47q8 16 8 27q0 12 -4 16q-8 4 -16 4q-12 2 -25 0q-35 -4 -63 -12 q-20 -8 -29 -6q-16 6 -16 24q0 8 8 17q6 6 14 18l47 57q12 20 43 54q-172 4 -247 112q-70 103 -56 277z" />
<glyph unicode="&#xc8;" horiz-adv-x="806" d="M49 180q-23 88 10 177t101 157q115 121 305 172q-70 106 -66 236q4 201 148 286q74 41 168 35q96 -8 149 -53q33 -29 41 -64q8 -25 -4 -34q-18 -14 -33 2q-4 4 -7 16t-5 16q-6 16 -22 29q-31 25 -74 35q-88 23 -164 -10q-78 -29 -119 -117q-39 -80 -31.5 -176t54.5 -172 q10 -16 16 -17q16 4 25 4q8 2 25.5 4.5t19.5 2.5q51 0 76 -7q72 -14 77 -63q6 -41 -35.5 -54.5t-85.5 -6.5q-53 10 -83 36q-18 10 -37 33l-45 -12q-182 -55 -289 -182q-63 -80 -74 -160q-16 -106 45 -182q76 -94 244 -74q139 18 274 96q158 90 260 229q10 14 26.5 7 t14.5 -23q-2 -8 -16 -29l-23 -26q-47 -55 -98 -98q-111 -94 -231 -148q-160 -70 -301 -55q-90 10 -150 55q-61 47 -86 135zM551 657q43 -35 98 -36q4 0 15.5 1t21.5 5t6 10q-8 16 -39 20q-43 10 -102 0zM776 1395q-4 14 10 24q12 6 27 -2l39 -31l61 -49q4 -2 11.5 -8t9.5 -6 l4 -4q8 -6 8 -19q0 -16 -14 -20t-23 4l-12 8q-37 29 -55 45l-29.5 22.5t-21.5 16.5l-7 4q-6 7 -8 15z" />
<glyph unicode="&#xc9;" horiz-adv-x="806" d="M49 180q-23 88 10 177t101 157q115 121 305 172q-70 106 -66 236q4 201 148 286q74 41 168 35q96 -8 149 -53q33 -29 41 -64q8 -25 -4 -34q-18 -14 -33 2q-4 4 -7 16t-5 16q-6 16 -22 29q-31 25 -74 35q-88 23 -164 -10q-78 -29 -119 -117q-39 -80 -31.5 -176t54.5 -172 q10 -16 16 -17q16 4 25 4q8 2 25.5 4.5t19.5 2.5q51 0 76 -7q72 -14 77 -63q6 -41 -35.5 -54.5t-85.5 -6.5q-53 10 -83 36q-18 10 -37 33l-45 -12q-182 -55 -289 -182q-63 -80 -74 -160q-16 -106 45 -182q76 -94 244 -74q139 18 274 96q158 90 260 229q10 14 26.5 7 t14.5 -23q-2 -8 -16 -29l-23 -26q-47 -55 -98 -98q-111 -94 -231 -148q-160 -70 -301 -55q-90 10 -150 55q-61 47 -86 135zM551 657q43 -35 98 -36q4 0 15.5 1t21.5 5t6 10q-8 16 -39 20q-43 10 -102 0zM778 1292q0 12 8 19l5 4q2 0 9 6t11 8l61 49l39 31q12 8 27 2 q14 -10 10 -25q-2 -10 -8 -14l-6 -4q-2 -2 -21.5 -16.5l-29.5 -22.5q-18 -16 -56 -45l-12 -8q-8 -8 -22.5 -4t-14.5 20z" />
<glyph unicode="&#xca;" horiz-adv-x="806" d="M49 180q-23 88 10 177t101 157q115 121 305 172q-70 106 -66 236q4 201 148 286q74 41 168 35q96 -8 149 -53q33 -29 41 -64q8 -25 -4 -34q-18 -14 -33 2q-4 4 -7 16t-5 16q-6 16 -22 29q-31 25 -74 35q-88 23 -164 -10q-78 -29 -119 -117q-39 -80 -31.5 -176t54.5 -172 q10 -16 16 -17q16 4 25 4q8 2 25.5 4.5t19.5 2.5q51 0 76 -7q72 -14 77 -63q6 -41 -35.5 -54.5t-85.5 -6.5q-53 10 -83 36q-18 10 -37 33l-45 -12q-182 -55 -289 -182q-63 -80 -74 -160q-16 -106 45 -182q76 -94 244 -74q139 18 274 96q158 90 260 229q10 14 26.5 7 t14.5 -23q-2 -8 -16 -29l-23 -26q-47 -55 -98 -98q-111 -94 -231 -148q-160 -70 -301 -55q-90 10 -150 55q-61 47 -86 135zM551 657q43 -35 98 -36q4 0 15.5 1t21.5 5t6 10q-8 16 -39 20q-43 10 -102 0zM739 1323q-8 16 6 27q0 2 3 2l4 2l20 10q25 10 70 33l22 10l8 4 q16 4 27 -12q2 0 2 -4q6 -8 17.5 -28.5t19.5 -31.5l29 -47q4 -10 2 -16q-4 -18 -21 -19q-14 0 -20 11l-4 8q-14 25 -47 74l-5 8q-2 2 -2 4h-4q-4 -2 -9 -6t-7 -4q-27 -10 -45 -21q-27 -10 -33 -14l-8 -4q-19 0 -25 14z" />
<glyph unicode="&#xcb;" horiz-adv-x="806" d="M49 180q-23 88 10 177t101 157q115 121 305 172q-70 106 -66 236q4 201 148 286q74 41 168 35q96 -8 149 -53q33 -29 41 -64q8 -25 -4 -34q-18 -14 -33 2q-4 4 -7 16t-5 16q-6 16 -22 29q-31 25 -74 35q-88 23 -164 -10q-78 -29 -119 -117q-39 -80 -31.5 -176t54.5 -172 q10 -16 16 -17q16 4 25 4q8 2 25.5 4.5t19.5 2.5q51 0 76 -7q72 -14 77 -63q6 -41 -35.5 -54.5t-85.5 -6.5q-53 10 -83 36q-18 10 -37 33l-45 -12q-182 -55 -289 -182q-63 -80 -74 -160q-16 -106 45 -182q76 -94 244 -74q139 18 274 96q158 90 260 229q10 14 26.5 7 t14.5 -23q-2 -8 -16 -29l-23 -26q-47 -55 -98 -98q-111 -94 -231 -148q-160 -70 -301 -55q-90 10 -150 55q-61 47 -86 135zM551 657q43 -35 98 -36q4 0 15.5 1t21.5 5t6 10q-8 16 -39 20q-43 10 -102 0zM756 1331q-12 27 8 51q25 20 51 11q39 -16 27 -60q-14 -27 -43 -30 q-33 -1 -43 28zM868 1282q-12 27 9 51q25 20 51 10q39 -16 26 -59q-14 -27 -43 -31q-33 0 -43 29z" />
<glyph unicode="&#xcc;" horiz-adv-x="665" d="M-82 223q0 45 23 84q16 20 34 10q18 -14 7 -32q-23 -37 -17 -80t37 -74q39 -39 96.5 -46t108.5 8.5t100 45.5q39 25 82 62l23 20q6 6 6 10v5q-2 4 -2 6q-2 14 -2 45q-2 61 4 139q14 141 57 301q41 160 103 285q66 135 135 188q35 29 75 35q37 6 65 -14.5t38 -57.5 q20 -78 -19 -227q-37 -135 -114 -293q-80 -164 -178 -297q-49 -63 -107 -125q-8 -8 -6 -12q0 -2 1 -5t1 -5q4 -16 4 -23q8 -25 14 -37q16 -33 39 -41l15 -4q12 -2 16 -8q14 -18 -4 -33q-14 -12 -51 4q-55 29 -76 117q-162 -147 -307 -139q-80 4 -141.5 57t-59.5 131z M461 272q127 137 233 344q82 162 123 299q20 70 29 125q14 90 -6 129q-18 39 -78 11q-35 -20 -66 -62q-61 -80 -121 -231q-55 -143 -88 -309q-34 -171 -26 -306zM752 1386q-4 14 10 25q12 6 26 -2l39 -31l62 -49q4 -2 11 -8t9 -6l4 -4q8 -6 9 -19q0 -16 -14.5 -20t-22.5 4 l-13 8q-37 29 -55 45l-29.5 22.5t-21.5 16.5l-6 4q-6 4 -8 14z" />
<glyph unicode="&#xcd;" horiz-adv-x="665" d="M-82 223q0 45 23 84q16 20 34 10q18 -14 7 -32q-23 -37 -17 -80t37 -74q39 -39 96.5 -46t108.5 8.5t100 45.5q39 25 82 62l23 20q6 6 6 10v5q-2 4 -2 6q-2 14 -2 45q-2 61 4 139q14 141 57 301q41 160 103 285q66 135 135 188q35 29 75 35q37 6 65 -14.5t38 -57.5 q20 -78 -19 -227q-37 -135 -114 -293q-80 -164 -178 -297q-49 -63 -107 -125q-8 -8 -6 -12q0 -2 1 -5t1 -5q4 -16 4 -23q8 -25 14 -37q16 -33 39 -41l15 -4q12 -2 16 -8q14 -18 -4 -33q-14 -12 -51 4q-55 29 -76 117q-162 -147 -307 -139q-80 4 -141.5 57t-59.5 131z M461 272q127 137 233 344q82 162 123 299q20 70 29 125q14 90 -6 129q-18 39 -78 11q-35 -20 -66 -62q-61 -80 -121 -231q-55 -143 -88 -309q-34 -171 -26 -306zM776 1303q0 12 8 18l4 4q2 0 9.5 6t11.5 8l61 50l39 30q12 8 27 2q14 -10 10 -24q-4 -8 -8 -15l-6 -4l-51 -39 q-12 -8 -31 -24.5t-25 -20.5l-12 -8q-8 -8 -22.5 -3.5t-14.5 20.5z" />
<glyph unicode="&#xce;" horiz-adv-x="665" d="M-82 223q0 45 23 84q16 20 34 10q18 -14 7 -32q-23 -37 -17 -80t37 -74q39 -39 96.5 -46t108.5 8.5t100 45.5q39 25 82 62l23 20q6 6 6 10v5q-2 4 -2 6q-2 14 -2 45q-2 61 4 139q14 141 57 301q41 160 103 285q66 135 135 188q35 29 75 35q37 6 65 -14.5t38 -57.5 q20 -78 -19 -227q-37 -135 -114 -293q-80 -164 -178 -297q-49 -63 -107 -125q-8 -8 -6 -12q0 -2 1 -5t1 -5q4 -16 4 -23q8 -25 14 -37q16 -33 39 -41l15 -4q12 -2 16 -8q14 -18 -4 -33q-14 -12 -51 4q-55 29 -76 117q-162 -147 -307 -139q-80 4 -141.5 57t-59.5 131z M461 272q127 137 233 344q82 162 123 299q20 70 29 125q14 90 -6 129q-18 39 -78 11q-35 -20 -66 -62q-61 -80 -121 -231q-55 -143 -88 -309q-34 -171 -26 -306zM748 1327q-8 16 6 27q0 2 2 2l4 2l20 10q25 10 70 33l22 10l9 4q16 4 26 -12q2 0 2 -4q6 -8 17.5 -28.5 t19.5 -31.5l29 -47q4 -10 2 -16q-4 -18 -21 -19q-14 0 -20 11l-4 8q-14 25 -47 74l-4 8q-2 2 -2 4h-5q-4 -2 -9 -6t-7 -4q-27 -10 -45 -21q-27 -10 -33 -14l-8 -4q-18 0 -24 14z" />
<glyph unicode="&#xcf;" horiz-adv-x="665" d="M-82 223q0 45 23 84q16 20 34 10q18 -14 7 -32q-23 -37 -17 -80t37 -74q39 -39 96.5 -46t108.5 8.5t100 45.5q39 25 82 62l23 20q6 6 6 10v5q-2 4 -2 6q-2 14 -2 45q-2 61 4 139q14 141 57 301q41 160 103 285q66 135 135 188q35 29 75 35q37 6 65 -14.5t38 -57.5 q20 -78 -19 -227q-37 -135 -114 -293q-80 -164 -178 -297q-49 -63 -107 -125q-8 -8 -6 -12q0 -2 1 -5t1 -5q4 -16 4 -23q8 -25 14 -37q16 -33 39 -41l15 -4q12 -2 16 -8q14 -18 -4 -33q-14 -12 -51 4q-55 29 -76 117q-162 -147 -307 -139q-80 4 -141.5 57t-59.5 131z M461 272q127 137 233 344q82 162 123 299q20 70 29 125q14 90 -6 129q-18 39 -78 11q-35 -20 -66 -62q-61 -80 -121 -231q-55 -143 -88 -309q-34 -171 -26 -306zM799 1348q-12 27 8 51q25 20 51 10q39 -16 27 -59q-14 -27 -43 -31q-33 0 -43 29zM911 1298q-12 27 9 52 q25 20 51 10q39 -16 26 -60q-14 -27 -43 -30q-33 -1 -43 28z" />
<glyph unicode="&#xd0;" horiz-adv-x="1146" d="M52 105.5q-5 31.5 16 58.5q25 35 63 41q27 4 76 -8l49 -15l25 -10q18 -8 20 -4l37 68q59 123 145 360h-151q-20 0 -23 2q-14 8 -14 20q0 16 14 23h191q92 236 157 358q39 78 82 129q35 41 54 31q8 -4 11 -15t-3 -20l-21 -18q-39 -43 -78 -119q-45 -84 -77 -164l-76 -182 h282q10 0 19 -6q10 -10 4 -27q-6 -12 -23 -12h-299q-8 -20 -27.5 -74.5t-31.5 -83.5q-90 -223 -129 -288q178 -57 309 -46q133 8 254 97q135 100 215 276q94 207 58 389q-33 166 -168 258q-113 76 -295 72q-203 -4 -309 -90q-43 -37 -64 -80q-14 -43 -6 -63q0 -2 6 -10.5 t6 -14.5q-4 -23 -24 -23q-18 2 -27.5 21.5t-9.5 38.5q-2 35 14 69q20 45 64 86q102 94 290 109q121 10 226 -10q150 -37 239 -142q113 -133 113 -323.5t-109 -380.5q-92 -158 -233 -248q-143 -92 -334 -78q-82 6 -178 33l-39 12l-18 7q-4 2 -9 -3l-8 -8q-27 -31 -80 -49 q-86 -31 -143 6q-27 19 -32 50.5zM96 115q2 -27 49 -33q47 -2 105 24q16 12 22 21q-90 31 -114 33q-18 4 -37 -6q-27 -19 -25 -39z" />
<glyph unicode="&#xd1;" horiz-adv-x="876" d="M53 72q0 6 3 12t6.5 14t5.5 13l36 86l80 192l252 606q43 113 45 117q12 45 -16 66q-25 14 -74 14q-106 -8 -174 -66q-16 -16 -22 -26q-10 -27 -13 -29q-18 -18 -35 2q-8 10 0 33q27 66 117 100q90 43 172 29q80 -12 92 -76q8 -35 -10 -82l-33 -82q82 115 174 181 q43 31 93.5 52t108 17t81.5 -55q25 -49 12 -131q-10 -72 -55 -197q-14 -39 -164 -393q-25 -55 -69 -170q-31 -94 -35 -133q-4 -20 4 -37q14 -27 55 -18q47 6 115 65q51 43 184 191q14 16 31.5 0.5t3.5 -31.5l-27 -29l-100 -110q-78 -74 -123 -101q-76 -45 -127 -28 q-55 16 -61 67q-4 37 10 94q16 61 47 138q16 45 78 184q129 301 162 403q33 109 28 170q-8 74 -63 76q-63 2 -143 -49q-55 -35 -111 -98q-92 -96 -168 -234q-37 -57 -49 -90l-84 -199l-78 -188l-84 -201l-29 -69l-6 -13q-8 -16 -26.5 -11.5t-16.5 24.5zM745 1356q-4 6 0 22 q8 20 17 31q8 20 24 37q20 16 37 18q25 6 51 -16q18 -18 25 -43q4 -12 10 -32.5t9 -24.5q4 -14 14 -25q8 -8 22 2q12 6 37 37q4 6 6 8l7 12q16 8 26 0q8 -4 12 -20l-6 -14q-18 -25 -20 -27q-10 -16 -35 -35q-33 -18 -55 -10q-31 8 -45 41q-4 6 -21 63q-2 4 -5 12.5t-5 12.5 q-8 12 -12 12h-11q0 2 -2 0l-4 -4l-16 -18q-14 -23 -19 -35q-4 -10 -6 -10q-6 -6 -14 -7q-15 1 -21 13z" />
<glyph unicode="&#xd2;" horiz-adv-x="774" d="M63 516q33 193 136 389q80 152 182 244q150 139 299 125q35 0 45 -14q12 -25 -10 -35q-6 -2 -21 2q-4 0 -9 1t-7 1q-53 6 -119 -21q-209 -80 -348 -383q-92 -203 -109 -368q-18 -145 23 -248q16 -41 45 -74q53 -59 137 -53q133 10 258 151q98 104 176 277q70 150 105 311 q-100 -12 -166 72q-55 74 -27 182q27 98 95 135q59 31 106 -6q39 -29 55 -108q14 -80 -4 -205q76 39 125 115q18 25 29 57q2 6 2 18q4 33 20 35q20 2 25.5 -20.5t-0.5 -38.5q-8 -31 -29 -68q-45 -68 -116 -121q-25 -16 -39 -22l-19 -8q-6 -4 -8 -13l-18 -73 q-37 -152 -113 -308q-84 -162 -184 -264q-129 -129 -265 -143q-94 -6 -155 45q-45 39 -78 108q-50 129 -19 326zM705 1083q-35 -94 10 -157q51 -76 141 -54q18 106 12 187q-10 100 -53 117q-35 14 -65.5 -19t-44.5 -74zM786 1425q-4 14 11 25q12 6 26 -2l39 -31l62 -49 q4 -2 11 -8t9 -6l4 -4q8 -6 8 -19q0 -16 -14 -20t-22 4l-13 8q-37 29 -55 45l-29.5 22.5t-21.5 16.5l-6 4q-5 6 -9 14z" />
<glyph unicode="&#xd3;" horiz-adv-x="774" d="M63 516q33 193 136 389q80 152 182 244q150 139 299 125q35 0 45 -14q12 -25 -10 -35q-6 -2 -21 2q-4 0 -9 1t-7 1q-53 6 -119 -21q-209 -80 -348 -383q-92 -203 -109 -368q-18 -145 23 -248q16 -41 45 -74q53 -59 137 -53q133 10 258 151q98 104 176 277q70 150 105 311 q-100 -12 -166 72q-55 74 -27 182q27 98 95 135q59 31 106 -6q39 -29 55 -108q14 -80 -4 -205q76 39 125 115q18 25 29 57q2 6 2 18q4 33 20 35q20 2 25.5 -20.5t-0.5 -38.5q-8 -31 -29 -68q-45 -68 -116 -121q-25 -16 -39 -22l-19 -8q-6 -4 -8 -13l-18 -73 q-37 -152 -113 -308q-84 -162 -184 -264q-129 -129 -265 -143q-94 -6 -155 45q-45 39 -78 108q-50 129 -19 326zM705 1083q-35 -94 10 -157q51 -76 141 -54q18 106 12 187q-10 100 -53 117q-35 14 -65.5 -19t-44.5 -74zM762 1343q0 12 8 19l4 4l21 14l61 50l39 30 q12 10 27 2q14 -10 10 -24q-2 -8 -8 -15l-6 -4l-52 -39q-12 -8 -30.5 -24.5t-24.5 -20.5l-12 -8q-8 -8 -22.5 -4t-14.5 20z" />
<glyph unicode="&#xd4;" horiz-adv-x="774" d="M63 516q33 193 136 389q80 152 182 244q150 139 299 125q35 0 45 -14q12 -25 -10 -35q-6 -2 -21 2q-4 0 -9 1t-7 1q-53 6 -119 -21q-209 -80 -348 -383q-92 -203 -109 -368q-18 -145 23 -248q16 -41 45 -74q53 -59 137 -53q133 10 258 151q98 104 176 277q70 150 105 311 q-100 -12 -166 72q-55 74 -27 182q27 98 95 135q59 31 106 -6q39 -29 55 -108q14 -80 -4 -205q76 39 125 115q18 25 29 57q2 6 2 18q4 33 20 35q20 2 25.5 -20.5t-0.5 -38.5q-8 -31 -29 -68q-45 -68 -116 -121q-25 -16 -39 -22l-19 -8q-6 -4 -8 -13l-18 -73 q-37 -152 -113 -308q-84 -162 -184 -264q-129 -129 -265 -143q-94 -6 -155 45q-45 39 -78 108q-50 129 -19 326zM705 1083q-35 -94 10 -157q51 -76 141 -54q18 106 12 187q-10 100 -53 117q-35 14 -65.5 -19t-44.5 -74zM737 1348q-8 16 6 26q0 2 2 2l5 2l20 11q25 10 70 32 l22 11l8 4q16 4 27 -13q2 0 2 -4q6 -8 17.5 -28.5t19.5 -30.5l29 -47q6 -10 2 -17q-4 -18 -21 -18q-14 0 -20 10l-4 8q-14 25 -48 74l-4 8q-2 2 -2 4h-4q-4 -2 -9 -6t-7 -4q-27 -10 -45 -20q-27 -10 -33 -15l-8 -4q-19 1 -25 15z" />
<glyph unicode="&#xd5;" horiz-adv-x="774" d="M63 516q33 193 136 389q80 152 182 244q150 139 299 125q35 0 45 -14q12 -25 -10 -35q-6 -2 -21 2q-4 0 -9 1t-7 1q-53 6 -119 -21q-209 -80 -348 -383q-92 -203 -109 -368q-18 -145 23 -248q16 -41 45 -74q53 -59 137 -53q133 10 258 151q98 104 176 277q70 150 105 311 q-100 -12 -166 72q-55 74 -27 182q27 98 95 135q59 31 106 -6q39 -29 55 -108q14 -80 -4 -205q76 39 125 115q18 25 29 57q2 6 2 18q4 33 20 35q20 2 25.5 -20.5t-0.5 -38.5q-8 -31 -29 -68q-45 -68 -116 -121q-25 -16 -39 -22l-19 -8q-6 -4 -8 -13l-18 -73 q-37 -152 -113 -308q-84 -162 -184 -264q-129 -129 -265 -143q-94 -6 -155 45q-45 39 -78 108q-50 129 -19 326zM705 1083q-35 -94 10 -157q51 -76 141 -54q18 106 12 187q-10 100 -53 117q-35 14 -65.5 -19t-44.5 -74zM737 1354q-4 6 0 22q8 20 17 31q8 23 24 37 q20 16 37 18q25 6 51 -16q18 -18 25 -43q4 -12 10 -32.5t8 -24.5q4 -14 15 -25q8 -8 22 2q12 6 37 37q4 6 6 8l6 12q16 8 27 0q8 -4 12 -20l-6 -14q-18 -25 -20 -27q-10 -16 -35 -35q-33 -18 -55 -10q-31 8 -46 41q-4 8 -20 63q-2 4 -5 12.5t-5 12.5q-8 12 -13 12h-10 q0 2 -2 0l-4 -4l-16 -18q-14 -23 -19 -35q-4 -10 -6 -10q-6 -6 -14 -7q-15 1 -21 13z" />
<glyph unicode="&#xd6;" horiz-adv-x="774" d="M63 516q33 193 136 389q80 152 182 244q150 139 299 125q35 0 45 -14q12 -25 -10 -35q-6 -2 -21 2q-4 0 -9 1t-7 1q-53 6 -119 -21q-209 -80 -348 -383q-92 -203 -109 -368q-18 -145 23 -248q16 -41 45 -74q53 -59 137 -53q133 10 258 151q98 104 176 277q70 150 105 311 q-100 -12 -166 72q-55 74 -27 182q27 98 95 135q59 31 106 -6q39 -29 55 -108q14 -80 -4 -205q76 39 125 115q18 25 29 57q2 6 2 18q4 33 20 35q20 2 25.5 -20.5t-0.5 -38.5q-8 -31 -29 -68q-45 -68 -116 -121q-25 -16 -39 -22l-19 -8q-6 -4 -8 -13l-18 -73 q-37 -152 -113 -308q-84 -162 -184 -264q-129 -129 -265 -143q-94 -6 -155 45q-45 39 -78 108q-50 129 -19 326zM705 1083q-35 -94 10 -157q51 -76 141 -54q18 106 12 187q-10 100 -53 117q-35 14 -65.5 -19t-44.5 -74zM776 1368q-12 27 8 51q25 20 52 11q39 -16 26 -60 q-14 -27 -43 -31q-33 0 -43 29zM889 1319q-12 27 8 51q25 20 51 10q39 -16 27 -59q-14 -27 -43 -31q-33 0 -43 29z" />
<glyph unicode="&#xd7;" horiz-adv-x="786" d="M92 463q-14 18 6 31l23 16l53 35l68 47l59 39l37 24q4 0 4 2q-4 8 -4 11l-12 55q-8 49 -17 76l-14 75l-10 52q0 4 -2 8q-2 8 8 22q16 8 26 0q6 -4 11 -14v-2q4 -16 4 -18l12 -64q2 -6 18 -78l13 -67l8 -27l37 25q20 12 61 41l66 43l47 30l8 6q10 8 21.5 2t15.5 -16 q0 -16 -10 -24l-2 -2q-8 -4 -13 -9q-33 -20 -49 -32l-65 -43l-64 -41q-4 -4 -39 -27l-4 -4v-8q8 -33 10 -49l19 -74l14 -78q4 -12 7 -31.5t8 -32.5l6 -26q0 -16 -4 -21q-8 -8 -27 -8q-12 12 -14 17v4l-11 41l-14 67q-2 10 -7 38t-9 42q-8 45 -15 66q0 4 -2 12t-2 14l-26 -18 l-56 -37q-45 -29 -65 -45l-58 -37l-22 -16q-8 -4 -19.5 -2t-13.5 10z" />
<glyph unicode="&#xd8;" horiz-adv-x="774" d="M63 516q33 193 136 389q80 152 182 244q150 139 299 125q35 0 45 -14q12 -25 -10 -35q-6 -2 -21 2q-4 0 -9 1t-7 1q-53 6 -119 -21q-209 -80 -348 -383q-92 -203 -109 -368q-18 -145 23 -248q16 -41 45 -74q53 -59 137 -53q133 10 258 151q98 104 176 277q70 150 105 311 q-100 -12 -166 72q-55 74 -27 182q27 98 95 135q59 31 106 -6q39 -29 55 -108q14 -80 -4 -205q76 39 125 115q18 25 29 57q2 6 2 18q4 33 20 35q20 2 25.5 -20.5t-0.5 -38.5q-8 -31 -29 -68q-45 -68 -116 -121q-25 -16 -39 -22l-19 -8q-6 -4 -8 -13l-18 -73 q-37 -152 -113 -308q-84 -162 -184 -264q-129 -129 -265 -143q-94 -6 -155 45q-45 39 -78 108q-50 129 -19 326zM195 410l10 8l24 16q18 16 43 31l56 41l63 47q145 106 166 119q20 16 61 45l52 37l37 26l10 8q12 6 20 7q12 -4 19 -19q2 -14 -13 -24l-2 -2l-24 -19 q-25 -16 -45 -33l-58 -39q-23 -18 -163 -120q-33 -20 -66 -47q-41 -29 -61 -46l-52 -34l-32 -25l-19 -12q-18 0 -24 8q-10 13 -2 27zM705 1083q-35 -94 10 -157q51 -76 141 -54q18 106 12 187q-10 100 -53 117q-35 14 -65.5 -19t-44.5 -74z" />
<glyph unicode="&#xd9;" horiz-adv-x="1044" d="M53 1084.5q2 11.5 6 21.5q25 59 131 100q90 35 168 29q90 -4 111 -59q12 -31 -4 -78q-4 -16 -23 -72q-12 -37 -151 -362q-94 -225 -129 -345q-20 -74 -27 -133q-6 -78 33 -92q39 -12 94 10q35 12 111 66q113 90 223 236q68 86 182 274q109 176 183 309l67 129l23 51 q8 20 20 23q23 4 27 -18q0 -6 -13 -39l-28 -64q-33 -76 -39 -92l-86 -199l-158 -372q-47 -125 -57 -160q-20 -68 -12 -113q6 -35 34 -43q37 -12 78 -6q66 10 146 78q57 47 192 201q8 8 20.5 6t16.5 -13q6 -14 -6 -28l-37 -41l-53 -61q-29 -32 -55.5 -58.5t-60.5 -52 t-67 -43.5q-78 -43 -151 -35q-47 8 -74 31q-23 23 -29 53q-8 43 7 104q10 47 43 142q18 47 163 376q-133 -219 -161 -262q-76 -109 -144 -188q-115 -129 -209 -193q-123 -80 -206 -51q-96 35 -43 244q29 115 135 373q150 356 159 385l12 38l9 31q10 41 -14 54q-27 14 -62 14 q-37 0 -84 -10q-45 -10 -86 -29q-49 -23 -69 -51q-10 -10 -11 -25q0 -23 -22 -22q-14 0 -19.5 10t-3.5 21.5zM670 1407q-4 14 10 25q12 6 27 -2l38 -31l62 -49q4 -2 11 -8.5t9 -6.5l4 -4q8 -6 9 -18q0 -16 -14.5 -20.5t-22.5 3.5l-12 9l-56 45q-10 8 -29.5 22t-21.5 17l-6 4 q-6 6 -8 14z" />
<glyph unicode="&#xda;" horiz-adv-x="1044" d="M53 1084.5q2 11.5 6 21.5q25 59 131 100q90 35 168 29q90 -4 111 -59q12 -31 -4 -78q-4 -16 -23 -72q-12 -37 -151 -362q-94 -225 -129 -345q-20 -74 -27 -133q-6 -78 33 -92q39 -12 94 10q35 12 111 66q113 90 223 236q68 86 182 274q109 176 183 309l67 129l23 51 q8 20 20 23q23 4 27 -18q0 -6 -13 -39l-28 -64q-33 -76 -39 -92l-86 -199l-158 -372q-47 -125 -57 -160q-20 -68 -12 -113q6 -35 34 -43q37 -12 78 -6q66 10 146 78q57 47 192 201q8 8 20.5 6t16.5 -13q6 -14 -6 -28l-37 -41l-53 -61q-29 -32 -55.5 -58.5t-60.5 -52 t-67 -43.5q-78 -43 -151 -35q-47 8 -74 31q-23 23 -29 53q-8 43 7 104q10 47 43 142q18 47 163 376q-133 -219 -161 -262q-76 -109 -144 -188q-115 -129 -209 -193q-123 -80 -206 -51q-96 35 -43 244q29 115 135 373q150 356 159 385l12 38l9 31q10 41 -14 54q-27 14 -62 14 q-37 0 -84 -10q-45 -10 -86 -29q-49 -23 -69 -51q-10 -10 -11 -25q0 -23 -22 -22q-14 0 -19.5 10t-3.5 21.5zM666 1305q0 12 8 18l4 4q2 0 9 6t11 8l62 50l39 30q12 8 26 2q14 -10 11 -24q-4 -10 -9 -15l-6 -4q-2 -2 -21.5 -16t-29.5 -23q-18 -16 -55 -45l-13 -8 q-8 -8 -22 -3.5t-14 20.5z" />
<glyph unicode="&#xdb;" horiz-adv-x="1044" d="M53 1084.5q2 11.5 6 21.5q25 59 131 100q90 35 168 29q90 -4 111 -59q12 -31 -4 -78q-4 -16 -23 -72q-12 -37 -151 -362q-94 -225 -129 -345q-20 -74 -27 -133q-6 -78 33 -92q39 -12 94 10q35 12 111 66q113 90 223 236q68 86 182 274q109 176 183 309l67 129l23 51 q8 20 20 23q23 4 27 -18q0 -6 -13 -39l-28 -64q-33 -76 -39 -92l-86 -199l-158 -372q-47 -125 -57 -160q-20 -68 -12 -113q6 -35 34 -43q37 -12 78 -6q66 10 146 78q57 47 192 201q8 8 20.5 6t16.5 -13q6 -14 -6 -28l-37 -41l-53 -61q-29 -32 -55.5 -58.5t-60.5 -52 t-67 -43.5q-78 -43 -151 -35q-47 8 -74 31q-23 23 -29 53q-8 43 7 104q10 47 43 142q18 47 163 376q-133 -219 -161 -262q-76 -109 -144 -188q-115 -129 -209 -193q-123 -80 -206 -51q-96 35 -43 244q29 115 135 373q150 356 159 385l12 38l9 31q10 41 -14 54q-27 14 -62 14 q-37 0 -84 -10q-45 -10 -86 -29q-49 -23 -69 -51q-10 -10 -11 -25q0 -23 -22 -22q-14 0 -19.5 10t-3.5 21.5zM641 1327q-8 16 6 27q0 2 2 2l4 2l21 10q25 10 69 33l23 10l8 4q16 4 27 -12q2 0 2 -4q6 -8 17 -28.5t20 -31.5l28 -47q4 -10 2 -16q-4 -18 -20 -19q-14 0 -21 11 l-4 8q-14 25 -47 74l-4 8q-2 2 -2 4h-4q-4 -2 -9 -6t-7 -4q-27 -10 -45 -21q-27 -10 -33 -14l-8 -4q-19 0 -25 14z" />
<glyph unicode="&#xdc;" horiz-adv-x="1044" d="M53 1084.5q2 11.5 6 21.5q25 59 131 100q90 35 168 29q90 -4 111 -59q12 -31 -4 -78q-4 -16 -23 -72q-12 -37 -151 -362q-94 -225 -129 -345q-20 -74 -27 -133q-6 -78 33 -92q39 -12 94 10q35 12 111 66q113 90 223 236q68 86 182 274q109 176 183 309l67 129l23 51 q8 20 20 23q23 4 27 -18q0 -6 -13 -39l-28 -64q-33 -76 -39 -92l-86 -199l-158 -372q-47 -125 -57 -160q-20 -68 -12 -113q6 -35 34 -43q37 -12 78 -6q66 10 146 78q57 47 192 201q8 8 20.5 6t16.5 -13q6 -14 -6 -28l-37 -41l-53 -61q-29 -32 -55.5 -58.5t-60.5 -52 t-67 -43.5q-78 -43 -151 -35q-47 8 -74 31q-23 23 -29 53q-8 43 7 104q10 47 43 142q18 47 163 376q-133 -219 -161 -262q-76 -109 -144 -188q-115 -129 -209 -193q-123 -80 -206 -51q-96 35 -43 244q29 115 135 373q150 356 159 385l12 38l9 31q10 41 -14 54q-27 14 -62 14 q-37 0 -84 -10q-45 -10 -86 -29q-49 -23 -69 -51q-10 -10 -11 -25q0 -23 -22 -22q-14 0 -19.5 10t-3.5 21.5zM700 1356q-12 27 9 51q25 20 51 10q39 -16 26 -59q-14 -27 -43 -31q-33 0 -43 29zM813 1307q-12 27 8 51q25 20 51 10q39 -16 27 -59q-14 -27 -43 -31 q-33 0 -43 29z" />
<glyph unicode="&#xdd;" horiz-adv-x="864" d="M55 -440q-18 68 54 155q41 51 129 101q23 14 184 100l98 51q12 6 17 17l12 18l47 80q61 104 149 295l160 364q-135 -223 -243 -358q-100 -125 -179 -197q-109 -102 -196 -125q-49 -14 -92 -2q-61 18 -72 91q-4 45 10 112q18 76 57 170l73 176l87 213l68 180q25 68 43 132 q12 37 -15 53q-16 10 -57 14q-82 2 -172 -39q-45 -18 -70 -49q-12 -12 -12 -25q0 -23 -20.5 -24.5t-24.5 18t4 33.5q12 27 47 57q68 51 168 68q94 20 154 -8q31 -18 41 -43q12 -27 0 -74q-31 -111 -111 -307l-123 -301q-74 -178 -92 -258q-10 -41 -10 -74q0 -41 16 -57 q33 -31 103 -8q49 16 114 67q53 41 125 117q115 123 244 319q119 182 207 346q49 86 76 146q10 18 26 59q4 12 14.5 28.5t26.5 10.5q25 -8 6 -47l-20 -49l-21 -47l-202 -488q-147 -340 -271 -551l13 7q121 78 268 241l49 58l21 24q20 18 24 21q27 4 27 -23q0 -8 -15 -26 q-20 -27 -45 -52q-139 -160 -256 -247q-25 -18 -77 -52l-52 -28l-12 -19l-12 -20q-59 -102 -107 -172q-68 -98 -119 -152q-74 -80 -145 -90q-41 -4 -75 13.5t-44 56.5zM106 -377q-18 -49 7 -74q35 -20 69.5 -11t65.5 36q63 57 125 143q51 74 114 181l-190 -101 q-102 -57 -141 -100q-36 -35 -50 -74zM705 1288q0 12 8 19l4 4q2 0 9 6t11 8l62 49l39 31q12 8 26 2q14 -10 10 -25q-2 -8 -8 -14l-6 -4q-2 -2 -21.5 -16.5l-29.5 -22.5q-18 -16 -55 -45l-13 -8q-8 -8 -22 -4t-14 20z" />
<glyph unicode="&#xde;" horiz-adv-x="681" d="M14 86q0 2 4 10l19 43q16 45 26 66l31 76l31 71q6 18 22 56q8 14 11 26l43 98q16 43 53 130l51 122l47 115l41 100l31 74q2 10 10 27q10 39 8 51q0 12 -6 23l-16 14q-16 8 -53 12q-23 0 -72 -8q-37 -10 -66 -25q-33 -14 -51 -32q-20 -16 -28 -37q0 -2 -1.5 -5t-3.5 -6 q0 -4 -8 -12q-14 -6 -26 0q-12 12 -9 25q4 16 9 24q25 43 82 76q53 29 112 41q76 12 123 -6q27 -10 39 -27q16 -20 18 -34q6 -18 2 -56l-7 -21q-5 -15 -7 -24l-35 -84l-49 -121l-57 -141q31 43 67 86q41 49 97 98q53 45 100 70q55 27 98 29q57 4 97 -19q25 -16 43 -37 q18 -25 24 -53q10 -31 6 -67q-2 -53 -26 -115q-20 -55 -68 -123q-43 -57 -94 -107q-41 -41 -98 -77q-51 -35 -97 -52q-53 -20 -90 -28q-41 -6 -76 -4q-41 0 -69 20q-25 12 -29 41q-4 16 4 25q12 12 26.5 6t14.5 -20.5t19 -18.5q12 -6 24 -6q27 -6 66 2q47 8 82 20 q66 29 94 49q55 37 98 76q59 59 94 113q43 59 64 121q18 55 16 108q-4 31 -16 51q-12 23 -39 37q-35 14 -74 13q-29 -2 -74 -23q-39 -20 -75 -51q-29 -23 -78 -72l-74 -90q-29 -35 -67 -98q-23 -35 -64 -105l-51 -104l-12 -25l-5 -12l-4 -4q0 -2 -2 -2v-6l-2 -2l-18 -43 l-27 -66l-33 -76l-26 -67l-19 -43l-4 -8q-4 -10 -16 -13.5t-21 4.5q-12 9 -4 27z" />
<glyph unicode="&#xdf;" horiz-adv-x="694" d="M33 106q-4 16 10 23q8 4 14 4t15 -4q70 -23 131 -29q66 -4 112 13q53 16 93 51q43 37 67 88q27 57 33 110q10 66 2 119q-10 66 -33 113q-8 16 -14 24q-6 10 -14 31q-10 27 -5 53q6 18 27 48l43 43l68 75q41 53 71 115q23 39 27 70q6 35 4 63q-4 57 -35 94q-29 27 -49 21 q-18 -4 -35 -35q-4 -6 -8 -17.5l-6 -17.5l-12 -37l-27 -71q-33 -86 -51 -129l-47 -113l-45 -96q-16 -39 -41 -84q-4 -8 -18.5 -34t-22.5 -38q-10 -20 -35 -61q-4 -4 -16 -24l-19 -30l-33 -47l-28 -41l-31 -43q-12 -12 -25 -8q-14 2 -18 21q0 10 6 16q10 14 10 16l29 37 l31 43l32 49q25 37 35 56l37 65q35 66 41 78l43 88q16 35 45 105q29 61 49 118l54 138l12 36q8 25 14 37q10 27 31 45q31 31 67 25q53 -6 87 -70q27 -45 26 -104q0 -68 -33 -137q-31 -61 -73 -117q-25 -37 -68 -78l-41 -43q-18 -18 -27 -37q-2 -14 5 -35l12 -20l14 -25 q23 -53 33 -112q10 -63 4 -119q-6 -63 -27 -115q-20 -57 -55 -98q-43 -53 -98 -80l57 6q78 16 141 45q41 20 91 66q37 33 73 78q33 41 47 61q2 6 11 14l6 9q12 10 26 0q12 -8 9 -23q0 -6 -4 -10q-2 -6 -11 -15q-16 -25 -45 -61q-31 -39 -71 -80q-57 -49 -91 -69 q-41 -20 -61 -27q-37 -16 -74 -25q-66 -16 -131 -18q-63 0 -96 4q-25 0 -45 6q-2 0 -4 2q-2 0 -4 2h-2l-2 2h-7q-12 0 -32 4q-45 8 -68 15l-37 12q-8 4 -14 8z" />
<glyph unicode="&#xe0;" horiz-adv-x="663" d="M51 193q2 66 47 147q41 84 127 162q68 63 140 98q104 51 204 39q25 -4 37 -8q14 -4 15.5 -19.5t-7 -30t-12.5 -24.5q-29 -66 -80 -160q-8 -16 -28 -49q-18 -37 -23 -49q-20 -61 -27 -94q-8 -53 4.5 -80t49.5 -19q25 4 57 29q39 31 63 60q41 41 152 170q12 12 27.5 3.5 t11.5 -24.5q0 -2 -14 -22q-41 -45 -60 -68q-102 -115 -145 -150q-80 -68 -144 -36q-66 29 -47 143q-72 -90 -141 -127q-94 -45 -156 -4q-51 35 -51 113zM102 158q8 -35 33 -45q27 -10 72 2q53 14 115 75q45 45 102 134q10 12 22 41l19 38q10 27 35 76q33 63 63 113 q-86 10 -182 -35q-70 -35 -139 -104q-82 -78 -119 -164q-33 -78 -21 -131zM442 807q-4 14 11 24q12 6 26 -2l39 -30l62 -49q4 -2 11 -8.5t9 -6.5l4 -4q8 -6 8 -18q0 -16 -14 -20.5t-23 3.5l-12 9q-37 29 -55 45q-10 8 -29.5 22t-21.5 16l-6 5q-5 6 -9 14z" />
<glyph unicode="&#xe1;" horiz-adv-x="663" d="M51 193q2 66 47 147q41 84 127 162q68 63 140 98q104 51 204 39q25 -4 37 -8q14 -4 15.5 -19.5t-7 -30t-12.5 -24.5q-29 -66 -80 -160q-8 -16 -28 -49q-18 -37 -23 -49q-20 -61 -27 -94q-8 -53 4.5 -80t49.5 -19q25 4 57 29q39 31 63 60q41 41 152 170q12 12 27.5 3.5 t11.5 -24.5q0 -2 -14 -22q-41 -45 -60 -68q-102 -115 -145 -150q-80 -68 -144 -36q-66 29 -47 143q-72 -90 -141 -127q-94 -45 -156 -4q-51 35 -51 113zM102 158q8 -35 33 -45q27 -10 72 2q53 14 115 75q45 45 102 134q10 12 22 41l19 38q10 27 35 76q33 63 63 113 q-86 10 -182 -35q-70 -35 -139 -104q-82 -78 -119 -164q-33 -78 -21 -131zM461 717q0 12 8 18l4 4q2 0 9 6.5t12 8.5l61 49l39 31q12 8 27 2q14 -10 10 -25q-4 -8 -8 -14l-7 -4q-2 -2 -21.5 -16.5l-29.5 -22.5q-18 -16 -55 -45l-12 -9q-8 -8 -22.5 -3.5t-14.5 20.5z" />
<glyph unicode="&#xe2;" horiz-adv-x="663" d="M51 193q2 66 47 147q41 84 127 162q68 63 140 98q104 51 204 39q25 -4 37 -8q14 -4 15.5 -19.5t-7 -30t-12.5 -24.5q-29 -66 -80 -160q-8 -16 -28 -49q-18 -37 -23 -49q-20 -61 -27 -94q-8 -53 4.5 -80t49.5 -19q25 4 57 29q39 31 63 60q41 41 152 170q12 12 27.5 3.5 t11.5 -24.5q0 -2 -14 -22q-41 -45 -60 -68q-102 -115 -145 -150q-80 -68 -144 -36q-66 29 -47 143q-72 -90 -141 -127q-94 -45 -156 -4q-51 35 -51 113zM102 158q8 -35 33 -45q27 -10 72 2q53 14 115 75q45 45 102 134q10 12 22 41l19 38q10 27 35 76q33 63 63 113 q-86 10 -182 -35q-70 -35 -139 -104q-82 -78 -119 -164q-33 -78 -21 -131zM469 758q-8 16 6 26q0 2 2 2l4 2l21 11q25 10 69 32l23 11l8 4q16 4 27 -12q2 0 2 -5q6 -8 17 -28.5t20 -30.5l28 -47q4 -10 2 -16q-4 -18 -20 -19q-14 0 -21 10l-4 9q-14 25 -47 73l-4 8q-2 2 -2 5 h-4q-4 -2 -9 -6.5t-7 -4.5q-27 -10 -45 -20q-27 -10 -33 -14l-8 -5q-19 1 -25 15z" />
<glyph unicode="&#xe3;" horiz-adv-x="663" d="M51 193q2 66 47 147q41 84 127 162q68 63 140 98q104 51 204 39q25 -4 37 -8q14 -4 15.5 -19.5t-7 -30t-12.5 -24.5q-29 -66 -80 -160q-8 -16 -28 -49q-18 -37 -23 -49q-20 -61 -27 -94q-8 -53 4.5 -80t49.5 -19q25 4 57 29q39 31 63 60q41 41 152 170q12 12 27.5 3.5 t11.5 -24.5q0 -2 -14 -22q-41 -45 -60 -68q-102 -115 -145 -150q-80 -68 -144 -36q-66 29 -47 143q-72 -90 -141 -127q-94 -45 -156 -4q-51 35 -51 113zM102 158q8 -35 33 -45q27 -10 72 2q53 14 115 75q45 45 102 134q10 12 22 41l19 38q10 27 35 76q33 63 63 113 q-86 10 -182 -35q-70 -35 -139 -104q-82 -78 -119 -164q-33 -78 -21 -131zM485 739q-4 6 0 23q8 20 17 31q10 23 24 36q20 16 37 19q25 6 51 -17q18 -18 25 -43q4 -12 10 -32.5t8 -24.5q4 -14 15 -24q8 -8 22 2q12 6 37 36l6 9l6 12q16 8 27 0q8 -4 12 -21l-6 -14 q-18 -25 -20 -26q-10 -16 -35 -35q-33 -18 -55 -11q-31 8 -45 41q-4 8 -21 64q-2 4 -5 12t-5 12q-8 12 -12 13h-11q0 2 -2 0l-4 -4l-16 -19q-14 -23 -19 -35q-4 -10 -6 -10q-6 -6 -14 -6q-15 0 -21 12z" />
<glyph unicode="&#xe4;" horiz-adv-x="663" d="M51 193q2 66 47 147q41 84 127 162q68 63 140 98q104 51 204 39q25 -4 37 -8q14 -4 15.5 -19.5t-7 -30t-12.5 -24.5q-29 -66 -80 -160q-8 -16 -28 -49q-18 -37 -23 -49q-20 -61 -27 -94q-8 -53 4.5 -80t49.5 -19q25 4 57 29q39 31 63 60q41 41 152 170q12 12 27.5 3.5 t11.5 -24.5q0 -2 -14 -22q-41 -45 -60 -68q-102 -115 -145 -150q-80 -68 -144 -36q-66 29 -47 143q-72 -90 -141 -127q-94 -45 -156 -4q-51 35 -51 113zM102 158q8 -35 33 -45q27 -10 72 2q53 14 115 75q45 45 102 134q10 12 22 41l19 38q10 27 35 76q33 63 63 113 q-86 10 -182 -35q-70 -35 -139 -104q-82 -78 -119 -164q-33 -78 -21 -131zM532 752q-12 27 9 51q25 20 51 10q39 -16 26 -59q-14 -27 -43 -31q-33 0 -43 29zM645 702q-12 27 8 52q25 20 52 10q39 -16 26 -59q-14 -27 -43 -31q-33 -1 -43 28z" />
<glyph unicode="&#xe5;" horiz-adv-x="663" d="M51 193q2 66 47 147q41 84 127 162q68 63 140 98q104 51 204 39q25 -4 37 -8q14 -4 15.5 -19.5t-7 -30t-12.5 -24.5q-29 -66 -80 -160q-8 -16 -28 -49q-18 -37 -23 -49q-20 -61 -27 -94q-8 -53 4.5 -80t49.5 -19q25 4 57 29q39 31 63 60q41 41 152 170q12 12 27.5 3.5 t11.5 -24.5q0 -2 -14 -22q-41 -45 -60 -68q-102 -115 -145 -150q-80 -68 -144 -36q-66 29 -47 143q-72 -90 -141 -127q-94 -45 -156 -4q-51 35 -51 113zM102 158q8 -35 33 -45q27 -10 72 2q53 14 115 75q45 45 102 134q10 12 22 41l19 38q10 27 35 76q33 63 63 113 q-86 10 -182 -35q-70 -35 -139 -104q-82 -78 -119 -164q-33 -78 -21 -131zM549 782q27 53 88 54q47 0 76 -35q41 -45 18 -103q-20 -57 -81.5 -63t-94.5 43q-37 49 -6 104zM588 758q-12 -27 4 -53q18 -25 45 -25q12 0 18 2q29 10 35 39q8 27 -12 51q-20 23 -49 16 q-31 -3 -41 -30z" />
<glyph unicode="&#xe6;" horiz-adv-x="1099" d="M51 193q2 66 47 147q41 84 127 162q68 63 140 98q104 51 204 39q25 -4 37 -8q14 -4 15.5 -19.5t-7 -30t-12.5 -24.5q-29 -66 -80 -160q-8 -16 -28 -49q-18 -37 -23 -49q-20 -61 -27 -94q-8 -53 4.5 -80t49.5 -19q25 4 57 29q39 31 63 60q39 39 150 167q43 117 137 203 q59 55 115 66q96 16 119 -53q25 -86 -103 -175q-63 -39 -147 -65q-16 -6 -49 -14l-25 -7q-2 0 -6 -1t-6 -1l-2 -4l-2 -4q-16 -53 -17 -102q4 -47 23 -68q25 -20 51 -20q45 -4 113 26q63 35 131 101q12 12 69 73l37 45q14 18 33 5q16 -14 -10 -52l-49 -55q-47 -51 -90 -88 q-135 -115 -242 -102q-72 10 -98 69q-20 47 -11 121q-4 -4 -4 -6q-102 -115 -145 -150q-80 -68 -144 -36q-66 29 -47 143q-72 -90 -141 -127q-94 -45 -156 -4q-51 35 -51 113zM102 158q8 -35 33 -45q27 -10 72 2q53 14 115 75q45 45 102 134q10 12 22 41l19 38q10 27 35 76 q33 63 63 113q-86 10 -182 -35q-70 -35 -139 -104q-82 -78 -119 -164q-33 -78 -21 -131zM823 369q166 41 238 116q29 29 35 60q2 25 -16.5 35t-45.5 6q-53 -4 -116 -72q-56 -61 -95 -145z" />
<glyph unicode="&#xe7;" horiz-adv-x="485" d="M72 227q10 145 143 293q80 84 135 94q70 10 94 -59q4 -12 7.5 -26.5t-3 -25.5t-22.5 -9q-16 4 -20 32q-4 20 -17 33q-20 20 -59 -2q-25 -12 -74 -61q-63 -70 -102 -148q-35 -68 -37 -133q-4 -78 45 -98q29 -12 82 -4q45 10 81.5 26.5t74.5 43t69 55t63 62.5l62 65 q8 8 21.5 5t17.5 -15.5t-15 -30.5l-77 -82q-98 -94 -168 -131q-4 -6 -6 -7l-9 -12l-75 -94q41 4 63 0q29 -6 41 -29q10 -16 10 -35q0 -23 -14 -47q-14 -27 -37 -49q-47 -47 -94 -71q-45 -31 -100 -43q-29 -4 -43 0q-12 0 -21 8q-10 12 -2 26q6 12 23 13q2 -2 8 -2q2 -2 6 -2 q6 0 37 6q43 16 96 49l45 37q25 23 41 47q8 16 8 26q0 12 -4 17q-8 4 -16 4q-12 2 -25 0q-35 -4 -63 -12q-20 -8 -29 -7q-16 6 -16 25q0 8 8 16q6 6 14 19l47 57l19 25q-12 -4 -37 -8q-100 -16 -146 36q-38 47 -30 123z" />
<glyph unicode="&#xe8;" horiz-adv-x="436" d="M82 291q39 164 160 274q59 55 114 66q96 16 119 -53q25 -86 -102 -175q-63 -39 -148 -65q-16 -6 -49 -14l-24 -7q-2 0 -6.5 -1t-6.5 -1l-2 -4l-2 -4q-16 -53 -16 -102q4 -47 22 -68q25 -20 52 -20q45 -4 112 26q63 35 131 101l70 73l37 45q14 18 32 5q16 -14 -10 -52 l-49 -55q-47 -51 -90 -88q-135 -115 -242 -102q-72 10 -98 69q-24 56 -4 152zM160 369q166 41 237 116q29 29 35 60q2 25 -16.5 35t-44.5 6q-53 -4 -117 -72q-55 -61 -94 -145zM315 782q-4 14 11 25q12 6 26 -2l39 -31l62 -49q4 -2 11 -8t9 -6l4 -4q8 -6 8 -19 q0 -16 -14 -20t-22 4l-13 8q-37 29 -55 45l-29.5 22.5t-21.5 16.5l-6 4q-5 6 -9 14z" />
<glyph unicode="&#xe9;" horiz-adv-x="436" d="M82 291q39 164 160 274q59 55 114 66q96 16 119 -53q25 -86 -102 -175q-63 -39 -148 -65q-16 -6 -49 -14l-24 -7q-2 0 -6.5 -1t-6.5 -1l-2 -4l-2 -4q-16 -53 -16 -102q4 -47 22 -68q25 -20 52 -20q45 -4 112 26q63 35 131 101l70 73l37 45q14 18 32 5q16 -14 -10 -52 l-49 -55q-47 -51 -90 -88q-135 -115 -242 -102q-72 10 -98 69q-24 56 -4 152zM160 369q166 41 237 116q29 29 35 60q2 25 -16.5 35t-44.5 6q-53 -4 -117 -72q-55 -61 -94 -145zM354 684q0 12 8 18l5 5q2 0 9 6t11 8l62 49l38 31q12 10 27 2q14 -10 10 -25q-4 -8 -8 -14 l-6 -4q-2 -2 -21.5 -16.5l-29.5 -22.5q-18 -16 -56 -45l-12 -8q-8 -8 -22.5 -4t-14.5 20z" />
<glyph unicode="&#xea;" horiz-adv-x="436" d="M82 291q39 164 160 274q59 55 114 66q96 16 119 -53q25 -86 -102 -175q-63 -39 -148 -65q-16 -6 -49 -14l-24 -7q-2 0 -6.5 -1t-6.5 -1l-2 -4l-2 -4q-16 -53 -16 -102q4 -47 22 -68q25 -20 52 -20q45 -4 112 26q63 35 131 101l70 73l37 45q14 18 32 5q16 -14 -10 -52 l-49 -55q-47 -51 -90 -88q-135 -115 -242 -102q-72 10 -98 69q-24 56 -4 152zM160 369q166 41 237 116q29 29 35 60q2 25 -16.5 35t-44.5 6q-53 -4 -117 -72q-55 -61 -94 -145zM317 702q-8 16 7 27q0 2 2 2l4 2l20 10q25 10 70 33l22 10l9 5q16 4 26 -13q2 0 2 -4 q6 -8 17.5 -28.5t19.5 -30.5l29 -47q4 -10 2 -17q-4 -18 -21 -18q-14 0 -20 10l-4 8q-14 25 -47 74l-4 8q-2 2 -2 4h-5q-4 -2 -9 -6t-7 -4q-27 -10 -45 -20q-27 -10 -33 -15l-8 -4q-19 0 -25 14z" />
<glyph unicode="&#xeb;" horiz-adv-x="436" d="M82 291q39 164 160 274q59 55 114 66q96 16 119 -53q25 -86 -102 -175q-63 -39 -148 -65q-16 -6 -49 -14l-24 -7q-2 0 -6.5 -1t-6.5 -1l-2 -4l-2 -4q-16 -53 -16 -102q4 -47 22 -68q25 -20 52 -20q45 -4 112 26q63 35 131 101l70 73l37 45q14 18 32 5q16 -14 -10 -52 l-49 -55q-47 -51 -90 -88q-135 -115 -242 -102q-72 10 -98 69q-24 56 -4 152zM160 369q166 41 237 116q29 29 35 60q2 25 -16.5 35t-44.5 6q-53 -4 -117 -72q-55 -61 -94 -145zM373 727q-12 27 8 51q25 20 51 10q39 -16 27 -59q-14 -27 -43 -31q-33 0 -43 29zM485 678 q-12 27 9 51q25 20 51 10q39 -16 26 -59q-14 -27 -43 -31q-33 0 -43 29z" />
<glyph unicode="&#xec;" horiz-adv-x="352" d="M104 358l31 37l139 160l45 53q10 14 25 13q29 -8 16 -31l-12 -25q-76 -139 -127 -266q-29 -66 -41 -119q-6 -27 -4 -49q0 -25 8 -25q8 -2 33 11q25 14 49 35q33 29 90 90q41 45 78 90q2 2 6 8q33 41 52 25q16 -14 -5 -43l-36 -41q-70 -82 -109 -121q-55 -55 -94 -78 q-55 -33 -86 -16q-27 12 -31 55q-6 47 23 131q27 74 77 184l-92 -108q-16 -18 -33.5 -4t-1.5 34zM248 827q-4 14 10 25q12 6 27 -2l39 -31l61 -49q4 -2 11 -8t10 -6l4 -4q8 -6 8 -19q0 -16 -14.5 -20t-22.5 4l-12 8l-56 45l-29.5 22.5t-21.5 16.5l-6 4q-6 6 -8 14z" />
<glyph unicode="&#xed;" horiz-adv-x="352" d="M104 358l31 37l139 160l45 53q10 14 25 13q29 -8 16 -31l-12 -25q-76 -139 -127 -266q-29 -66 -41 -119q-6 -27 -4 -49q0 -25 8 -25q8 -2 33 11q25 14 49 35q33 29 90 90q41 45 78 90q2 2 6 8q33 41 52 25q16 -14 -5 -43l-36 -41q-70 -82 -109 -121q-55 -55 -94 -78 q-55 -33 -86 -16q-27 12 -31 55q-6 47 23 131q27 74 77 184l-92 -108q-16 -18 -33.5 -4t-1.5 34zM301 717q0 12 8 18l4 4q2 0 9.5 6.5t11.5 8.5l61 49l39 31q12 8 27 2q14 -10 10 -25q-4 -8 -8 -14l-6 -4l-51 -39q-18 -16 -56 -45l-12 -9q-8 -8 -22.5 -3.5t-14.5 20.5z" />
<glyph unicode="&#xee;" horiz-adv-x="352" d="M104 358l31 37l139 160l45 53q10 14 25 13q29 -8 16 -31l-12 -25q-76 -139 -127 -266q-29 -66 -41 -119q-6 -27 -4 -49q0 -25 8 -25q8 -2 33 11q25 14 49 35q33 29 90 90q41 45 78 90q2 2 6 8q33 41 52 25q16 -14 -5 -43l-36 -41q-70 -82 -109 -121q-55 -55 -94 -78 q-55 -33 -86 -16q-27 12 -31 55q-6 47 23 131q27 74 77 184l-92 -108q-16 -18 -33.5 -4t-1.5 34zM295 748q-8 16 6 26q0 2 2 2l4 2l21 10q25 10 69 33l23 10l8 5q16 4 27 -13q2 0 2 -4q6 -8 17 -28.5t20 -30.5l28 -47q6 -10 2 -17q-4 -18 -20 -18q-14 0 -21 10l-4 8 q-14 25 -47 74l-4 8q-2 2 -2 4h-4q-4 -2 -9 -6t-7 -4q-27 -10 -46 -20q-27 -10 -32 -15l-9 -4q-18 1 -24 15z" />
<glyph unicode="&#xef;" horiz-adv-x="352" d="M104 358l31 37l139 160l45 53q10 14 25 13q29 -8 16 -31l-12 -25q-76 -139 -127 -266q-29 -66 -41 -119q-6 -27 -4 -49q0 -25 8 -25q8 -2 33 11q25 14 49 35q33 29 90 90q41 45 78 90q2 2 6 8q33 41 52 25q16 -14 -5 -43l-36 -41q-70 -82 -109 -121q-55 -55 -94 -78 q-55 -33 -86 -16q-27 12 -31 55q-6 47 23 131q27 74 77 184l-92 -108q-16 -18 -33.5 -4t-1.5 34zM322 762q-12 27 8 51q25 20 51 10q39 -16 27 -59q-14 -27 -43 -31q-33 0 -43 29zM434 713q-12 27 8 51q25 20 52 10q39 -16 26 -59q-14 -27 -43 -31q-33 0 -43 29z" />
<glyph unicode="&#xf0;" horiz-adv-x="645" d="M53 182q-2 76 27 125q39 82 119 166q63 68 133 105q98 55 190 53q12 0 33 -4q14 -2 17 -15.5t-5 -22.5t-22 -7h-4q-4 2 -6 2q-80 8 -164 -37q-68 -33 -127 -92q-84 -88 -121 -166q-37 -74 -21 -127q8 -33 33 -41q29 -14 80 2q125 43 234 227q72 121 157 318l78 180h-221 q-18 0 -23 2q-14 6 -14 20.5t14 22.5h262l27 63l37 88q2 14 16.5 40t32.5 18q23 -10 12 -31l-73 -178h209q8 0 18 -6q10 -10 4 -27q-6 -12 -22 -12h-228l-131 -299l-43 -100l-37 -84q-23 -53 -45 -132q-10 -41 -10 -75q0 -33 10 -43q25 -23 88 41q39 35 109 116l74 90 q12 14 28.5 6t12.5 -26q0 -2 -27 -35q-61 -76 -113 -133q-72 -76 -108 -96q-63 -35 -101 10q-35 45 -6 158q-8 -12 -28 -37q-66 -76 -136 -111q-98 -51 -159 -18q-58 26 -60 102z" />
<glyph unicode="&#xf1;" horiz-adv-x="868" d="M106.5 340q-4.5 10 2.5 18q2 4 6 11q2 2 2 4l61 78q51 57 92 94q53 49 97 63q31 10 57.5 -3t34.5 -44t0 -76q-8 -43 -29 -98q37 49 74 92q78 86 141 119q92 49 143 8q41 -33 11 -139l-78 -188q-29 -74 -31 -82q-14 -43 -12 -62q4 -45 88 2q43 27 113 101l56 71l44 58 q8 10 23.5 8t17.5 -17q0 -4 -10 -26q-4 -10 -27 -37q-70 -88 -98 -117q-80 -80 -137 -100q-31 -14 -68 -5t-45 44q-8 27 4 67q6 31 31 88l73 179q16 41 23 73q4 35 -4 45q-14 14 -51 4q-18 -2 -47 -18q-86 -45 -189 -184q-74 -100 -141 -219q-31 -57 -41 -70 q-14 -23 -35 -12q-20 8 -10 28l16 37q70 139 101 211q37 90 45 129q6 25 6 51q4 27 -13 39q-14 8 -41 -6q-27 -18 -53 -41q-61 -55 -127 -135l-30 -41q-16 -20 -31 -14q-10 2 -14.5 12zM512 764q-4 6 0 22q8 20 16 31q8 23 25 37q20 16 37 18q25 6 51 -16q18 -18 25 -43 q4 -12 10 -32.5t8 -24.5q4 -14 14 -25q8 -8 23 2q12 6 37 37q4 6 6 8l6 13q16 8 27 0q8 -4 12 -21l-6 -14q-18 -25 -21 -27q-10 -16 -34 -35q-33 -18 -56 -10q-31 8 -45 41q-4 6 -20 63q-2 4 -5.5 12.5t-5.5 12.5q-8 12 -12 12h-10q0 2 -2 0l-4 -4l-17 -18q-14 -23 -18 -35 q-4 -10 -6 -10q-6 -6 -15 -6q-14 0 -20 12z" />
<glyph unicode="&#xf2;" horiz-adv-x="591" d="M88 279q27 145 143 268q31 31 66 59q35 20 37 21q23 -4 22 -25q-2 -10 -26 -31q-18 -12 -33 -26q-35 -29 -61 -62q-57 -74 -80 -139q-29 -74 -27 -129q2 -43 26.5 -72.5t65.5 -23.5q80 10 162 100q-92 84 -33 273q29 94 78 126q33 25 68.5 19t54.5 -41q43 -76 2 -188 q-29 -90 -98 -177q59 -23 125 19q39 27 69 59l43 45q18 27 37 11q10 -10 8 -21.5t-11 -21t-15 -17.5l-56 -55q-59 -51 -104 -66q-41 -10 -72 -6q-25 4 -37 8t-18 9l-18 -19q-78 -82 -158 -100q-45 -10 -85 5t-61 54q-28 56 -14 144zM379 416q-16 -111 35 -162q33 43 55 82 q63 104 55 192q-4 49 -26 62q-25 10 -54 -19q-49 -53 -65 -155zM387 807q-4 14 10 24q12 6 27 -2l39 -30l61 -49q4 -2 11.5 -8.5t9.5 -6.5l4 -4q8 -6 8 -18q0 -16 -14.5 -20.5t-22.5 3.5l-12 9q-37 29 -55 45q-10 8 -30 22t-22 16l-6 5q-6 6 -8 14z" />
<glyph unicode="&#xf3;" horiz-adv-x="591" d="M88 279q27 145 143 268q31 31 66 59q35 20 37 21q23 -4 22 -25q-2 -10 -26 -31q-18 -12 -33 -26q-35 -29 -61 -62q-57 -74 -80 -139q-29 -74 -27 -129q2 -43 26.5 -72.5t65.5 -23.5q80 10 162 100q-92 84 -33 273q29 94 78 126q33 25 68.5 19t54.5 -41q43 -76 2 -188 q-29 -90 -98 -177q59 -23 125 19q39 27 69 59l43 45q18 27 37 11q10 -10 8 -21.5t-11 -21t-15 -17.5l-56 -55q-59 -51 -104 -66q-41 -10 -72 -6q-25 4 -37 8t-18 9l-18 -19q-78 -82 -158 -100q-45 -10 -85 5t-61 54q-28 56 -14 144zM379 416q-16 -111 35 -162q33 43 55 82 q63 104 55 192q-4 49 -26 62q-25 10 -54 -19q-49 -53 -65 -155zM385 692q0 12 8 19l4 4q2 0 9.5 6t11.5 8l61 49l39 31q12 8 27 2q14 -10 10 -25q-2 -8 -8 -14l-6 -4q-2 -2 -21.5 -16.5l-30.5 -22.5q-18 -16 -55 -45l-12 -8q-8 -8 -22.5 -4t-14.5 20z" />
<glyph unicode="&#xf4;" horiz-adv-x="591" d="M88 279q27 145 143 268q31 31 66 59q35 20 37 21q23 -4 22 -25q-2 -10 -26 -31q-18 -12 -33 -26q-35 -29 -61 -62q-57 -74 -80 -139q-29 -74 -27 -129q2 -43 26.5 -72.5t65.5 -23.5q80 10 162 100q-92 84 -33 273q29 94 78 126q33 25 68.5 19t54.5 -41q43 -76 2 -188 q-29 -90 -98 -177q59 -23 125 19q39 27 69 59l43 45q18 27 37 11q10 -10 8 -21.5t-11 -21t-15 -17.5l-56 -55q-59 -51 -104 -66q-41 -10 -72 -6q-25 4 -37 8t-18 9l-18 -19q-78 -82 -158 -100q-45 -10 -85 5t-61 54q-28 56 -14 144zM373 748q-8 16 6 26q0 2 2 2l4 2l21 10 q25 10 69 33l23 10l8 5q16 4 26 -13q2 0 3 -4q6 -8 17 -28.5t19 -30.5l29 -47q6 -10 2 -17q-4 -18 -20 -18q-14 0 -21 10l-4 8q-14 25 -47 74l-4 8q-2 2 -2 4h-4q-4 -2 -9.5 -6t-7.5 -4q-27 -10 -45 -20q-27 -10 -32 -15l-9 -4q-18 1 -24 15zM379 416q-16 -111 35 -162 q33 43 55 82q63 104 55 192q-4 49 -26 62q-25 10 -54 -19q-49 -53 -65 -155z" />
<glyph unicode="&#xf5;" horiz-adv-x="591" d="M88 279q27 145 143 268q31 31 66 59q35 20 37 21q23 -4 22 -25q-2 -10 -26 -31q-18 -12 -33 -26q-35 -29 -61 -62q-57 -74 -80 -139q-29 -74 -27 -129q2 -43 26.5 -72.5t65.5 -23.5q80 10 162 100q-92 84 -33 273q29 94 78 126q33 25 68.5 19t54.5 -41q43 -76 2 -188 q-29 -90 -98 -177q59 -23 125 19q39 27 69 59l43 45q18 27 37 11q10 -10 8 -21.5t-11 -21t-15 -17.5l-56 -55q-59 -51 -104 -66q-41 -10 -72 -6q-25 4 -37 8t-18 9l-18 -19q-78 -82 -158 -100q-45 -10 -85 5t-61 54q-28 56 -14 144zM379 416q-16 -111 35 -162q33 43 55 82 q63 104 55 192q-4 49 -26 62q-25 10 -54 -19q-49 -53 -65 -155zM381 743q-4 6 0 23q8 20 16 31q8 23 25 37q20 16 37 18q25 6 51 -16q18 -18 25 -43q4 -12 10 -33t8 -25q4 -14 14 -24q8 -8 23 2q12 6 37 37q4 6 6 8l6 12q16 8 27 0q8 -4 12 -20l-6 -15q-18 -25 -21 -26 q-10 -16 -35 -35q-33 -18 -55 -10q-31 8 -45 41q-4 6 -20 63q-2 4 -5.5 12t-5.5 13q-8 12 -12 12h-10q0 2 -2 0l-4 -4l-17 -19q-14 -23 -18 -34q-4 -10 -6 -11q-6 -6 -15 -6q-14 0 -20 12z" />
<glyph unicode="&#xf6;" horiz-adv-x="591" d="M88 279q27 145 143 268q31 31 66 59q35 20 37 21q23 -4 22 -25q-2 -10 -26 -31q-18 -12 -33 -26q-35 -29 -61 -62q-57 -74 -80 -139q-29 -74 -27 -129q2 -43 26.5 -72.5t65.5 -23.5q80 10 162 100q-92 84 -33 273q29 94 78 126q33 25 68.5 19t54.5 -41q43 -76 2 -188 q-29 -90 -98 -177q59 -23 125 19q39 27 69 59l43 45q18 27 37 11q10 -10 8 -21.5t-11 -21t-15 -17.5l-56 -55q-59 -51 -104 -66q-41 -10 -72 -6q-25 4 -37 8t-18 9l-18 -19q-78 -82 -158 -100q-45 -10 -85 5t-61 54q-28 56 -14 144zM379 416q-16 -111 35 -162q33 43 55 82 q63 104 55 192q-4 49 -26 62q-25 10 -54 -19q-49 -53 -65 -155zM418 739q-12 27 8 52q25 20 51 10q39 -16 27 -60q-14 -27 -43 -30q-33 -1 -43 28zM530 690q-12 27 9 51q25 20 51 11q39 -16 26 -60q-14 -27 -43 -30q-33 -1 -43 28z" />
<glyph unicode="&#xf7;" horiz-adv-x="743" d="M72 555q0 14 14 23h522q10 0 19 -7q10 -10 4 -26q-6 -12 -23 -13h-499q-18 0 -23 3q-14 6 -14 20zM299 397q-12 27 8 52q25 20 51 10q41 -18 27 -60q-12 -31 -43 -30q-33 -1 -43 28zM313 680q-12 27 9 51q25 20 51 10q39 -16 26 -59q-14 -27 -43 -31q-33 0 -43 29z" />
<glyph unicode="&#xf8;" horiz-adv-x="591" d="M88 279q27 145 143 268q31 31 66 59q35 20 37 21q23 -4 22 -25q-2 -10 -26 -31q-18 -12 -33 -26q-35 -29 -61 -62q-57 -74 -80 -139q-25 -55 -27 -104l21 14q18 16 43 31l55 41l63 47l19 12q2 49 20 107q29 94 78 126q33 25 68.5 19t54.5 -41q43 -76 2 -188 q-29 -90 -98 -177q59 -23 125 19q39 27 69 59l43 45q18 27 37 11q10 -10 8 -21.5t-11 -21t-15 -17.5l-56 -55q-59 -51 -104 -66q-41 -10 -72 -6q-25 4 -37 8t-18 9l-18 -19q-78 -82 -158 -100q-45 -10 -85 5t-61 54q-28 56 -14 144zM131 195q16 -88 90 -76q80 10 162 100 q-43 37 -53 113l-25 -21q-41 -29 -61 -45l-51 -35l-33 -24l-19 -12h-10zM375 360q0 -70 39 -106q33 43 55 82q43 66 53 131l-12 -8q-25 -16 -45 -33l-57 -39zM379 422l33 22l51 37l37 27l10 8l14 6v6q-4 49 -26 62q-25 10 -54 -19q-49 -49 -65 -149z" />
<glyph unicode="&#xf9;" horiz-adv-x="712" d="M111 328q-25 16 8 49l41 51q86 111 125 166q2 2 5 9t7 11q14 14 33 0q12 -12 0 -32q-55 -135 -70 -168q-47 -100 -67 -164q-16 -43 -21 -72q-8 -29 -2 -49q8 -37 72 -8q43 20 84 61q80 76 178 215q82 119 133 211q10 18 25 19q18 0 22 -19q0 -2 -6 -26q-14 -31 -39 -93 q-12 -33 -43 -105.5t-45 -111.5q-35 -92 -39 -131q-6 -25 4 -32q8 -4 29 2l22 10q39 23 119 96q74 74 131 145q23 23 39 -4q6 -14 -6 -30q-37 -43 -39 -45q-57 -66 -111 -115q-59 -59 -108 -86q-86 -45 -117 6q-18 31 0 102q14 59 64 175q-109 -154 -203 -236 q-70 -57 -127 -66q-33 -4 -56.5 12.5t-29.5 47.5q-6 43 18 119q12 39 70 178l-49 -64q-2 -2 -6 -8q-27 -32 -45 -20zM389 782q-4 14 10 25q12 6 27 -2l39 -31l61 -49q4 -2 11.5 -8t9.5 -6l4 -4q8 -6 8 -19q0 -16 -14.5 -20t-22.5 4l-12 8q-37 29 -55 45l-29.5 22.5 t-22.5 16.5l-6 4q-4 6 -8 14z" />
<glyph unicode="&#xfa;" horiz-adv-x="712" d="M111 328q-25 16 8 49l41 51q86 111 125 166q2 2 5 9t7 11q14 14 33 0q12 -12 0 -32q-55 -135 -70 -168q-47 -100 -67 -164q-16 -43 -21 -72q-8 -29 -2 -49q8 -37 72 -8q43 20 84 61q80 76 178 215q82 119 133 211q10 18 25 19q18 0 22 -19q0 -2 -6 -26q-14 -31 -39 -93 q-12 -33 -43 -105.5t-45 -111.5q-35 -92 -39 -131q-6 -25 4 -32q8 -4 29 2l22 10q39 23 119 96q74 74 131 145q23 23 39 -4q6 -14 -6 -30q-37 -43 -39 -45q-57 -66 -111 -115q-59 -59 -108 -86q-86 -45 -117 6q-18 31 0 102q14 59 64 175q-109 -154 -203 -236 q-70 -57 -127 -66q-33 -4 -56.5 12.5t-29.5 47.5q-6 43 18 119q12 39 70 178l-49 -64q-2 -2 -6 -8q-27 -32 -45 -20zM401 692q0 12 9 19l4 4q2 0 9 6t11 8l62 49l39 31q12 8 26 2q14 -10 10 -25q-2 -8 -8 -14l-6 -4q-2 -2 -21.5 -16.5l-29.5 -22.5q-18 -16 -55 -45l-13 -8 q-8 -8 -22.5 -4t-14.5 20z" />
<glyph unicode="&#xfb;" horiz-adv-x="712" d="M111 328q-25 16 8 49l41 51q86 111 125 166q2 2 5 9t7 11q14 14 33 0q12 -12 0 -32q-55 -135 -70 -168q-47 -100 -67 -164q-16 -43 -21 -72q-8 -29 -2 -49q8 -37 72 -8q43 20 84 61q80 76 178 215q82 119 133 211q10 18 25 19q18 0 22 -19q0 -2 -6 -26q-14 -31 -39 -93 q-12 -33 -43 -105.5t-45 -111.5q-35 -92 -39 -131q-6 -25 4 -32q8 -4 29 2l22 10q39 23 119 96q74 74 131 145q23 23 39 -4q6 -14 -6 -30q-37 -43 -39 -45q-57 -66 -111 -115q-59 -59 -108 -86q-86 -45 -117 6q-18 31 0 102q14 59 64 175q-109 -154 -203 -236 q-70 -57 -127 -66q-33 -4 -56.5 12.5t-29.5 47.5q-6 43 18 119q12 39 70 178l-49 -64q-2 -2 -6 -8q-27 -32 -45 -20zM373 760q-8 16 6 26q0 2 2 2l4 3l21 10q25 10 69 33l23 10l8 4q16 4 26 -12q2 0 3 -5q6 -8 17 -28.5t19 -30.5l29 -47q6 -10 2 -16q-4 -18 -20 -19 q-14 0 -21 10l-4 9q-14 25 -47 73l-4 9q-2 2 -2 4h-4q-4 -2 -9.5 -6.5t-7.5 -4.5q-27 -10 -45 -20q-27 -10 -32 -14l-9 -5q-18 1 -24 15z" />
<glyph unicode="&#xfc;" horiz-adv-x="712" d="M111 328q-25 16 8 49l41 51q86 111 125 166q2 2 5 9t7 11q14 14 33 0q12 -12 0 -32q-55 -135 -70 -168q-47 -100 -67 -164q-16 -43 -21 -72q-8 -29 -2 -49q8 -37 72 -8q43 20 84 61q80 76 178 215q82 119 133 211q10 18 25 19q18 0 22 -19q0 -2 -6 -26q-14 -31 -39 -93 q-12 -33 -43 -105.5t-45 -111.5q-35 -92 -39 -131q-6 -25 4 -32q8 -4 29 2l22 10q39 23 119 96q74 74 131 145q23 23 39 -4q6 -14 -6 -30q-37 -43 -39 -45q-57 -66 -111 -115q-59 -59 -108 -86q-86 -45 -117 6q-18 31 0 102q14 59 64 175q-109 -154 -203 -236 q-70 -57 -127 -66q-33 -4 -56.5 12.5t-29.5 47.5q-6 43 18 119q12 39 70 178l-49 -64q-2 -2 -6 -8q-27 -32 -45 -20zM414 748q-12 27 8 51q25 20 51 10q39 -16 27 -59q-14 -27 -43 -31q-33 0 -43 29zM526 698q-12 27 9 52q25 20 51 10q39 -16 26 -60q-14 -27 -43 -30 q-33 -1 -43 28z" />
<glyph unicode="&#xfd;" horiz-adv-x="780" d="M102 342q-2 10 19 37l33 39q86 100 110 125q63 63 103 71q31 6 57 -10q29 -23 29 -63q4 -53 -43 -185q-49 -123 -60 -176q-4 -41 2 -53q8 -10 39 -4q35 10 86 53q82 74 201 232q61 86 90 131q12 20 20 30q12 20 25 21q12 2 18.5 -10.5t2.5 -24.5l-175 -432 q129 119 230 239q8 8 19.5 8.5t17.5 -10.5q8 -14 -15 -43l-75 -86q-96 -100 -168 -161l-41 -37q-6 -6 -23 -43q-2 -8 -16 -41q-8 -25 -29 -74q-49 -119 -76 -176q-41 -86 -84 -131q-57 -66 -123 -68q-43 -2 -69.5 27t-26.5 72q2 90 109 204q51 55 151 134l84 67l41 37 q14 10 17 14l6 15l125 307q-117 -160 -207 -236q-63 -55 -119 -65q-37 -8 -61 14q-23 16 -23 53q-2 27 10 80l33 99q47 123 57 178q8 39 0 57q-10 20 -41 8l-49 -37l-25 -26q-19 -20 -30 -33l-82 -96l-31 -37q-8 -12 -24.5 -11t-18.5 17zM233.5 -436q18.5 -33 69.5 -10 q27 8 51 32q43 41 82 123q31 59 80 182q4 14 29 72q-16 -14 -63.5 -50t-79 -63.5t-60.5 -56.5q-70 -70 -98 -135q-29 -61 -10.5 -94zM516 651q0 12 8 19l4 4q2 0 9.5 6t11.5 8l61 49l39 31q12 8 27 2q14 -10 10 -25q-2 -8 -8 -14l-6 -4q-2 -2 -21.5 -16.5l-29.5 -22.5 q-18 -16 -56 -45l-12 -8q-8 -8 -22.5 -4t-14.5 20z" />
<glyph unicode="&#xfe;" horiz-adv-x="671" d="M-129 -442q0 4 4 12q0 6 4 10l43 98l49 115l54 125l55 129l23 57l28 68q20 45 57 139l56 138l-8 -9l-86 -98q-16 -16 -23 -16q-16 -4 -25 12q-6 14 4 24l23 27l49 57l60 66q2 2 47 53l6 8l4 5v2q2 0 2 4l31 73l57 131q33 78 51 115l43 96l39 78q27 49 33 58q35 53 63 75 q37 31 80 25q20 -6 37 -23q20 -20 21 -51q4 -33 -9 -59l-14 -35q-18 -41 -53 -92q-23 -37 -76 -111q-41 -53 -82 -100l-22 -27l-16 -16l-16 -20q-9 -11 -15 -17l-54 -61l-39 -45l-8 -11q-2 0 -2 -2l-10 -10l-2 -4q-8 -18 -27.5 -68.5t-32.5 -76.5l31 34q55 66 96 103 q53 47 97 71q49 29 82 31q41 8 61 -18q14 -16 16 -35q4 -18 5 -53q-2 -59 -27 -123q-18 -61 -49 -117q-37 -66 -70 -106q-45 -55 -86 -84q74 14 127 45q55 37 102 84q53 53 78 81q29 29 41 46l4 2q12 10 26.5 -0.5t8.5 -24.5l-6 -12l-10 -11l-51 -55q-59 -63 -95 -94 q-55 -49 -108 -74q-61 -27 -121 -35q-55 -8 -111 -6q-37 0 -82 11q-4 0 -8 1t-6 1q-12 4 -16 10q-10 10 -4 24q10 14 24 13q6 0 15 -4q6 0 18 -5h27q20 -2 45 5q45 8 86 43q39 31 75 77q37 53 62 101q20 41 43 104q8 23 14 53q8 41 8 64q0 20 -6 37l-6 8q-2 2 -8 2 q-16 4 -49 -10q-33 -16 -66 -41l-78 -68q-47 -47 -79 -88q-53 -70 -76 -104l-35 -58l-16 -30q-6 -12 -9 -15l-2 -2v-2q-2 0 -2 -4q0 -2 -1 -4t-1 -4q-10 -23 -26 -68l-6 -14q-2 -2 -3 -6q-4 -8 -8 -10l-57 -140l-59 -135l-54 -127l-47 -106l-6 -13l-6 -10q-10 -10 -27 -6 q-12 7 -12 23zM391 688l51 60l62 69q55 66 88 117q35 45 67 102q29 49 39 76q10 25 9 47q-4 18 -13 25q-6 6 -14 6q-16 0 -35 -14q-23 -14 -45 -50l-14 -22l-37 -68l-43 -92l-53 -115z" />
<glyph unicode="&#xff;" horiz-adv-x="780" d="M102 342q-2 10 19 37l33 39q86 100 110 125q63 63 103 71q31 6 57 -10q29 -23 29 -63q4 -53 -43 -185q-49 -123 -60 -176q-4 -41 2 -53q8 -10 39 -4q35 10 86 53q82 74 201 232q61 86 90 131q12 20 20 30q12 20 25 21q12 2 18.5 -10.5t2.5 -24.5l-175 -432 q129 119 230 239q8 8 19.5 8.5t17.5 -10.5q8 -14 -15 -43l-75 -86q-96 -100 -168 -161l-41 -37q-6 -6 -23 -43q-2 -8 -16 -41q-8 -25 -29 -74q-49 -119 -76 -176q-41 -86 -84 -131q-57 -66 -123 -68q-43 -2 -69.5 27t-26.5 72q2 90 109 204q51 55 151 134l84 67l41 37 q14 10 17 14l6 15l125 307q-117 -160 -207 -236q-63 -55 -119 -65q-37 -8 -61 14q-23 16 -23 53q-2 27 10 80l33 99q47 123 57 178q8 39 0 57q-10 20 -41 8l-49 -37l-25 -26q-19 -20 -30 -33l-82 -96l-31 -37q-8 -12 -24.5 -11t-18.5 17zM233.5 -436q18.5 -33 69.5 -10 q27 8 51 32q43 41 82 123q31 59 80 182q4 14 29 72q-16 -14 -63.5 -50t-79 -63.5t-60.5 -56.5q-70 -70 -98 -135q-29 -61 -10.5 -94zM532 694q-12 27 9 51q25 20 51 11q39 -16 26 -60q-14 -27 -43 -30q-33 -1 -43 28zM645 645q-12 27 8 51q25 20 52 11q39 -16 26 -60 q-14 -27 -43 -31q-33 0 -43 29z" />
<glyph unicode="&#x131;" horiz-adv-x="352" d="M104 358l31 37l139 160l45 53q10 14 25 13q29 -8 16 -31l-12 -25q-76 -139 -127 -266q-29 -66 -41 -119q-6 -27 -4 -49q0 -25 8 -25q8 -2 33 11q25 14 49 35q33 29 90 90q41 45 78 90q2 2 6 8q33 41 52 25q16 -14 -5 -43l-36 -41q-70 -82 -109 -121q-55 -55 -94 -78 q-55 -33 -86 -16q-27 12 -31 55q-6 47 23 131q27 74 77 184l-92 -108q-16 -18 -33.5 -4t-1.5 34z" />
<glyph unicode="&#x141;" horiz-adv-x="1110" d="M68 266q39 76 133 92.5t166 -16.5q43 -12 94 -41l47 -27q4 -2 6 5l6 8l12 20q41 68 91 174l32 80q-6 -4 -14 -8l-8 -2l-76 -33l-68 -31l-57 -24l-37 -17q-16 -8 -22 -8q-14 4 -21 15q-6 12 4 26q6 0 11 4l26 13l49 20l64 29l72 30l102 46l100 262q-174 -29 -315 0 q-90 18 -148 57q-37 27 -51 59q-16 39 -2 56q16 18 35 0q4 -6 5 -19.5t3 -17.5q12 -29 55 -51q49 -27 146 -43q90 -14 199 -4l55 6l26 4q2 0 6.5 1t6.5 1l6 12q18 47 43 92q94 197 219 240q84 29 131 -12q49 -41 25 -121q-43 -133 -262 -215q-51 -18 -101 -31l-28 -6l-9 -25 q-8 -14 -20 -47l-66 -174l25 12q39 20 70 31l59 27q25 12 41 18l12 6q10 2 21 0q14 -4 14 -22q-4 -16 -16 -21h-4l-27 -12l-51 -22l-64 -29l-102 -45q-96 -231 -168 -340q98 -61 149 -90q102 -55 187 -56q84 2 151 62q45 35 131 139l52 59q14 16 30.5 3t5.5 -29 q-4 -6 -11 -14.5t-9 -10.5l-76 -90q-74 -82 -119 -112q-70 -49 -149 -52q-61 -2 -128 20.5t-119 57.5t-112 70q-10 6 -12 4l-8 -10l-14 -19l-33 -35q-33 -33 -70 -57q-88 -53 -180 -51q-90 0 -135 65q-53 76 -12 164zM102 229q-12 -41 4.5 -79.5t53.5 -55.5q70 -31 172 15 q74 29 151 127q-41 25 -80 43q-106 49 -188 36q-88 -14 -113 -86zM856 944q109 29 180 68q82 43 123 100q43 68 19 107q-29 49 -127 0q-51 -27 -105 -103q-41 -63 -90 -172z" />
<glyph unicode="&#x142;" horiz-adv-x="405" d="M104 342q-4 12 33 55l49 64l12 12l12 15l11 14q14 20 15 22l6 13q2 6 4 10q31 84 57 143q29 76 62 154q-33 -16 -52 -23l-57 -24l-37 -17q-16 -8 -22 -8q-14 4 -21 14q-6 12 4 27q6 0 10 4l27 12l49 21l64 29q41 16 61 26l2 4l72 148q45 86 80 125q70 84 127 53 q33 -16 38 -59t-12 -72q-10 -31 -41 -82l60 27q25 12 41 18l12 6q10 2 21 0q14 -4 14 -22q-4 -16 -17 -21h-4l-26 -12l-51 -23l-64 -28l-29 -13q-53 -82 -122 -174l-207 -272q-8 -8 -15 -21l-8 -24l-18 -49q-18 -51 -31 -95q-12 -41 -18 -79q-8 -59 6 -92t48 -26t67 38 l66 61q32 31 42 45l63 70q2 2 7 8q41 49 59 27q10 -16 -6 -37q-33 -39 -35 -41l-68 -72q-59 -68 -112 -106q-57 -41 -96 -39q-43 0 -66 33.5t-25 80.5q-2 61 41 195q-14 -16 -39 -49q-8 -12 -23.5 -11t-19.5 17zM336 649l186 252l13 17l-78 -33l-31 -15q-20 -45 -29 -67z M455 932l69.5 29.5t57.5 25.5q37 55 67 117q27 59 6 86q-6 8 -26 4q-41 -16 -86 -94q-31 -47 -64 -119z" />
<glyph unicode="&#x152;" horiz-adv-x="1581" d="M63 516q33 193 136 389q80 152 182 244q150 139 299 125q35 0 45 -14q12 -25 -10 -35q-6 -2 -21 2q-4 0 -9 1t-7 1q-53 6 -119 -21q-209 -80 -348 -383q-92 -203 -109 -368q-18 -145 23 -248q16 -41 45 -74q53 -59 137 -53q133 10 258 151q98 104 176 277q70 150 105 311 q-100 -12 -166 72q-55 74 -27 182q27 98 95 135q59 31 106 -6q39 -29 55 -108q14 -80 -4 -205q76 39 125 115q18 25 29 57q2 6 2 18q4 33 20 35q20 2 25.5 -20.5t-0.5 -38.5q-8 -31 -29 -68q-45 -68 -116 -121q-25 -16 -39 -22l-19 -8q-6 -4 -8 -13l-18 -73 q-37 -152 -113 -308q-84 -162 -184 -264q-129 -129 -265 -143q-94 -6 -155 45q-45 39 -78 108q-50 129 -19 326zM705 1083q-35 -94 10 -157q51 -76 141 -54q18 106 12 187q-10 100 -53 117q-35 14 -65.5 -19t-44.5 -74zM823 180q-23 88 10 177t101 157q115 121 305 172 q-70 106 -65 236q4 201 147 286q74 41 168 35q96 -8 149 -53q33 -29 41 -64q8 -25 -4 -34q-18 -14 -33 2q-4 4 -7 16t-5 16q-6 16 -22 29q-31 25 -74 35q-88 23 -164 -10q-78 -29 -119 -117q-39 -80 -31.5 -176t54.5 -172q10 -16 16 -17q16 4 25 4q8 2 25.5 4.5t19.5 2.5 q51 0 76 -7q72 -14 77 -63q6 -41 -35.5 -54.5t-84.5 -6.5q-53 10 -84 36q-18 10 -37 33l-45 -12q-182 -55 -289 -182q-63 -80 -74 -160q-16 -106 45 -182q76 -94 244 -74q139 18 274 96q158 90 261 229q10 14 26.5 7t14.5 -23q-2 -8 -17 -29l-22 -26q-47 -55 -99 -98 q-111 -94 -231 -148q-160 -70 -301 -55q-90 10 -150 55q-61 47 -86 135zM1325 657q43 -35 98 -36q4 0 15.5 1t21.5 5t6 10q-8 16 -39 20q-43 10 -102 0z" />
<glyph unicode="&#x153;" horiz-adv-x="1028" d="M88 279q27 145 143 268q31 31 66 59q35 20 37 21q23 -4 22 -25q-2 -10 -26 -31q-18 -12 -33 -26q-35 -29 -61 -62q-57 -74 -80 -139q-29 -74 -27 -129q2 -43 26.5 -72.5t65.5 -23.5q80 10 162 100q-92 84 -33 273q29 94 78 126q33 25 68.5 19t54.5 -41q43 -76 2 -188 q-29 -90 -98 -177q59 -23 125 19q39 27 69 59l43 45q0 2 2 2q43 119 140 209q59 55 114 66q96 16 119 -53q25 -86 -102 -175q-63 -39 -148 -65q-16 -6 -49 -14l-25 -7q-2 0 -6 -1t-6 -1t-2 -4t-2 -4q-16 -53 -16 -102q4 -47 22 -68q25 -20 51 -20q45 -4 113 26 q63 35 131 101l70 73l37 45q14 18 32 5q16 -14 -10 -52l-49 -55q-47 -51 -90 -88q-135 -115 -242 -102q-72 10 -98 69q-20 51 -10 123l-13 -12q-59 -51 -104 -66q-41 -10 -72 -6q-25 4 -37 8t-18 9l-18 -19q-78 -82 -158 -100q-45 -10 -85 5t-61 54q-28 56 -14 144zM379 416 q-16 -111 35 -162q33 43 55 82q63 104 55 192q-4 49 -26 62q-25 10 -54 -19q-49 -53 -65 -155zM752 369q166 41 237 116q29 29 35 60q2 25 -16.5 35t-44.5 6q-53 -4 -117 -72q-55 -61 -94 -145z" />
<glyph unicode="&#x160;" horiz-adv-x="942" d="M54 60.5q-7 13.5 1 25.5l27 39l203 309l194 299l60 88l28 45q2 4 -4 25q-4 10 -8 27q-29 111 18 204q39 82 101 127q55 41 104 27q45 -14 49 -59q6 -41 -22 -87q-8 -14 -26.5 -38.5t-22.5 -32.5l-56 -78l-59 -88l-18 -27l6 -22l20 -43q20 -41 109 -193q25 -41 41 -72.5 t33.5 -76.5t24.5 -82t4 -81t-17 -83q127 45 207 149q18 23 34 3q14 -16 -8 -43q-55 -72 -139 -119q-25 -14 -78 -35l-41 -12q-2 0 -24 -29q-82 -96 -244 -125q-70 -10 -123 -2q-84 14 -84 70q0 70 94 86q16 4 185 14q53 2 106 12l31 6q23 6 24 9q8 14 21 47q27 80 -10 186 q-27 76 -104 204t-101 183l-168 -256l-238 -364l-88 -134q-6 -14 -20 -14q-15 -2 -22 11.5zM394 83q-9 -13 5 -26q23 -14 66 -14q39 -2 90 8q121 27 186 86q-59 -10 -233 -18q-61 -4 -88 -17q-17 -6 -26 -19zM590 997q0 -43 12 -79q4 8 16 24q74 111 113 164q41 57 47 72 q14 53 -20 55q-43 4 -96 -57q-72 -87 -72 -179zM713 1493q2 12 18 20q12 2 25 -10q0 -2 2 -4v-4q0 -2 3 -7t3 -9l18 -43l15 -39l2 -2q0 2 2 2h2h6l4 2q4 2 11 4t12 4l67 14q20 8 29 -14q4 -18 -10 -25q-2 -4 -9 -4q-4 -2 -11 -4t-11 -4q-35 -6 -74 -18q-25 -4 -26 -6h-7 q-18 -4 -22 12q-4 8 -9 24l-8 23l-28 68q0 2 -2 9t-2 11z" />
<glyph unicode="&#x161;" horiz-adv-x="497" d="M-39 176q0 25 21 25q10 2 36 -25q16 -16 35 -29q37 -27 76 -38q14 -6 43 -11q25 -4 39 -2q53 12 74 72q18 51 18 145q0 20 -3 91t-1 110l-125 -143l-37 -39q-12 -18 -28 -2q-12 10 -8.5 23.5t15 23.5t19.5 18l184 215l25 29q14 14 30.5 3t8.5 -28q-2 -6 -12.5 -16 t-12.5 -18q-10 -25 -14 -82q-2 -35 1 -103.5t3 -101.5q0 -117 -35 -174q88 33 174 112q68 61 115 129q14 18 32.5 5t6.5 -31l-49 -62q-61 -72 -125 -118q-170 -131 -326 -97q-82 18 -151 84q-27 21 -29 35zM336 877q2 12 18 20q12 2 25 -10q0 -2 2 -6v-2q0 -2 3 -7.5t3 -9.5 l19 -43l14 -39l2 -2h2q2 0 2 2q2 0 6 2h4q4 2 11.5 4t11.5 5l67 14q20 8 29 -14q4 -18 -10 -25q-2 -4 -8 -4q-4 -2 -11.5 -4t-11.5 -4q-35 -6 -74 -19q-25 -4 -26 -6h-6q-18 -4 -23 12q-4 8 -9 25l-7 22l-29 68q0 2 -2 9.5t-2 11.5z" />
<glyph unicode="&#x178;" horiz-adv-x="864" d="M55 -440q-18 68 54 155q41 51 129 101q23 14 184 100l98 51q12 6 17 17l12 18l47 80q61 104 149 295l160 364q-135 -223 -243 -358q-100 -125 -179 -197q-109 -102 -196 -125q-49 -14 -92 -2q-61 18 -72 91q-4 45 10 112q18 76 57 170l73 176l87 213l68 180q25 68 43 132 q12 37 -15 53q-16 10 -57 14q-82 2 -172 -39q-45 -18 -70 -49q-12 -12 -12 -25q0 -23 -20.5 -24.5t-24.5 18t4 33.5q12 27 47 57q68 51 168 68q94 20 154 -8q31 -18 41 -43q12 -27 0 -74q-31 -111 -111 -307l-123 -301q-74 -178 -92 -258q-10 -41 -10 -74q0 -41 16 -57 q33 -31 103 -8q49 16 114 67q53 41 125 117q115 123 244 319q119 182 207 346q49 86 76 146q10 18 26 59q4 12 14.5 28.5t26.5 10.5q25 -8 6 -47l-20 -49l-21 -47l-202 -488q-147 -340 -271 -551l13 7q121 78 268 241l49 58l21 24q20 18 24 21q27 4 27 -23q0 -8 -15 -26 q-20 -27 -45 -52q-139 -160 -256 -247q-25 -18 -77 -52l-52 -28l-12 -19l-12 -20q-59 -102 -107 -172q-68 -98 -119 -152q-74 -80 -145 -90q-41 -4 -75 13.5t-44 56.5zM106 -377q-18 -49 7 -74q35 -20 69.5 -11t65.5 36q63 57 125 143q51 74 114 181l-190 -101 q-102 -57 -141 -100q-36 -35 -50 -74zM692 1362q-12 27 8 51q25 20 52 10q39 -16 26 -59q-14 -27 -43 -31q-33 0 -43 29zM805 1313q-12 27 8 51q25 20 51 10q39 -16 27 -59q-14 -27 -43 -31q-33 0 -43 29z" />
<glyph unicode="&#x17d;" horiz-adv-x="876" d="M68 -379q29 68 110 133q61 53 176 123l91 52l87 48l50 29l10 6q6 4 6 13l6 24q10 51 -2 98q-8 43 -39 82q-18 20 -35 33q-8 8 -20 14q-6 4 -10 3l-11 -7q-109 -49 -202 -57q-119 -12 -138 49q-10 35 20 59.5t69 34.5q90 25 188 4q33 -8 47 -14l21 -8l10 -6l10 6 q49 29 74 47q154 109 248 264q49 76 79 164q39 109 27 193q-12 90 -86 137q-70 45 -168 39q-168 -10 -280 -111q-47 -47 -64 -82q-12 -20 -14 -35l-6 -36q-14 -20 -35 -7q-8 8 -8 25q0 18 6 37q10 39 45 84q80 102 223 147q209 66 338 -30q133 -100 88 -306 q-41 -170 -166 -329q-111 -145 -266 -234q66 -49 88 -112q25 -63 14 -146q96 66 178 141l95 99l47 55q27 39 47 23q14 -12 3 -32t-24 -30l-49 -57q-41 -47 -96 -98q-57 -53 -129 -107q-41 -29 -62 -41l-16 -12l-8 -4q0 -2 -1 -6.5t-1 -6.5q-4 -16 -17 -45 q-70 -166 -186 -274q-59 -55 -135 -103q-98 -55 -154 -59q-47 0 -69 23q-37 36 -4 106zM115 -391q-35 -57 0 -68q20 -4 49 2t82 35q111 59 196 154q80 92 131 217l-84 -49l-94 -54q-109 -61 -176 -118q-77 -62 -104 -119zM195 274q16 -20 75 -14q80 6 176 47q-70 23 -135 17 q-47 0 -90 -19q-34 -23 -26 -31zM807 1425q2 12 18 21q12 2 25 -10q0 -2 2 -6v-3q0 -2 3 -7t3 -9l19 -43l14 -39l2 -2h2q2 0 2 2q2 0 6 2h4q4 2 11.5 4t11.5 4l67 15q20 8 29 -15q4 -18 -10 -24q-2 -4 -8 -4q-4 -2 -11.5 -4t-11.5 -4q-35 -6 -74 -19q-25 -4 -26 -6h-6 q-18 -4 -23 12q-4 8 -9 25l-7 22l-29 68q0 2 -2 9t-2 11z" />
<glyph unicode="&#x17e;" horiz-adv-x="624" d="M-16 -375q29 78 114 160q39 39 154 123l86 61q16 10 45 35l20 16q8 6 13 23q18 51 8 80q-2 10 -10 18l-6 9q-6 6 -9 2l-45 -29q-102 -63 -157 -45q-31 10 -37 35q-4 27 24 61q68 70 166 53q25 -6 49 -18q37 31 39 33q41 39 72 73q78 100 74 170q-2 45 -38 67.5t-85 20.5 q-53 -2 -111.5 -38.5t-80.5 -60.5l-83 -91l-26 -29q-23 -27 -31 -28q-18 -2 -24.5 13t4.5 28l32 36l50 56l54 53q26 25 57.5 48.5t64.5 37.5q88 35 163 14q90 -27 101 -118q6 -74 -53 -164q-53 -80 -140 -148q39 -41 33 -98l111 117l92 98l47 53q27 27 43 13q16 -16 -4 -39 l-246 -265l-51 -51l-12 -10q-4 -8 -5 -12l-10 -21q-12 -33 -20 -47q-47 -111 -88 -186q-49 -92 -90 -150q-45 -63 -97 -90q-63 -33 -116 -10q-74 37 -41 141zM27 -391q-25 -80 36 -88q78 -6 160 125q59 86 152 293l-86.5 -60.5t-104.5 -77t-78 -71.5q-63 -66 -79 -121z M205 127q-2 -4 2 -5t8 -1q18 -2 61 12q37 16 82 47q-51 14 -104 -12q-23 -8 -41 -31zM563 856q2 12 19 21q12 2 24 -11v-6l2 -2q0 -2 3 -7t3 -9l19 -43l14 -39l2 -2h2q2 0 2 2q2 0 6 2h5q4 2 11 4t11 4l68 14q20 8 28 -14q4 -18 -10 -25q-2 -4 -8 -4q-4 -2 -11.5 -4 t-11.5 -4q-35 -6 -73 -18q-25 -4 -27 -6h-6q-18 -4 -23 12q-4 8 -9 24l-7 23l-29 68q0 2 -2 9t-2 11z" />
<glyph unicode="&#x192;" horiz-adv-x="307" d="M-403 -385q10 80 81 166q49 61 144 147l80 72l41 37q35 29 37 35l81 209l80 200q-14 -16 -63 -68l-78 -81q-16 -16 -31.5 0t-1.5 33l15 14l92 98l67 74l39 43q8 6 15 22q8 16 10 25l80 195q84 203 114 266q86 170 183 127q39 -18 47 -65.5t-13 -82.5q-23 -49 -61 -106 q-76 -111 -221 -279l-64 -73l-32 -37q-8 -6 -23 -43l-53 -135l-109 -275q72 66 127 123l62 70q6 12 23.5 29.5t33.5 4.5q16 -14 2 -36l-31 -37l-61 -66q-66 -70 -121 -119l-74 -65l-43 -103l-77 -176q-41 -86 -72 -135q-35 -59 -62 -90q-47 -51 -96 -45q-43 6 -59 45t-8 82z M-358 -393q-4 -39 8 -60q16 -25 51 -4q18 8 49 49q27 39 55 95q53 100 132 282q-170 -150 -238 -237q-49 -64 -57 -125zM281 707q113 127 182 219q90 121 112 176q23 49 -2 76q-29 31 -77 -15q-35 -35 -76 -124.5t-139 -331.5z" />
<glyph unicode="&#x2c6;" horiz-adv-x="417" d="M106 1384q-8 16 7 27q0 2 2 2l4 2l20 10q25 10 70 33l22 10l9 5q16 4 26 -13q2 0 2 -4q6 -8 17.5 -28.5t19.5 -30.5l29 -47q6 -10 2 -17q-4 -18 -21 -18q-14 0 -20 10l-4 8q-14 25 -47 74l-4 8q-2 2 -2 4h-5q-4 -2 -9 -6t-7 -4q-27 -10 -45 -20q-27 -10 -33 -15l-8 -4 q-19 0 -25 14z" />
<glyph unicode="&#x2c7;" horiz-adv-x="417" d="M121 1442q2 12 18 20q12 2 25 -10v-6l2 -2q0 -2 3 -7t3 -10l18 -43l15 -38l2 -3h2q2 0 2 3q2 0 6 2h4q4 2 11.5 4t11.5 4l67 14q20 8 29 -14q4 -18 -10 -25q-2 -4 -8 -4q-4 -2 -11.5 -4t-11.5 -4q-35 -6 -74 -19q-25 -4 -26 -6h-6q-18 -4 -23 13q-4 8 -9 24l-7 23l-29 67 q0 2 -2 9.5t-2 11.5z" />
<glyph unicode="&#x2d8;" d="M2 76v43q0 4 4 4h639v-43q0 -4 -4 -4h-639zM2 608v33q0 14 4 14h324v-39q0 -8 -4 -8h-324zM2 1200v43q0 4 4 4h639v-43q0 -4 -4 -4h-639z" />
<glyph unicode="&#x2d9;" d="M2 76v43q0 4 4 4h639v-43q0 -4 -4 -4h-639zM2 608v33q0 14 4 14h324v-39q0 -8 -4 -8h-324zM2 1200v43q0 4 4 4h639v-43q0 -4 -4 -4h-639z" />
<glyph unicode="&#x2da;" horiz-adv-x="401" d="M102 1372q27 53 88 53q47 0 76 -34q41 -45 19 -103q-20 -57 -82 -63t-94 43q-38 49 -7 104zM141 1348q-12 -27 4 -54q18 -25 45 -24q12 0 19 2q29 10 35 39q8 27 -13 51q-20 23 -49 16q-31 -3 -41 -30z" />
<glyph unicode="&#x2db;" d="M2 76v43q0 4 4 4h639v-43q0 -4 -4 -4h-639zM2 608v33q0 14 4 14h324v-39q0 -8 -4 -8h-324zM2 1200v43q0 4 4 4h639v-43q0 -4 -4 -4h-639z" />
<glyph unicode="&#x2dc;" horiz-adv-x="464" d="M94 1372q-4 6 0 23q8 20 17 30q8 20 24 37q20 16 37 19q25 6 51 -17q18 -18 25 -43q4 -12 10 -32.5t8 -24.5q4 -14 15 -25q8 -8 22 2q12 6 37 37q4 6 6 8l6 13q16 8 27 0q8 -4 12 -21l-6 -14q-18 -25 -20 -27q-10 -16 -35 -34q-33 -18 -56 -11q-31 8 -45 41q-4 6 -20 64 q-2 4 -5 12t-5 12q-8 12 -13 13h-10q0 2 -2 0l-4 -4l-16 -19q-14 -23 -19 -35q-4 -10 -6 -10q-6 -6 -14 -6q-15 0 -21 12z" />
<glyph unicode="&#x2dd;" d="M2 76v43q0 4 4 4h639v-43q0 -4 -4 -4h-639zM2 608v33q0 14 4 14h324v-39q0 -8 -4 -8h-324zM2 1200v43q0 4 4 4h639v-43q0 -4 -4 -4h-639z" />
<glyph unicode="&#x2000;" horiz-adv-x="755" />
<glyph unicode="&#x2001;" horiz-adv-x="1513" />
<glyph unicode="&#x2002;" horiz-adv-x="755" />
<glyph unicode="&#x2003;" horiz-adv-x="1513" />
<glyph unicode="&#x2004;" horiz-adv-x="503" />
<glyph unicode="&#x2005;" horiz-adv-x="376" />
<glyph unicode="&#x2006;" horiz-adv-x="251" />
<glyph unicode="&#x2007;" horiz-adv-x="251" />
<glyph unicode="&#x2008;" horiz-adv-x="188" />
<glyph unicode="&#x2009;" horiz-adv-x="301" />
<glyph unicode="&#x200a;" horiz-adv-x="83" />
<glyph unicode="&#x2010;" horiz-adv-x="892" d="M248 537q0 16 14 22h445q10 0 18 -6q10 -10 4 -27q-6 -12 -22 -12h-422q-18 0 -23 2q-14 9 -14 21z" />
<glyph unicode="&#x2011;" horiz-adv-x="892" d="M248 537q0 16 14 22h445q10 0 18 -6q10 -10 4 -27q-6 -12 -22 -12h-422q-18 0 -23 2q-14 9 -14 21z" />
<glyph unicode="&#x2012;" horiz-adv-x="892" d="M248 537q0 16 14 22h445q10 0 18 -6q10 -10 4 -27q-6 -12 -22 -12h-422q-18 0 -23 2q-14 9 -14 21z" />
<glyph unicode="&#x2013;" horiz-adv-x="743" d="M72 555q0 14 14 23h522q10 0 19 -7q10 -10 4 -26q-6 -12 -23 -13h-499q-18 0 -23 3q-14 6 -14 20z" />
<glyph unicode="&#x2014;" horiz-adv-x="835" d="M72 555q0 14 14 23h645q10 0 19 -7q10 -10 4 -26q-6 -12 -23 -13h-622q-18 0 -23 3q-14 6 -14 20z" />
<glyph unicode="&#x2018;" horiz-adv-x="471" d="M158 930v12q4 47 69 152q6 10 21 28l20 27q16 23 39 10q20 -14 10 -37l-34 -51q-12 -14 -33 -47q-2 -6 -11.5 -21.5t-13.5 -25.5q-2 -4 0 -6l11 -8q8 -4 12 -17q10 -25 -6.5 -45t-40.5 -16q-39 4 -43 45z" />
<glyph unicode="&#x2019;" horiz-adv-x="471" d="M162 924l35 51q12 14 32 47q2 6 11.5 21.5t13.5 25.5q2 4 0 6l-10 8q-8 4 -13 17q-10 25 6.5 45t41.5 16q37 -4 43 -49v-8q-4 -47 -70 -152l-21 -26q-14 -18 -20 -29q-16 -23 -39 -10q-20 14 -10 37z" />
<glyph unicode="&#x201a;" horiz-adv-x="471" d="M158 -49l35 51q12 14 32 47q2 6 11.5 21.5t13.5 25.5q2 4 0 6l-10 9q-8 4 -13 16q-10 25 6.5 45.5t40.5 15.5q37 -4 43 -49v-8q-4 -47 -69 -151q-6 -10 -21 -29l-20 -27q-16 -23 -39 -10q-20 14 -10 37z" />
<glyph unicode="&#x201c;" horiz-adv-x="585" d="M119 944v12q4 47 69 152l21 27q14 18 20 28q16 23 39 11q23 -14 11 -37l-35 -52q-12 -14 -33 -47q-2 -6 -11.5 -21.5t-13.5 -25.5q-2 -4 0 -6l11 -8q8 -4 12 -16q10 -25 -6.5 -45.5t-40.5 -16.5q-39 4 -43 45zM317 948v8q4 47 70 152l21 27q14 18 20 28q16 23 39 11 q20 -14 10 -37l-35 -52q-12 -14 -32 -47q-2 -6 -11.5 -21.5t-13.5 -25.5q-2 -4 0 -6l10 -8q8 -4 13 -16q10 -25 -6.5 -45.5t-41.5 -16.5q-37 4 -43 49z" />
<glyph unicode="&#x201d;" horiz-adv-x="585" d="M123 938l35 51q12 14 32 47q2 6 11.5 21.5t13.5 25.5q2 4 0 7l-10 8q-8 4 -12 16q-10 25 6 45.5t41 16.5q37 -4 43 -48v-10q-4 -47 -70 -151q-6 -10 -20 -29l-21 -27q-16 -23 -39 -10q-22 14 -10 37zM322 938l34 51q12 14 33 47q2 6 11.5 21.5t13.5 25.5q2 4 0 7l-11 8 q-8 4 -12 16q-10 25 6.5 45.5t40.5 16.5q37 -4 43 -48v-10q-4 -47 -69 -151q-6 -10 -21 -29l-20 -27q-16 -23 -39 -10q-20 14 -10 37z" />
<glyph unicode="&#x201e;" horiz-adv-x="585" d="M158 -49l35 51q12 14 32 47q2 6 11.5 21.5t13.5 25.5q2 4 0 6l-10 9q-8 4 -13 16q-10 25 6.5 45.5t40.5 15.5q37 -4 43 -47v-10q-4 -47 -69 -151q-6 -10 -21 -29l-20 -27q-16 -23 -39 -10q-20 14 -10 37zM356 -49l35 51q12 14 33 47q2 6 11 21.5t14 25.5q2 4 0 6l-11 9 q-8 4 -12 16q-10 25 6.5 45.5t40.5 15.5q37 -4 43 -47v-10q-4 -47 -70 -151l-20 -27q-14 -18 -20 -29q-16 -23 -39 -10q-23 14 -11 37z" />
<glyph unicode="&#x2020;" horiz-adv-x="534" d="M31 371l55 69q88 100 139 142q74 57 125 39q59 -23 43 -117q-10 -49 -76 -189q-51 -102 -63 -155q-12 -33 0 -45q12 -10 49 2q45 18 109 82q55 55 104 116q20 20 35 41q14 16 32.5 2t4.5 -30l-66 -78q-31 -37 -68.5 -76t-74.5 -65q-61 -45 -107 -46q-31 2 -49 19.5 t-18 46.5q-2 25 14.5 74t36.5 90q72 160 78 178q39 102 -10 109q-25 4 -86 -48q-51 -45 -101 -104l-43 -53l-31 -37q-16 -14 -31 1.5t-1 31.5z" />
<glyph unicode="&#x2021;" horiz-adv-x="401" d="M-119 184q10 61 47 160q27 74 76 180l37 82q14 37 39 17q12 -8 0 -39t-43 -102l-47 -109q-33 -76 -53 -146q-20 -74 -11 -106q16 -59 140 49q63 55 149 154q109 125 231 284q10 14 29 4t10 -26q-4 -10 -28 -39q-8 -12 -29 -37l-104 -131q-98 -119 -183 -201 q-66 -66 -112 -96q-41 -25 -66 -27q-43 -4 -65 25q-29 30 -17 104z" />
<glyph unicode="&#x2022;" horiz-adv-x="401" d="M113 745q27 53 88 54q47 0 75 -35q41 -45 19 -102q-20 -57 -81.5 -63.5t-94.5 42.5q-37 49 -6 104z" />
<glyph unicode="&#x2026;" horiz-adv-x="800" d="M174 150q0 18 13.5 31.5t31.5 13.5q20 0 33.5 -13.5t13.5 -31.5q0 -20 -13 -34t-34 -14q-18 0 -31.5 14t-13.5 34zM406 150q0 18 13 31.5t32 13.5q20 0 33.5 -13.5t13.5 -31.5q0 -20 -13.5 -34t-33.5 -14q-18 0 -31.5 14t-13.5 34zM621 150q0 18 13 31.5t32 13.5 q20 0 33.5 -13.5t13.5 -31.5q0 -20 -13.5 -34t-33.5 -14q-18 0 -31.5 14t-13.5 34z" />
<glyph unicode="&#x202f;" horiz-adv-x="301" />
<glyph unicode="&#x2030;" horiz-adv-x="1384" d="M63 809q-2 70 17 141q20 74 51 127q27 55 70 101q43 43 82 61q45 25 90 12q51 -12 78 -80q20 -51 12 -133q2 0 6 1t6 1q57 10 109 31q57 27 102 62q51 41 82 86l16 26q4 4 4 8q2 2 3 4l4 5q4 4 6 4q2 2 4 2l4 2h6q0 -2 4 -2t6 -2l6 -6v-3l3 -6v-8q0 -6 -3 -8 q-4 -6 -8 -14l-12 -23l-18 -33l-25 -41l-27 -47l-30 -55l-19 -32q-12 -22 -16 -27q-25 -41 -35 -64q-14 -23 -39 -68l-41 -67l-39 -72l-41 -71l-41 -70q-4 -6 -18 -30.5t-21 -39.5l-36 -65l-37 -62l-33 -59l-29 -51q-4 -6 -26 -45l-23 -39q-2 -4 -16 -29l-11 -20l-6 -9 q-8 -12 -20 -12t-19.5 12.5t0.5 22.5l5 8l10 21l43 71l28 51l33 58q10 20 35 61q25 45 39 68q4 6 18.5 30.5t20.5 38.5l41 70q4 10 41 72l39 69l37 66l36 63q20 37 33 56l27 49l24 41q12 20 17 31l12 20l4 6q-39 -25 -94 -49q-68 -27 -133 -35h-4v-4q-2 -4 -2 -10 q-4 -12 -4 -19q-8 -25 -11 -36l-26 -64q-25 -53 -64 -106q-37 -47 -80 -76q-45 -27 -82 -29q-29 0 -55 15q-25 16 -41 40q-25 41 -29 107zM111 805q0 -25 10 -55q12 -31 29 -43q23 -16 47 -13q39 8 77.5 43t73.5 92q35 59 53 125l9 35h-21q-78 4 -127 37q-20 18 -37 43 q-12 27 -10 51q-35 -45 -61 -102q-33 -70 -41 -144q-4 -46 -2 -69zM262 1102q6 -25 29 -37q20 -18 55 -24.5t70 -6.5q6 31 2 70q-4 33 -15 57q-10 29 -34 41q-23 12 -60 0l-16 -8l-10 -6q0 -2 -4 -2q0 -2 -3 -2v-2l-6 -15l-6 -16q-6 -29 -2 -49zM489 203q-8 61 9 135 q12 68 45 133q33 68 65 107q35 45 80 71q47 27 82 25q25 0 47 -12q45 -25 64 -89q12 -53 6 -127q-10 -76 -37 -141q-31 -72 -62 -112q-33 -49 -75 -84q-41 -31 -82 -39q-27 -4 -49 2q-29 6 -50 30q-31 31 -43 101zM535 225q4 -39 10 -57q8 -23 28 -43q18 -14 50 -10 q39 6 75 43q43 39 74 92q35 59 53 125q20 78 19 141q-2 29 -13 57q-12 31 -28 43q-33 27 -86 -2q-43 -29 -76 -69q-43 -55 -66 -111q-31 -76 -38 -141q-4 -45 -2 -68zM938 203q-8 61 8 135q12 68 45 133q33 68 66 107q35 45 80 71q47 27 82 25q27 0 47 -12q45 -25 63 -89 q12 -53 6 -127q-10 -76 -37 -141q-31 -72 -61 -112q-33 -49 -76 -84q-41 -31 -82 -39q-27 -4 -49 2q-29 6 -49 30q-31 31 -43 101zM983 225q4 -39 10 -57q8 -23 29 -43q18 -14 49 -10q39 6 76 43q43 39 74 92q35 59 53 125q20 78 18 141q-2 29 -12 57q-12 31 -29 43 q-33 27 -86 -2q-43 -29 -75 -69q-43 -55 -66 -111q-31 -76 -39 -141q-4 -45 -2 -68z" />
<glyph unicode="&#x2039;" horiz-adv-x="294" d="M59 344q-2 12 4 18l7 11l30 41l45 59q27 33 48 66l43 57l26 35l6 8q8 8 17 8q18 0 22 -14q6 -10 -2 -23l-2 -2l-8 -12l-35 -45l-47 -64l-49 -65l-39 -55q-12 -16 -21 -25l2 -4l5 -49l10 -80q4 -53 8 -80l6 -49q0 -12 -2 -19q-6 -12 -22 -12q-12 0 -21 14q0 2 -1 6.5 t-1 6.5q0 12 -2 18l-6 66l-10 80l-7 69q-4 25 -4 35z" />
<glyph unicode="&#x203a;" horiz-adv-x="256" d="M-18 98q0 4 4 8l6 11l33 47l47 67l45 66l33 47q0 2 4 6l2 2q-4 12 -4 17l-17 61l-20 80l-19 72q-8 25 -10 36q-2 10 5 19.5t18 9.5q16 0 20 -14l2 -4q2 -12 10 -37l17 -70q10 -33 20 -78q14 -51 17 -63l8 -27q4 -10 -4 -18l-15 -23l-34 -51l-46 -65q-4 -6 -45 -64 l-30 -43l-6 -10q-10 -18 -31 -8q-16 8 -10 26z" />
<glyph unicode="&#x2044;" horiz-adv-x="770" d="M68 -369q2 2 2 7l6 14l10 22l12 31l17 39l18 45l23 51l22 58l25 59l28 66l27 67l31 72l61 147l31 76l33 76l30 76l31 73l31 72l29 70l26 67q12 27 27 64l24 59q4 8 11.5 27.5t11.5 25.5l20 49l19 41q8 25 14 37q8 14 10 27q2 4 9 20l6 11v2q8 25 30 12q20 -6 13 -29v-2 q-4 -8 -4 -10q-4 -6 -9 -18l-12 -27l-14 -35l-17 -41l-20 -47l-21 -53l-24 -58q-4 -12 -14.5 -33.5t-12.5 -29.5l-26 -66l-31 -69q-8 -25 -29 -74l-61 -147l-18 -41q-11 -27 -15 -35l-61 -152l-62 -143l-29 -70l-26 -65l-25 -62l-24 -57q-2 -6 -10 -24l-11 -27 q-4 -8 -20 -45q-2 -8 -17 -41l-12 -31q-8 -16 -10 -24l-8 -17q0 -2 -1 -4t-1 -4q-8 -14 -23 -14q-12 0 -18 11t-2 21z" />
<glyph unicode="&#x205f;" horiz-adv-x="376" />
<glyph unicode="&#x20ac;" horiz-adv-x="915" d="M20 647q6 10 21 10h190q2 0 2 2q20 59 27 76h-119q-16 0 -24 4q-10 10 -6 25q4 16 20 16h148q4 0 4 8l14 33l35 68q39 72 76 121q43 59 96 108q55 51 100 74q53 25 96 25q45 0 82 -25q37 -20 64 -74q12 -18 22 -55l9 -31q2 -14 -11 -24q-12 -12 -24 0q-6 4 -11 10 q0 6 -2 10q-2 18 -12 41q-18 53 -49 78q-16 14 -43 20q-14 4 -47 0q-45 -8 -94 -43q-49 -33 -103 -94q-43 -51 -82 -117q-35 -55 -69 -133h198q14 -6 17 -20q0 -16 -13 -23q-6 -2 -16 -2h-205q-2 0 -2 -2q-16 -41 -28 -76h153q16 -4 19 -18q4 -16 -11 -23q-6 -4 -18 -4h-156 q-2 0 -2 -2l-6 -20l-8 -39q-18 -72 -25 -148q-8 -78 0 -131q4 -51 21 -94q18 -49 49 -76q16 -14 43 -20q25 -6 47 0q47 8 96 43q51 37 101 96l12 15q8 8 12 8q12 6 25 -6q10 -12 2 -27l-10 -14l-13 -15q-49 -55 -102 -94q-55 -37 -98 -49q-49 -12 -95 2q-41 10 -75.5 53 t-46.5 101q-16 55 -17 124q-2 57 8 140q14 86 33 153h-178q-12 0 -18 9q-11 12 -3 26z" />
<glyph unicode="&#x2122;" horiz-adv-x="497" d="M51 963q0 4 2 6l31 82l29 71l12 33h-41q-8 0 -8 6q-2 6 4 12.5t14 6.5h105q12 0 8 -13q-2 -8 -17 -12h-38h-2q-2 0 -3 -2l-6 -18l-26 -66q-14 -33 -27 -72l-10 -22l-6 -12q-6 -6 -13 -7q-8 1 -8 7zM170 961q0 4 2 6v2l18 49q20 49 29 74l25 61l6 14l4 9q6 6 14 6 q10 0 6 -11v-47q0 -14 -1 -40.5t-1 -39.5v-40l31 43l98 127q4 8 14.5 8t6.5 -13l-14 -34l-27 -72l-27 -68l-8 -22l-6 -12q-6 -6 -12 -7q-8 0 -9 7v8q4 8 9 20q6 12 15 37l13 35l17 43l-35 -45q-43 -59 -47 -66l-19 -24l-6 -6q-4 -6 -12 -6.5t-8 8.5v12q2 43 2 127 q0 -2 -2 -2v-4l-25 -64l-24 -61q0 -4 -2 -6q-4 -12 -15 -13q-8 1 -10 7z" />
<glyph unicode="&#x2212;" horiz-adv-x="743" d="M72 555v4q0 4 2 6q4 8 12 13h526l15 -7v-2q10 -10 4 -24l-2 -4q-8 -8 -17 -9h-503q-18 0 -23 3q-4 0 -4 2q-6 2 -8 8q-2 2 -2 10z" />
<glyph unicode="&#xe000;" horiz-adv-x="630" d="M0 630h630v-630h-630v630z" />
<glyph horiz-adv-x="544" />
<glyph horiz-adv-x="856" d="M39 90q-2 10 8 25l211 247q8 8 12 11q37 45 111 127q16 20 53 61q20 25 49 90q68 166 135 312l72 143q55 98 103 123q41 23 78.5 3t39.5 -67q4 -51 -63 -166q-74 -119 -221 -288l-105 -119q-29 -33 -53.5 -90.5t-38.5 -98.5q96 121 172 175q100 76 172 32q43 -27 42 -83 t-25.5 -107t-40.5 -94q-41 -90 -52 -121q-20 -63 -16 -84q10 -43 88 22q51 41 195 215q10 12 24.5 6t14.5 -22q-2 -8 -31 -45q-6 -8 -66 -76q-115 -133 -180 -158q-43 -16 -69.5 15t-20.5 76q8 47 32.5 107.5t45.5 100.5q12 20 25.5 58.5t23.5 76.5t-4.5 62.5t-59.5 15.5 q-41 -6 -98 -55q-66 -55 -123 -127q-70 -86 -123 -188q-20 -39 -53 -121q-4 -12 -7 -22.5t-10 -14.5t-20 0q-25 10 -4 53q12 35 41 105l98 250l-104 -119l-8 -8l-35 -41l-137 -162l-37 -45q-6 -6 -15.5 -8t-16.5 3t-9 15zM551 696q184 209 258 330q57 94 57 131 q0 18 -11 30.5t-28 6.5q-33 -10 -67 -61q-39 -57 -84 -160q-19 -37 -125 -277z" />
<glyph horiz-adv-x="808" d="M39 90q-2 10 8 25l211 247q6 8 16 13l27 33l61 73l35 37q4 8 17 21q6 16 8 20q33 90 74 186q86 205 147 318q59 111 109 151q35 31 73 29q49 -6 66 -51q10 -25 2 -68q-12 -59 -62 -135q-37 -66 -112 -160q-39 -49 -189 -223q-4 -4 -65 -78q-14 -18 -16 -26l-9 -25 q-4 -8 -9 -24l-7 -23q-33 -100 -41 -160q-14 -98 12 -137q23 -29 62 -29t71 21q66 35 125 133q-59 45 -67 141q-6 88 28 160q20 35 54 56.5t67 5.5q57 -31 47 -148q-8 -86 -67 -199q47 -18 94 0q49 25 106 91q8 10 23.5 6t17.5 -19q2 -12 -32 -47q-47 -47 -90 -69 q-47 -23 -95 -15q-14 0 -28 6l-13 4q-6 2 -10 -4l-37 -51q-61 -80 -131 -106q-86 -33 -145 20q-53 45 -41 152q4 74 39 178l-51 -60q-23 -27 -31 -28l-37 -45l-137 -162l-37 -45q-6 -6 -15.5 -8t-16.5 3t-9 15zM504 645l74 84q106 125 165 211q49 70 74 117q33 57 33 94 q4 23 -8 35q-18 18 -39 8q-12 -4 -33 -25q-37 -37 -76 -110q-63 -111 -162 -344zM631 440q-4 -96 45 -143q53 109 61 186q0 55 -10 80q-12 25 -39 10q-23 -12 -39 -49q-14 -39 -18 -84z" />
<glyph horiz-adv-x="540" d="M18 -430q-8 37 11 117q23 92 108 305l142 323l-25 -28l-137 -162l-37 -45q-6 -6 -15.5 -8t-16.5 3t-9 15t8 25l211 247q6 8 16 13l11 12l24 25q2 4 11.5 14t11.5 16q12 25 26 58l31 73l170 412q20 51 66 154q39 84 104 102q66 20 109 -31q43 -49 14 -141 q-31 -90 -125 -219q-59 -84 -190 -248l-95 -108l-43 -50l-18 -20q-12 -14 -16 -27l-113 -258q8 18 49 19q33 0 51 2q47 6 97 28q86 43 196 174q16 20 35 3q12 -16 -2 -35q-45 -53 -70 -78q-74 -70 -131 -98q-66 -37 -133 -39q-12 -2 -37 -2q-12 0 -18 2q-2 -2 -2 -9 q-4 -12 2 -69q2 -14 12 -92t12 -108t-1 -87t-17 -100q-20 -66 -65.5 -112t-104.5 -48q-87 0 -107 80zM66 -371q-8 -39 4 -63q25 -47 88 -21q109 45 108 226q2 61 -14 188q-8 57 -10 88q-6 35 0 72q-70 -160 -101 -242q-47 -119 -65 -188q-8 -35 -10 -60zM428 547 q152 180 223 276q43 55 94 135q39 63 60 115q39 98 -21 123q-29 12 -57.5 -5t-46.5 -46q-12 -18 -35 -74l-33 -78l-77 -188z" />
<glyph horiz-adv-x="507" d="M39 90q-2 10 8 25l211 247q6 8 16 13l17 20l139 160l45 53q10 14 25 13q29 -8 16 -31l-12 -25q-76 -139 -127 -266q-29 -66 -41 -119q-6 -27 -4 -49q0 -25 8 -25q8 -2 33 11q25 14 49 35q33 29 90 90q41 45 78 90q2 2 6 8q33 41 51 25q16 -14 -4 -43l-37 -41 q-70 -82 -108 -121q-55 -55 -95 -78q-55 -33 -86 -16q-27 12 -30 55q-6 47 22 131q27 74 78 184l-92 -108q-4 -4 -14 -11l-27 -30l-137 -162l-37 -45q-6 -6 -15.5 -8t-16.5 3t-9 15zM585.5 954q20.5 41 55.5 25q33 -18 12.5 -59t-55.5 -25q-33 18 -12.5 59z" />
<glyph horiz-adv-x="458" d="M-131 -406q4 121 143 261q57 57 148 133l98 82q8 8 25 47l147 366l-61 -72q-41 -48 -45 -53l-23 -24q-6 -8 -16 -8l-31 -39l-137 -162l-37 -45q-6 -6 -15.5 -8t-16.5 3t-9 15t8 25l211 247q12 12 18 15l15 14l63 74l121 141q2 2 7 6t10 6q10 4 20 -3t10 -19q0 -4 -4 -12 l-31 -84l-143 -357q117 104 221 222q14 14 30.5 0.5t6.5 -29.5q-2 -4 -33 -35l-28 -31q-86 -86 -105 -102q-33 -33 -98 -90q-8 -8 -25 -21l-10 -10l-10 -24l-45 -103q-98 -219 -174 -336q-59 -92 -119 -96q-41 -2 -63.5 30.5t-22.5 75.5zM-84 -428q8 -43 39 -37q29 4 59 45 q45 59 99 166q61 123 110 236l-16 -15q-94 -82 -139 -125q-80 -74 -119 -147q-41 -72 -33 -123zM570.5 938q21.5 41 56.5 23q33 -16 12 -57.5t-55 -24.5q-35 18 -13.5 59z" />
<glyph horiz-adv-x="798" d="M39 90q-2 10 8 25l211 247q12 12 18 15l134 149l39 43q12 33 20 49q12 33 41 99l72 168q61 137 112 229q33 61 70 96q59 51 108 23q31 -18 37 -59t-10 -72q-8 -25 -51 -94q-63 -96 -199 -267l-117 -141q-2 -2 -28 -35l-15 -16l-6 -12q-2 -6 -4 -11l-41 -100 q86 109 168 160q121 76 172 -2q20 -47 6 -89t-49 -77q-82 -84 -258 -123q4 -8 14.5 -38l16.5 -46q37 -82 78 -96q43 -14 90 12q41 25 96 84q47 49 129 147q6 6 15.5 7.5t17.5 -5t8 -16.5q0 -8 -14 -27q-16 -20 -27 -30l-90 -103q-37 -39 -63.5 -62.5t-71.5 -44t-86 -11.5 q-35 8 -61.5 30.5t-42 53t-30 65.5t-22.5 66q-14 39 0 51l25 6q16 4 24 4l45 12q88 27 138 64q49 35 67 74q18 35 8 61q-12 33 -67 14q-39 -14 -94 -57q-51 -43 -105 -111q-111 -137 -180 -336l-4 -6l-6 -8q-6 -6 -13 -2q-31 6 -18 37l47 119l92 235q-53 -61 -84 -92 q-14 -18 -24 -22l-31 -37l-137 -162l-37 -45q-6 -6 -15.5 -8t-16.5 3t-9 15zM547 688q59 72 63 76q160 203 217 299q47 78 35 115q-12 27 -45 12q-25 -10 -59 -57q-33 -51 -86 -162q-31 -64 -125 -283z" />
<glyph horiz-adv-x="561" d="M39 90q-2 10 8 25l211 247l14 13l21 22l49 64q6 6 11 12l13 15l11 14q14 20 14 22l6 13q2 6 4 10q31 84 58 143q57 147 90 219l72 148q45 86 79 125q70 84 127 53q33 -16 38 -59t-11 -72q-10 -31 -51 -98q-55 -92 -156 -226l-207 -272q-8 -8 -14 -21l-8 -24l-19 -49 q-18 -51 -30 -95q-12 -41 -19 -79q-8 -59 6.5 -92t48 -26t67.5 38l66 61q32 31 42 45l63 70q2 2 6 8q41 49 60 27q10 -16 -7 -37q-33 -39 -34 -41l-68 -72q-59 -68 -113 -106q-57 -41 -96 -39q-43 0 -65.5 33.5t-24.5 80.5q-2 61 41 195q-14 -16 -39 -49q-10 -10 -18 -10 l-31 -39l-137 -162l-37 -45q-6 -6 -15.5 -8t-16.5 3t-9 15zM492 649l186 252q96 141 127 203q27 59 6 86q-6 8 -27 4q-41 -16 -86 -94q-31 -47 -63 -119q-41 -80 -82 -178z" />
<glyph horiz-adv-x="1363" d="M39 90q-2 10 8 25l211 247q6 8 16 13l11 12l69 82q25 29 58.5 63.5t64.5 55.5q68 51 111 10q47 -43 12 -168q63 88 117 135q68 59 117 64q35 2 59.5 -20.5t30.5 -59.5q10 -61 -15 -178q84 113 162 178t143 74q49 4 72 -17q23 -23 23 -59q0 -49 -54 -180 q-59 -137 -69 -172q-14 -43 -10 -62q2 -20 34 -16q39 8 103 67q47 45 108 117l43 53q27 31 43 19q18 -16 -14 -56q-49 -61 -76 -92q-86 -98 -147 -133q-84 -49 -125 -2q-33 39 2 135q8 29 21 60l30 66l25 57q29 74 30 81q12 37 11 62q-4 49 -86 14q-49 -23 -117 -86 q-55 -55 -113 -133q-18 -23 -51 -72l-23 -34q-4 -8 -18 -45t-35 -84q-20 -37 -28 -43q-18 -16 -35 0q-12 12 -4 36q8 29 24 58l23 43q23 39 24 45q20 61 29 94q31 111 27 180q-4 57 -39 58q-14 0 -35 -9q-41 -18 -80 -61q-68 -68 -166 -223l-67 -117l-29 -53l-23 -45 q-18 -18 -36 0q-8 12 0 28l26 56q6 14 36 75.5t44 94.5q37 86 47 133q23 78 -2 102q-12 12 -33 0q-23 -10 -59 -43l-62 -65l-71 -82l-27 -31q-10 -14 -20 -16l-31 -39l-137 -162l-37 -45q-6 -6 -15.5 -8t-16.5 3t-9 15z" />
<glyph horiz-adv-x="1024" d="M39 90q-2 10 8 25l211 247q12 12 18 15l58 74q51 57 92 94q53 49 96 63q31 10 57.5 -3t35 -44t-0.5 -76q-8 -43 -28 -98q37 49 73 92q78 86 142 119q92 49 143 8q41 -33 10 -139l-77 -188q-29 -74 -31 -82q-14 -43 -12 -62q4 -45 88 2q43 27 112 101l57 71l44 58 q8 10 23.5 8t17.5 -17q0 -4 -11 -26q-4 -10 -26 -37q-70 -88 -99 -117q-80 -80 -137 -100q-31 -14 -67.5 -5t-44.5 44q-8 27 4 67q6 31 30 88l74 179q16 41 23 73q4 35 -4 45q-14 14 -52 4q-18 -2 -47 -18q-86 -45 -188 -184q-74 -100 -142 -219q-31 -57 -40 -70 q-14 -23 -35 -12q-20 8 -11 28l17 37q70 139 100 211q37 90 45 129q6 25 6 51q4 27 -12 39q-14 8 -41 -6q-27 -18 -53 -41q-61 -55 -127 -135l-31 -41q-12 -16 -22 -16l-31 -39l-137 -162l-37 -45q-6 -6 -15.5 -8t-16.5 3t-9 15z" />
<glyph horiz-adv-x="843" d="M39 90q-2 10 8 25l211 247q12 12 18 15l105 121q35 37 100 114q12 14 29.5 3t9.5 -27q-10 -25 -10 -27l-66 -158q102 129 201 191q96 61 143 29q39 -25 35 -103q-2 -70 -35 -151q-70 -176 -202 -267q186 49 364 260q12 16 29.5 3t7.5 -29l-31 -37q-20 -20 -28 -33 q-47 -49 -107 -96q-150 -111 -303 -125q-53 -6 -112 4l-33 6q-20 8 -15.5 29.5t27.5 15.5q20 -6 41 -6q12 0 33 4q33 6 65 23q55 29 111 86q94 104 129 239q8 25 12 54q4 57 -4 75q-12 27 -59 3q-47 -20 -97 -62q-55 -45 -110 -108q-51 -59 -107 -146q-27 -41 -45 -80 q-2 -2 -6 -10l-6 -12l-10 -23l-19 -45l-157 -366q-41 -98 -64 -146q-8 -25 -24 -24q-23 4 -23 24q0 8 10 29l13 26l116 271l240 569q-78 -86 -115 -131q-12 -12 -20 -14l-35 -43l-137 -162l-37 -45q-6 -6 -15.5 -8t-16.5 3t-9 15z" />
<glyph horiz-adv-x="684" d="M39 90q-2 10 8 25l211 247l8 9l29 28q41 43 119 133l65 80l31 35q10 14 26.5 7t14.5 -23q-2 -8 -9 -23.5t-10 -17.5q0 -2 -3 -10.5t-3 -12.5q-2 -12 11 -14q14 -2 26 -1t26.5 0t24.5 -5q43 -14 35 -66q-8 -41 -33 -82l-55 -92q-70 -119 -78 -157q-6 -47 17 -54 q12 -4 41 13q39 25 112 102l142 158q14 16 31.5 0.5t0.5 -31.5l-20 -25l-72 -80q-72 -84 -125 -129q-59 -51 -98 -55q-41 -4 -61.5 29t-14.5 72q8 57 86 180l56 92q29 57 26 76q-2 8 -59 8q-51 4 -64 37q-29 -37 -141 -164l-39 -41q-10 -10 -14 -12l-33 -39l-137 -162 l-37 -45q-6 -6 -15.5 -8t-16.5 3t-9 15z" />
<glyph horiz-adv-x="653" d="M39 90q-2 10 8 25l211 247l6 9q4 6 14.5 14t12.5 10l184 215l25 29q14 14 30.5 3t8.5 -28q-2 -6 -12.5 -16t-12.5 -18q-10 -25 -14 -82q0 -35 2 -103.5t2 -101.5q0 -117 -35 -174q88 33 174 112q68 61 115 129q14 18 32.5 5t6.5 -31l-49 -62q-61 -72 -125 -118 q-170 -131 -326 -97q-82 18 -152 84l-10 6l-18 -22l-37 -45q-6 -6 -15.5 -8t-16.5 3t-9 15zM166 184l8 -8q16 -16 35 -29q37 -27 76 -38q14 -6 43 -11q25 -4 39 -2q53 12 73 72q18 51 19 145q0 20 -3 91t-1 110l-125 -143l-37 -39l-6 -6l-33 -39z" />
<glyph horiz-adv-x="600" d="M39 90q-2 10 8 25l211 247l14 13l4 4q94 125 152 227h-92q-14 0 -21.5 10.5t-1.5 22.5t33 12h109l20 43q39 76 105 236q6 16 23.5 14t19.5 -20q0 -6 -13 -39l-30 -78q-29 -66 -64 -156h141q49 0 55.5 -12t-2 -22.5t-20.5 -10.5h-192q-2 0 -5 -8l-8 -18q-4 -10 -4 -13 l-16 -43l-33 -90q-33 -98 -45 -168q-14 -84 2 -116q10 -25 36 -28t49.5 6t41.5 24q47 33 139 147l54 63q8 10 21 7.5t18 -15.5q4 -10 -9 -26q-37 -43 -39 -45q-102 -127 -145 -160q-80 -63 -149 -43q-57 14 -68 84q-8 53 6 121q16 80 51 182l-84 -117q-14 -20 -26 -24 l-31 -39l-137 -162l-37 -45q-6 -6 -15.5 -8t-16.5 3t-9 15z" />
<glyph horiz-adv-x="868" d="M39 90q-2 10 8 25l211 247l14 13l2 2l41 51q86 111 125 166q2 2 5.5 9t7.5 11q14 14 32 0q12 -12 0 -32l-69 -168q-47 -100 -68 -164q-16 -43 -20 -72q-8 -29 -2 -49q8 -37 71 -8q43 20 84 61q80 76 178 215q82 119 134 211q10 18 24 19q18 0 23 -19q0 -2 -6 -26 q-14 -31 -39 -93q-12 -33 -43 -105.5t-45 -111.5q-35 -92 -39 -131q-6 -25 4 -32q8 -4 28 2l23 10q39 23 119 96q74 74 131 145q23 23 39 -4q6 -14 -6 -30q-37 -43 -39 -45q-57 -66 -111 -115q-59 -59 -108 -86q-86 -45 -117 6q-18 31 0 102q14 59 63 175 q-109 -154 -202 -236q-70 -57 -127 -66q-33 -4 -56.5 12.5t-29.5 47.5q-6 43 18 119q12 39 70 178l-50 -64q-23 -29 -32 -32l-31 -37l-137 -162l-37 -45q-6 -6 -15.5 -8t-16.5 3t-9 15z" />
<glyph horiz-adv-x="980" d="M39 90q-2 10 8 25l211 247q6 8 16 13l19 24q109 121 113 125q70 70 106 84q29 10 55.5 -4t30.5 -45q2 -31 -12 -72q-4 -16 -35 -92l-72 -164q-16 -37 -22 -69.5t4 -42.5q18 -20 59 4q39 18 84 59q96 82 195 205q57 70 82 107l32 47q6 10 12.5 23.5t16.5 20.5t23 1 q23 -10 8 -33l-25 -45q-25 -41 -43 -86q-33 -70 -31 -117q2 -25 20.5 -36t43.5 -7q33 6 70 35q35 27 77 68q14 12 28.5 1.5t10.5 -26.5q-2 -4 -20 -23l-25 -22q-68 -59 -112 -74q-68 -23 -113 21q-37 37 -20 114q-104 -129 -179 -192q-57 -49 -90 -68q-45 -27 -78 -28 q-68 -6 -77 57q-6 53 39 158l36.5 78.5t40.5 95.5q41 109 11 110q-16 0 -35 -18q-25 -16 -51 -43l-103 -113q-4 -8 -14 -19.5t-12 -13.5q-23 -27 -29 -32l-8 -4l-31 -37l-137 -162l-37 -45q-6 -6 -15.5 -8t-16.5 3t-9 15z" />
<glyph horiz-adv-x="1148" d="M39 90q-2 10 8 25l211 247q6 8 16 13l43 51q82 96 125 164l11.5 16t12.5 12.5t17 2.5q23 -10 13 -35l-37 -86l-99 -234q-16 -49 -22 -73q-8 -37 -6 -56q4 -27 22 -26q14 -2 43 6q31 12 84 57q39 35 90 96q80 96 166 234l60 96q8 16 14 23q18 12 33 -7q8 -10 -4 -34 q-10 -14 -17 -29q-88 -164 -125 -293q-20 -72 -14 -110q4 -31 25 -35q31 -10 65 6q63 25 123 98q51 61 104 158q16 29 23 43l20 47l46 86q16 37 20 45q4 12 10 18q14 14 33 -2q10 -10 -6 -47q-2 -4 -10.5 -22.5t-14.5 -28.5l-43 -90q-25 -49 -32 -92q-8 -37 8 -55 q18 -25 53 -17q33 4 70 35q29 20 79 68q8 10 22.5 5t14.5 -20q2 -10 -28 -41q-51 -49 -92 -69q-53 -33 -101 -23q-59 12 -72 70q-53 -88 -114 -146q-63 -63 -131 -73q-45 -8 -74 8q-33 14 -43 59q-12 63 31 184q-92 -125 -174 -192q-76 -63 -134 -64q-31 0 -52 17.5 t-23 48.5q-6 39 20 121q31 90 70 176l-47 -57l-27 -29q-10 -14 -18 -16l-31 -37l-137 -162l-37 -45q-6 -6 -15.5 -8t-16.5 3t-9 15z" />
<glyph horiz-adv-x="899" d="M39 90q-2 10 8 25l211 247q2 4 7 7.5t7 5.5l50 55l67 80q82 92 143 106q45 10 75 -8t42.5 -61t15.5 -75t5 -75l157 123l117 90q8 8 20.5 14.5t22.5 0.5q20 -12 6 -35q-4 -6 -18 -15.5l-17 -11.5l-163 -127q-6 -4 -37 -28l-47 -37l-25 -19l-16 -16v-45q6 -88 6 -90 q10 -51 18 -64q33 -49 113 8q61 41 141 142l64 75q8 10 20 8.5t19 -12.5q6 -14 -7 -28l-34 -43q-78 -94 -123 -137q-80 -76 -146 -78q-41 -2 -67.5 19.5t-35.5 65.5t-11 70.5t-2 73.5q-119 -94 -176 -143q-68 -63 -80 -78q-10 -14 -21 -17q-23 -4 -26 21q-2 8 22 39 q37 37 115 102l82 68l45 37l20 16q18 12 19 19l-4 96q-4 49 -17 76q-14 33 -39 36q-27 2 -61 -20q-45 -31 -135 -139l-66 -76q-10 -10 -16 -12l-2 -2l-31 -37l-137 -162l-37 -45q-6 -6 -15.5 -8t-16.5 3t-9 15z" />
<glyph horiz-adv-x="935" d="M39 90q-2 10 8 25l211 247q6 8 16 13q0 2 2 4l33 39q86 100 111 125q63 63 102 71q31 6 58 -10q29 -23 28 -63q4 -53 -43 -185q-49 -123 -59 -176q-4 -41 2 -53q8 -10 39 -4q35 10 86 53q82 74 201 232q61 86 90 131q12 20 20 30q12 20 25 21q12 2 18 -10.5t2 -24.5 l-174 -432q129 119 229 239q8 8 19.5 8.5t17.5 -10.5q8 -14 -14 -43l-76 -86q-96 -100 -168 -161l-41 -37q-6 -6 -22 -43q-2 -8 -17 -41q-8 -25 -28 -74q-49 -119 -76 -176q-41 -86 -84 -131q-57 -66 -123 -68q-43 -2 -69.5 27t-26.5 72q2 90 108 204q51 55 152 134l84 67 l41 37q14 10 16 14l6 15l125 307q-117 -160 -206 -236q-63 -55 -119 -65q-37 -8 -62 14q-23 16 -22 53q-2 27 10 80l33 99q47 123 57 178q8 39 0 57q-10 20 -41 8l-49 -37l-26 -26q-19 -20 -29 -33l-82 -96l-31 -37l-14 -10l-33 -39l-137 -162l-37 -45q-6 -6 -15.5 -8 t-16.5 3t-9 15zM389.5 -436q18.5 -33 69.5 -10q27 8 51 32q43 41 82 123q31 59 80 182q4 14 28 72q-16 -14 -63 -50t-79 -63.5t-60 -56.5q-70 -70 -99 -135q-28 -61 -9.5 -94z" />
<glyph horiz-adv-x="780" d="M39 90q-2 10 8 25l211 247q8 8 12 11l27 30l50 56l53 53q26 25 57.5 48.5t64.5 37.5q88 35 164 14q90 -27 100 -118q6 -74 -53 -164q-53 -80 -139 -148q39 -41 33 -98l110 117l92 98l48 53q27 27 43 13q16 -16 -5 -39l-245 -265l-52 -51l-12 -10q-4 -8 -4 -12l-10 -21 q-12 -33 -21 -47q-47 -111 -88 -186q-49 -92 -90 -150q-45 -63 -96 -90q-63 -33 -117 -10q-74 37 -41 141q29 78 115 160q39 39 154 123l86 61q16 10 45 35l20 16q8 6 12 23q18 51 9 80q-2 10 -11 18l-6 9q-6 6 -8 2l-45 -29q-102 -63 -158 -45q-31 10 -37 35q-4 27 25 61 q68 70 166 53q25 -6 49 -18q37 31 39 33q41 39 72 73q78 100 73 170q-2 45 -37.5 67.5t-85.5 20.5q-53 -2 -111.5 -38.5t-79.5 -60.5l-83 -91l-27 -29q-23 -27 -30 -28l-31 -39l-137 -162l-37 -45q-6 -6 -15.5 -8t-16.5 3t-9 15zM182 -391q-25 -80 37 -88q78 -6 160 125 q59 86 151 293l-86 -60.5t-104 -77t-78 -71.5q-64 -66 -80 -121zM360 127q-2 -4 2.5 -5t8.5 -1q18 -2 61 12q37 16 82 47q-51 14 -104 -12q-23 -8 -41 -31z" />
</font>
</defs>
</svg>
